SplineFontDB: 3.2
FontName: k_eee
FullName: k_eee
FamilyName: k_eee
Weight: Regular
Copyright: kurokky black-tree.net
Version: 
ItalicAngle: 0
UnderlinePosition: 0
UnderlineWidth: 0
Ascent: 819
Descent: 205
InvalidEm: 0
LayerCount: 2
Layer: 0 0 "Back" 1
Layer: 1 0 "Fore" 0
XUID: [1021 417 -389133839 9013314]
OS2Version: 0
OS2_WeightWidthSlopeOnly: 0
OS2_UseTypoMetrics: 0
CreationTime: 1643103121
ModificationTime: 1643103177
PfmFamily: 17
TTFWeight: 400
TTFWidth: 5
LineGap: 92
VLineGap: 92
OS2TypoAscent: 0
OS2TypoAOffset: 1
OS2TypoDescent: 0
OS2TypoDOffset: 1
OS2TypoLinegap: 92
OS2WinAscent: 0
OS2WinAOffset: 1
OS2WinDescent: 0
OS2WinDOffset: 1
HheadAscent: 0
HheadAOffset: 1
HheadDescent: 0
HheadDOffset: 1
OS2Vendor: 'PfEd'
MarkAttachClasses: 1
DEI: 91125
Encoding: Original
UnicodeInterp: none
NameList: AGL For New Fonts
DisplaySize: -48
AntiAlias: 1
FitToEm: 0
WinInfo: 22 22 9
BeginPrivate: 0
EndPrivate
BeginChars: 209 209

StartChar: .notdef
Encoding: 0 0 0
Width: 1024
LayerCount: 2
Fore
SplineSet
0 0 m 1
 1000 0 l 1
 1000 1024 l 1
 0 1024 l 1
 0 0 l 1
EndSplineSet
Validated: 9
EndChar

StartChar: "+MLAw6jDV 1"
Encoding: 1 12521 1
Width: 1024
LayerCount: 2
Fore
SplineSet
644.13672 781.79102 m 1
 635.60481 779.67939 628.01727 776.81389 623.05664 771.8457 c 1
 471.24805 772.64844 l 2
 457.65006 773.30494 448.15917 766.89891 439.26367 757.41797 c 2
 411.08594 706.39258 l 2
 401.3888 694.63182 417.53311 699.41298 424.03125 698.01758 c 2
 654.03711 703.34766 l 1
 684.51562 706.39258 l 2
 697.20161 707.66023 705.89467 721.22992 695.9375 745.99414 c 1
 695.9375 745.99414 684.64837 768.37945 674.61523 774.93164 c 0
 665.9004 780.62361 644.13672 781.78711 644.13672 781.78711 c 1
 644.13672 781.79102 l 1
696.69922 642.41211 m 2
 664.69922 631.75 l 1
 490.28711 624.13477 l 1
 401.94727 618.04102 l 1
 373.00781 623.37109 l 1
 360.76025 621.2092 350.78758 616.30899 348.62305 602.04883 c 2
 330.3457 547.97852 l 2
 326.63874 540.72333 326.36865 535.27787 341.76758 538.07812 c 2
 510.86523 547.97852 l 1
 651.75195 550.26367 l 1
 654.03711 437.53711 l 1
 641.85156 413.92969 l 1
 584.73633 358.33594 l 1
 436.2168 266.17188 l 1
 387.47656 243.32617 l 1
 170.12538 184.24989 247.7736 193.42358 412.60938 222.76367 c 1
 521.52734 244.84961 l 1
 686.03711 321.00391 l 1
 706.0618 337.69392 726.63148 351.09944 743.91602 384.22852 c 1
 769.80859 562.44727 l 1
 769.80859 562.44727 768.07779 611.34687 752.29297 627.17969 c 0
 738.72673 640.78863 696.69922 642.41211 696.69922 642.41211 c 2
EndSplineSet
Validated: 524841
EndChar

StartChar: "+MLAw6jDV 2"
Encoding: 2 12522 2
Width: 1024
LayerCount: 2
Fore
SplineSet
633.37109 885.79688 m 0
 627.21747 885.68902 621.27999 882.88087 615.75781 874.88086 c 1
 615.75781 860.88672 l 1
 616.83398 659.47266 l 1
 618.97852 478.50781 l 1
 607.14258 376.18945 l 1
 425.09961 232.92188 l 1
 263.01646 164.18247 261.55196 157.70399 434.79492 218.92969 c 2
 540.36523 256.62695 l 1
 540.36523 256.62695 636.6238 306.14641 669.60547 347.10742 c 0
 688.8837 371.04959 705.16211 432.19531 705.16211 432.19531 c 1
 709.46094 745.63867 l 1
 704.08203 822.11133 l 1
 719.04065 823.89715 722.39428 826.90766 718.07617 830.72461 c 2
 657.75391 878.11719 l 2
 649.55143 881.61039 641.2829 885.93555 633.37109 885.79688 c 0
470.39844 758.08203 m 0
 465.83316 757.88529 463.79365 755.37694 464.95508 749.9375 c 0
 464.41876 747.7809 459.03516 547.44336 459.03516 547.44336 c 1
 455.25977 512.98438 l 1
 458.29321 481.38564 480.72253 480.819 501.04883 476.88867 c 0
 523.15075 471.54782 534.58068 482.43037 538.74609 504.35352 c 2
 539.28711 547.44336 l 1
 538.74609 719.23828 l 1
 544.03516 717.76767 544.72994 720.38273 543.58398 724.63281 c 0
 510.22303 743.99084 482.06526 758.58483 470.39844 758.08203 c 0
EndSplineSet
Validated: 524841
EndChar

StartChar: "+MLAw6jDV 3"
Encoding: 3 12478 3
Width: 1024
LayerCount: 2
Fore
SplineSet
755.75977 744.52148 m 0
 736.84132 744.08514 708.99609 723.37695 708.99609 723.37695 c 1
 666.64709 627.15155 667.94922 625.31445 667.94922 625.31445 c 1
 670.31445 584.72852 l 1
 735.47266 635.14062 l 1
 735.47266 635.14062 768.44382 675.27149 772.72852 699.76367 c 0
 775.21643 713.99024 777.55236 735.07252 765.11719 742.41797 c 0
 762.45955 743.98787 759.26318 744.60229 755.75977 744.52148 c 0
826.33398 664.34375 m 0
 824.72721 664.37435 823.12526 664.28915 821.53516 664.07617 c 0
 803.13815 661.61248 780.56836 626.36133 780.56836 626.36133 c 1
 722.89844 554.5 l 1
 799.57422 588.87891 l 1
 873.53516 607.98438 l 1
 873.53516 607.98438 873.74727 631.64204 867.12305 640.46875 c 0
 857.81271 652.87119 841.86615 664.04801 826.33398 664.34375 c 0
601.51562 608.61133 m 0
 600.7348 608.56343 600.10771 608.33249 599.6543 607.90039 c 0
 594.43912 602.18582 572.88079 617.92196 596.65625 574.1582 c 1
 598.15625 510.40625 l 1
 416.66602 246.44922 l 1
 254.68555 127.96094 l 1
 148.4019 90.00545 85.216374 64.88763 257.68555 109.96484 c 1
 339.16625 146.3375 418.78979 162.29668 502.16016 219.45508 c 1
 643.14453 441.42188 l 1
 696.53119 500.17031 692.09808 507.77104 695.63281 522.41992 c 0
 697.36731 534.55632 617.39254 609.58557 601.51562 608.61133 c 0
352.17969 555.41211 m 1
 336.50966 543.82669 343.73965 507.58155 353.67969 468.41602 c 1
 406.16602 406.92969 l 1
 430.10774 416.9858 466.31647 414.77358 458.66992 456.41797 c 1
 431.66211 517.9043 l 1
 403.9293 551.46805 377.94121 555.36161 352.17969 555.41211 c 1
EndSplineSet
Validated: 524841
EndChar

StartChar: "+MLAw6jDV 4"
Encoding: 4 12496 4
Width: 1024
LayerCount: 2
Fore
SplineSet
649.77148 689.01758 m 0
 637.98317 688.96688 626.47266 686.5957 626.47266 686.5957 c 1
 594.23438 640.16992 l 1
 594.86328 578.88281 l 1
 637.42773 625.18359 l 1
 637.42773 625.18359 683.11726 660.43024 673.90625 680.50781 c 0
 670.79041 687.29947 660.17294 689.06231 649.77148 689.01758 c 0
686.9668 633.875 m 2
 658.97461 596.34375 l 1
 639.74219 550.57227 l 1
 627.92578 494.85156 l 1
 666.98633 530.63281 l 1
 711.78711 570.21484 l 1
 711.78711 570.21484 724.27027 608.43027 714.62109 623.28906 c 0
 709.24513 631.56751 686.9668 633.875 686.9668 633.875 c 2
392.37891 585.14844 m 1
 377.97656 574.64453 l 1
 292.11523 167.66016 l 1
 328.81836 210.25195 l 1
 395.66211 270.55078 l 1
 414.66016 308.56641 l 1
 453.33398 522.88086 l 1
 460.55469 539.91016 l 1
 392.37891 585.14844 l 1
572.61719 562.84766 m 1
 513.63086 554.33398 l 1
 505.11719 538.61719 l 1
 568.67773 233.18945 l 1
 731.88477 80.48633 l 1
 657.16406 241.06641 l 1
 579.81836 551.05078 l 1
 572.61719 562.84766 l 1
EndSplineSet
Validated: 524841
EndChar

StartChar: "+MLAw6jDV 5"
Encoding: 5 12499 5
Width: 1024
LayerCount: 2
Fore
SplineSet
574.07031 644.88281 m 2
 552.00195 556.45312 l 1
 560.25 518.08008 l 1
 608.5 580.94727 l 1
 608.5 580.94727 620.11773 602.56645 616.45117 612.91797 c 0
 610.54309 629.59725 574.07031 644.88281 574.07031 644.88281 c 2
664.28711 597.97266 m 0
 657.68973 597.96196 649.71484 595.55273 649.71484 595.55273 c 1
 644.92383 550.5332 l 1
 623.36328 499.70117 l 1
 674.86914 527.29492 l 1
 674.86914 527.29492 694.35473 552.2105 692.83789 566.50781 c 0
 691.49926 579.12202 681.61226 591.72707 670.07812 597.00586 c 0
 668.53119 597.71355 666.48623 597.97622 664.28711 597.97266 c 0
343.07812 595.20898 m 1
 343.36523 589.89648 l 1
 347.45703 518.9082 l 1
 331.07422 427.2168 l 1
 318.55273 294.06641 l 1
 395.58594 177.77539 l 1
 531.10156 158.27734 l 1
 664.17383 200.2832 l 1
 678.25195 264.87109 l 1
 705.44727 312.48242 l 1
 700.30078 316.98633 l 1
 611.95312 250.38086 l 1
 459.07617 244.96094 l 1
 429.24023 265.68164 l 1
 402.51953 324.48242 l 1
 405.17578 404.00586 l 1
 406.04492 404.00586 l 1
 536.46094 419.12305 l 1
 624.5332 417.74805 l 1
 669.42578 428.19336 l 1
 665.625 447.06641 l 1
 616.68555 467.25195 l 1
 511.35742 471.41992 l 1
 408 455.60156 l 1
 424.85742 564.90039 l 1
 343.07812 595.20898 l 1
EndSplineSet
Validated: 524841
EndChar

StartChar: "+MLAw6jDV 6"
Encoding: 6 12502 6
Width: 1024
LayerCount: 2
Fore
SplineSet
694.68164 633.00781 m 1
 694.08885 633.03051 693.48817 633.00581 692.87891 632.92971 c 0
 680.44895 631.37549 671.33203 602.13869 671.33203 602.13869 c 1
 654.39648 562.88283 l 1
 640.54297 532.09377 l 1
 641.30859 505.92385 l 1
 692.87891 542.86916 l 1
 721.35938 581.35549 l 1
 721.35938 581.35549 720.68791 604.18618 715.20117 613.68557 c 0
 710.59473 621.66102 703.57349 632.66731 694.68164 633.00783 c 1
 694.68164 633.00781 l 1
747.03906 581.21289 m 0
 741.69614 581.18519 737.76953 580.7832 737.76953 580.7832 c 1
 738.53906 546.14453 l 1
 714.67773 505.34961 l 1
 688.50586 475.33008 l 1
 738.53906 482.25781 l 1
 777.79492 526.90234 l 1
 777.79492 526.90234 784.72402 562.85396 773.94727 574.625 c 0
 768.78467 580.26406 755.94394 581.25899 747.03906 581.21289 c 0
596.70703 500.40625 m 1
 463.90039 497.14062 l 1
 380.08203 491.69727 l 1
 310.41406 492.78516 l 1
 244.01172 417.67383 l 1
 295.17383 411.14258 l 1
 398.58789 419.85156 l 1
 564.04883 410.05469 l 1
 557.51758 355.62695 l 1
 511.79883 269.63086 l 1
 447.57227 214.11328 l 1
 323.47656 134.64844 l 1
 282.11133 121.58594 l 1
 364.8418 110.69922 l 1
 507.44336 169.48242 l 1
 617.38867 280.51562 l 1
 651.13477 377.39844 l 1
 654.40039 464.48242 l 1
 670.72852 474.2793 l 1
 596.70703 500.40625 l 1
EndSplineSet
Validated: 524841
EndChar

StartChar: "+MLAw6jDV 7"
Encoding: 7 12505 7
Width: 1024
LayerCount: 2
Fore
SplineSet
628.9668 541.0625 m 0
 618.23629 541.30217 602.4043 535.96875 602.4043 535.96875 c 1
 588.54883 477.4707 l 1
 565.45703 412.8125 l 1
 560.83789 395.87891 l 1
 636.27148 452.83789 l 1
 653.20508 526.73242 l 1
 653.20508 526.73242 641.09662 538.75127 633.19336 540.58789 c 0
 631.92976 540.88143 630.49973 541.02826 628.9668 541.0625 c 0
530.89258 535.09961 m 0
 527.86365 535.08681 525.71484 534.9375 525.71484 534.9375 c 1
 516.81055 481.53125 l 1
 507.22461 445.32227 l 1
 503.72266 420.72461 l 1
 573.44727 504.10742 l 1
 573.44727 504.10742 558.9927 526.89799 547.50781 532.70508 c 0
 543.43471 534.7645 535.94079 535.12098 530.89258 535.09961 c 0
409.51172 467.06836 m 1
 353.12305 427.76562 l 1
 261.76562 316.20703 l 1
 214.04883 263.69727 l 1
 213.74414 261.20703 l 1
 205.95508 195.13867 l 1
 266.37695 222.42383 l 1
 334.41602 255.66406 l 1
 404.07617 351.64844 l 1
 422.7793 364.45898 l 1
 632.73438 193.80859 l 1
 728.01562 139.78711 l 1
 818.04297 153.80273 l 1
 409.51172 467.06836 l 1
EndSplineSet
Validated: 524809
EndChar

StartChar: "+MLAw6jDV 8"
Encoding: 8 12508 8
Width: 1024
LayerCount: 2
Fore
SplineSet
625.26172 671.0625 m 2
 599.60156 604.02734 l 1
 597.0293 564.14844 l 1
 667.94141 628.11914 l 1
 667.94141 628.11914 675.07264 649.25939 669.52539 657.24609 c 0
 660.70964 669.93922 625.28413 671.06178 625.26172 671.0625 c 2
448.63867 662.05859 m 1
 449.59961 653.54102 l 1
 456.43945 593.72266 l 1
 465.71875 532.27734 l 1
 413.17773 529.85742 l 1
 321.08789 517.42969 l 1
 274.57617 450.63281 l 1
 345.0293 430.46875 l 1
 463.5332 446.9082 l 1
 463.08083 436.00173 462.59905 424.97646 462.25977 416.58398 c 0
 461.83566 405.92545 461.49609 399.03368 461.49609 396.62109 c 2
 461.49609 284.24609 l 1
 453.30273 183.58789 l 1
 431.47852 168.34766 l 1
 483.76172 124.76758 l 1
 535.27148 166.36719 l 1
 530.02148 304.34375 l 1
 539.94141 454.66406 l 1
 608.29492 461.31836 l 1
 671.26367 452.29297 l 1
 716.50586 512.45117 l 1
 659.9375 548.66797 l 1
 602.4043 548.66797 l 1
 556.19531 536.63086 l 1
 541.16406 535.9375 l 1
 540.25781 593.26758 l 1
 534.57031 653.86719 l 1
 448.63867 662.05859 l 1
728.65039 643.00781 m 0
 721.06182 642.83811 709.33594 630.93555 709.33594 630.93555 c 1
 665.88281 568.16797 l 1
 728.65039 575.41016 l 1
 728.65039 575.41016 766.74681 604.52341 762.44922 623.69336 c 0
 759.6134 636.35508 741.62509 643.26372 728.65039 643.00781 c 0
285.38477 362.24805 m 1
 284.05469 353.22461 l 1
 277.26367 307.33984 l 1
 261.21484 234.00977 l 1
 307.60742 185.36328 l 1
 329.75391 253.78516 l 1
 358.0293 302.02344 l 1
 375.75781 322.32422 l 1
 285.38477 362.24805 l 1
650.85352 350.78711 m 1
 648.67578 350.5332 l 1
 608.22461 346.31641 l 1
 630.11914 260.67578 l 1
 621.0957 240.71289 l 1
 646.94922 198.92578 l 1
 721.87305 189.07227 l 1
 729.94727 245.77539 l 1
 688.78711 329.92578 l 1
 650.85352 350.78711 l 1
EndSplineSet
Validated: 524841
EndChar

StartChar: "+MLAw6jDV 9"
Encoding: 9 12480 9
Width: 1024
LayerCount: 2
Fore
SplineSet
658.19727 714.8418 m 0
 655.10484 714.8786 652.05937 714.73451 649.27148 714.54883 c 0
 643.47909 714.16202 633.18555 707.875 633.18555 707.875 c 1
 633.50586 668.59375 l 1
 633.72852 604.05078 l 1
 672.6875 656.47461 l 1
 672.6875 656.47461 690.647 691.7766 681.67188 705.92188 c 0
 677.18106 712.99965 667.47455 714.73148 658.19727 714.8418 c 0
716.91797 656.57617 m 0
 709.00728 656.60547 697.44922 653.5293 697.44922 653.5293 c 1
 694.625 618.23242 l 1
 680.50586 581.52148 l 1
 738.39453 605.52539 l 1
 738.39453 605.52539 750.36079 633.34157 744.04297 645.05859 c 0
 739.84622 652.84182 728.77399 654.96657 720.04102 656.35547 c 0
 719.10415 656.50435 718.04807 656.57199 716.91797 656.57617 c 0
631.06836 598.32227 m 2
 631.05276 598.29687 l 1
 621.85952 598.22317 612.66129 595.12212 604.49222 587.71288 c 2
 604.33792 587.54296 l 1
 604.00589 587.21288 l 1
 572.75784 555.90624 l 1
 529.15628 556.19335 l 1
 527.47269 559.01171 l 1
 526.8848 559.49804 l 2
 525.46301 560.68345 519.10602 565.58988 512.53323 570.70116 c 0
 505.96041 575.81244 499.58987 580.7539 499.58987 580.7539 c 1
 499.06058 581.18749 l 1
 498.39651 581.41601 l 2
 493.40304 583.23022 489.24514 583.76016 485.57034 582.71093 c 0
 481.89483 581.66173 479.31478 578.91374 477.86136 576.13866 c 0
 474.95452 570.58858 474.58359 564.38014 473.13089 561.02343 c 2
 473.13089 560.92187 l 1
 420.62695 421.77539 l 1
 396.98438 381.23633 l 2
 389.60606 373.77339 384.07568 367.84693 380.67773 363.5625 c 0
 378.92169 361.34777 377.68126 359.59456 376.82422 357.81055 c 0
 376.39718 356.91669 375.97187 356.04144 375.88867 354.70508 c 0
 375.80767 353.36947 376.50126 351.09623 378.07617 349.97266 c 0
 379.64815 348.84836 381.09016 348.90502 382.14453 348.99414 c 0
 383.19887 349.07504 384.05842 349.31856 385.02148 349.64258 c 0
 386.9498 350.2905 389.16942 351.28731 391.82227 352.69141 c 0
 397.12793 355.50183 404.23253 359.93326 413.33594 365.9082 c 2
 413.56445 366.00977 l 1
 453.51367 398.02148 l 1
 455.20346 395.85903 457.40938 393.02815 457.69727 392.64453 c 1
 457.40284 393.04214 457.91855 392.27577 458.4043 391.50781 c 0
 458.89023 390.74284 459.52516 389.70011 460.35938 388.35938 c 0
 462.02633 385.67927 464.37461 381.91654 467.10547 377.48633 c 0
 472.56503 368.62659 479.69492 356.95525 486.93555 345.14453 c 0
 500.70849 322.6783 513.64524 301.62316 516.67578 296.66797 c 1
 414.48633 154.86133 l 1
 322.69531 70.99414 l 1
 305.07382 61.33922 293.00432 54.41728 286.26953 50.12695 c 0
 282.86348 47.95641 281.0558 46.99513 279.30859 44.84961 c 0
 279.08772 44.56992 278.90508 44.29748 278.66211 43.81445 c 0
 278.55167 43.56425 278.38822 43.2627 278.28516 42.89453 c 0
 278.17472 42.52641 278.11719 41.57094 278.11719 41.54297 c 1
 278.11792 41.54297 278.49308 39.76697 278.50781 39.74414 c 2
 278.50781 39.74414 279.56385 38.24058 279.58594 38.2207 c 2
 279.58594 38.2207 280.46338 37.57194 280.83594 37.40039 c 0
 281.21143 37.23107 281.52878 37.15769 281.81445 37.08398 c 0
 284.0719 36.57594 284.61178 37.08492 285.7832 37.35742 c 0
 290.46965 38.5318 299.04332 41.91364 312.47461 47.625 c 0
 325.90591 53.3356 343.83937 61.33799 365.89844 71.32422 c 2
 366.54492 71.61133 l 1
 501.99609 193.24219 l 1
 616.73828 310.31445 l 1
 659.13281 385.22266 l 1
 680.27148 510.76367 l 1
 687.42742 515.83077 694.03479 521.55375 697.22656 529.73242 c 0
 700.75558 538.77619 700.4063 549.86326 694.99609 563.22461 c 2
 694.5625 564.24609 l 1
 666.51953 587.57031 l 1
 666.07227 587.7832 l 2
 655.84161 592.99018 645.47738 597.28515 634.99414 598.16797 c 0
 633.68431 598.27833 632.3819 598.33701 631.06836 598.32227 c 2
526.44922 497.1582 m 1
 578.46484 497.1582 l 1
 569.43164 382.35938 l 1
 557.8125 362.41406 l 1
 495.94727 426.76562 l 1
 482.58789 429.32617 l 1
 526.44922 497.1582 l 1
EndSplineSet
Validated: 524837
EndChar

StartChar: "+MLAw6jDV 10"
Encoding: 10 12482 10
Width: 1024
LayerCount: 2
Fore
SplineSet
651.83984 623.15234 m 1
 646.13889 623.19414 633.28516 613.1543 633.28516 613.1543 c 1
 626.51367 580.83398 l 1
 619.74023 514.8457 l 1
 665.79688 560.63477 l 1
 684.76172 605.07617 l 1
 684.76172 605.07617 664.21191 621.49993 652.36914 623.11719 c 0
 652.20079 623.14019 652.02375 623.15099 651.83984 623.15229 c 2
 651.83984 623.15234 l 1
525.51562 616.76367 m 1
 488.07812 560.07617 l 1
 395.08789 471.69336 l 1
 371.86133 459.76367 l 1
 374.04297 452.11328 l 1
 458.62109 458.67383 l 1
 478.80469 423.46094 l 1
 470.0625 402.24414 l 1
 347.98828 407.57031 l 1
 301.00586 390.63086 l 1
 271.92188 343.64844 l 1
 315.44531 337.24609 l 1
 381.63672 341.32227 l 1
 468.87109 336.16797 l 1
 469.96289 313.76172 l 1
 442.55859 253.80078 l 1
 407.03125 164.94336 l 1
 366.70703 101.07812 l 1
 321.14453 67.76172 l 1
 324.93359 60.65625 l 1
 395.41797 86.48047 l 1
 450.9707 125.33789 l 1
 487.00195 212.6875 l 1
 528.17188 291.45312 l 1
 534.41602 334.86328 l 1
 599.6875 339.95898 l 1
 670.32812 339.95898 l 1
 675.09375 369.5293 l 1
 651.92578 397.75195 l 1
 617.04297 404.85742 l 1
 550.26367 403.55078 l 1
 531.97461 433.49414 l 1
 525.45898 457.48242 l 1
 511.89258 490.19727 l 1
 550.14844 525.41016 l 1
 575.59961 590.4082 l 1
 572.3418 592.14453 l 1
 525.51562 616.76367 l 1
709.94922 594.24609 m 0
 701.56342 594.23129 688.69727 587.2832 688.69727 587.2832 c 1
 693.77344 540.17969 l 1
 666.69922 462.79297 l 1
 736.07812 508.21289 l 1
 736.07812 508.21289 752.81341 547.20196 746.23242 565.41406 c 0
 741.21317 579.30492 726.82624 590.89968 712.38867 594.01367 c 0
 711.63629 594.17591 710.81671 594.24762 709.94922 594.24609 c 0
EndSplineSet
Validated: 524841
EndChar

StartChar: "+MLAw6jDV 11"
Encoding: 11 12485 11
Width: 1024
LayerCount: 2
Fore
SplineSet
704.09961 662.22266 m 1
 703.01073 662.25286 701.92214 662.24886 700.83594 662.21466 c 2
 700.83394 662.21466 l 2
 692.14451 661.92893 683.63915 659.52887 676.87301 654.10138 c 0
 668.66002 647.51333 665.68114 635.12345 663.79293 624.35138 c 0
 661.99459 614.0922 661.7023 605.3111 661.67769 604.47443 c 2
 650.98629 524.7049 l 1
 658.59566 521.75763 l 1
 700.28902 581.87677 l 1
 749.06832 631.6756 l 1
 747.42965 634.44318 l 1
 747.42965 634.44318 744.68561 639.09622 740.76363 644.22443 c 0
 736.84173 649.3527 732.0635 655.14516 725.89644 657.63654 c 0
 719.33443 660.28744 711.72159 662.02164 704.09957 662.22248 c 1
 704.09961 662.22266 l 1
778.26367 603.94141 m 2
 772.18513 603.92631 765.77043 602.73082 759.83789 601.19531 c 0
 747.97278 598.12433 737.91406 593.57031 737.91406 593.57031 c 1
 736.91016 593.11914 l 1
 736.25391 592.23438 l 2
 710.0673 556.6036 697.18138 538.343 690.79492 528.92578 c 0
 687.60167 524.21713 686.03989 521.73536 685.20703 520.29688 c 0
 684.79064 519.57759 684.5535 519.13514 684.35156 518.6582 c 0
 684.25065 518.41971 684.15377 518.1853 684.05664 517.73633 c 0
 684.03394 517.62332 684.02244 517.41773 684.00394 517.26367 c 1
 683.99024 517.34377 l 1
 678.73439 476.3594 l 1
 751.59376 509.91018 l 1
 795.69337 557.5469 l 1
 795.98243 558.43166 l 1
 795.98243 558.43166 798.32139 565.7104 799.50196 574.14846 c 0
 800.09225 578.36751 800.41978 582.90771 799.93751 587.21486 c 0
 799.45524 591.52209 798.18815 595.84306 794.77735 598.88479 c 0
 790.33127 602.84977 784.34417 603.95821 778.26563 603.94143 c 2
 778.26367 603.94141 l 2
575.37695 504.32422 m 1
 575.37695 499.25195 l 1
 575.37695 428.79297 l 1
 554.86133 264.31055 l 1
 513.63867 227.21484 l 1
 376.38086 161.82617 l 1
 243.36328 119.45312 l 1
 223.83008 101.89062 l 1
 311.96289 90.79102 l 1
 517.51953 151.95703 l 1
 595.11523 200.15039 l 1
 619.07422 275.01172 l 1
 630.1875 336.16406 l 1
 643.97852 449.97852 l 1
 656.32031 484.73633 l 1
 575.37695 504.32422 l 1
495.92383 474.1582 m 1
 452.99219 467.95312 l 1
 453.26562 464.28906 l 1
 457.44727 394.80078 l 1
 481.77734 364.32031 l 1
 512.92773 354.9707 l 1
 534.1543 391.75195 l 1
 543.29688 437.47266 l 1
 543.29688 465.36914 l 1
 495.92383 474.1582 l 1
384.39258 437.00781 m 1
 326.32812 431.58203 l 1
 326.25972 427.97266 l 1
 325.53511 372.95898 l 1
 344.23237 340.04492 l 1
 383.07807 332.34961 l 1
 393.875 348 l 1
 410.45508 397.69727 l 1
 420.58398 413.66211 l 1
 384.39258 437.00781 l 1
EndSplineSet
Validated: 524809
EndChar

StartChar: "+MLAw6jDV 12"
Encoding: 12 12487 12
Width: 1024
LayerCount: 2
Fore
SplineSet
688.71094 703.4707 m 0
 685.06056 703.4518 681.5825 702.65718 678.58594 700.79883 c 0
 663.31767 691.3296 662.60547 649.32227 662.60547 649.32227 c 1
 667.70508 589.15234 l 1
 701.95312 640.87109 l 1
 727.06445 669.68164 l 1
 727.06445 669.68164 720.20717 689.80508 712.00586 695.42188 c 0
 705.60565 699.80507 696.74168 703.51311 688.71094 703.4707 c 0
609.29883 672.33984 m 1
 578.4043 662.89453 l 1
 523 661.94531 l 1
 449.96094 654.49805 l 1
 415.57227 655.07031 l 1
 413.04297 650.16602 l 1
 395.67383 616.99219 l 1
 380.30273 590.69531 l 1
 429.9375 585.73438 l 1
 483.44141 591.28125 l 1
 581.93945 596.7168 l 1
 637.97266 595.08203 l 1
 654.50391 621.28125 l 1
 647.43359 659.83398 l 1
 609.29883 672.33984 l 1
759.99219 666.07617 m 0
 751.4946 665.8048 742.42821 658.45546 735.63281 652.87109 c 0
 721.54054 641.29 705.71094 607.05664 705.71094 607.05664 c 1
 682.16406 556.51953 l 1
 709.24023 562.46484 l 1
 777.52148 635.29688 l 1
 777.52148 635.29688 775.54559 660.82329 765.75 665.02344 c 0
 763.8845 665.82337 761.95316 666.13876 759.99219 666.07617 c 0
469.9707 529.96484 m 1
 394.38672 522.88086 l 1
 357.73633 516.70312 l 1
 343.8457 494.62695 l 1
 343.48047 493.20117 l 1
 332.91797 448.89062 l 1
 422.22266 448.31836 l 1
 479.73633 446.09766 l 1
 487.8125 404.42969 l 1
 494.47852 360.38477 l 1
 470.76562 286.4375 l 1
 394.08008 199.0332 l 1
 325.88867 153.24219 l 1
 305.72461 131.17773 l 1
 264.74023 122.4043 l 1
 264.1543 122.29492 l 1
 267.32617 104.70312 l 1
 267.90039 104.81055 l 1
 392.44531 123.0332 l 1
 492.20117 208.42383 l 1
 529.17383 274.12695 l 1
 567.82422 373.78516 l 1
 569.62891 444.86914 l 1
 607.07812 447.29883 l 1
 673.24023 448.34766 l 1
 706.51172 481.63281 l 1
 695.05273 518.85938 l 1
 636.22656 519.97461 l 1
 583.46094 525.94141 l 1
 469.9707 529.96484 l 1
EndSplineSet
Validated: 524809
EndChar

StartChar: "+MLAw6jDV 13"
Encoding: 13 12489 13
Width: 1024
LayerCount: 2
Fore
SplineSet
454.53516 669.83594 m 1
 453.43359 669.56641 l 2
 427.64134 663.35325 400.33201 660.87238 374.36328 647.21094 c 2
 370.7793 645.31445 l 1
 374.94922 636.36133 l 1
 374.94841 636.36133 374.95022 636.36213 374.94922 636.28123 c 0
 374.86822 635.35562 374.86882 634.14653 374.8418 632.48826 c 0
 374.8418 629.17252 374.8398 624.17751 374.9219 617.72068 c 0
 375.02983 604.80755 375.25151 585.99625 375.45119 562.85936 c 0
 375.86677 516.58562 376.13651 453.20471 374.76564 386.30076 c 0
 371.50983 227.32531 361.85352 49.3418 361.85352 49.3418 c 1
 361.21094 37.32227 l 1
 369.28516 46.23242 l 2
 397.56712 77.34542 413.8836 120.56915 424.04883 142.46875 c 0
 446.35534 190.52816 447.86523 248.78711 447.86523 248.78711 c 1
 451.66016 395.57227 l 1
 607.24609 286.41016 l 1
 628.80469 294.95898 l 1
 645.98438 359.67773 l 1
 628.91602 379.17383 l 1
 487.02344 456.65234 l 1
 471.74023 457.65625 l 1
 452.39844 443.26562 l 1
 457.25195 653.25195 l 2
 457.83755 654.8414 459.12767 656.79709 460.25 659.35938 c 0
 460.84369 660.71944 461.60576 662.56997 460.83398 664.95117 c 0
 460.0622 667.3313 457.81896 668.85318 455.77344 669.48438 c 2
 455.69144 669.48438 l 1
 454.53516 669.83594 l 1
556.82812 638.67969 m 0
 550.24382 638.77939 543.64745 637.33239 538.4375 634.41602 c 0
 517.51747 622.70564 506.93555 569.75781 506.93555 569.75781 c 1
 541.35742 480.65234 l 1
 556.76953 527.4707 l 1
 583.31836 591.05859 l 1
 583.31836 591.05859 588.56092 621.15708 579.1875 630.45898 c 0
 573.73856 635.86634 565.29368 638.55152 556.82812 638.67969 c 0
379.33984 636.8418 m 1
 379.23502 636.5128 379.17627 635.03113 379.14844 632.74219 c 0
 379.14844 632.73419 378.93164 632.66019 378.93164 632.66019 c 1
 378.93564 632.65966 376.66843 633.59918 376.67383 633.59378 c 0
 376.67883 633.59078 375.82784 634.51007 375.83594 634.50198 c 0
 375.84194 634.50198 375.5939 634.94472 375.51562 635.07425 c 1
 379.33984 636.8418 l 1
640.98633 591.29102 m 0
 639.20855 591.31762 637.4772 591.12672 635.86328 590.69922 c 0
 610.19405 583.90019 586.70508 528.01172 586.70508 528.01172 c 1
 584.93164 447.48047 l 1
 647.89648 523.51172 l 1
 647.89648 523.51172 669.62598 563.32387 660.58984 580.5957 c 0
 657.23609 587.00614 648.69002 591.17575 640.98633 591.29102 c 0
EndSplineSet
Validated: 524837
EndChar

StartChar: "+MLAw6jDV 14"
Encoding: 14 12497 14
Width: 1024
LayerCount: 2
Fore
SplineSet
549.42188 562.79297 m 1
 549.13672 557.83398 l 1
 540.49023 420.20312 l 1
 530.67969 281.24414 l 1
 563.13867 235.17969 l 1
 652.92188 173.16602 l 1
 701.31641 126.76367 l 1
 820.71094 129.38867 l 1
 689.33594 220.01172 l 1
 612.75977 308.61328 l 1
 589.34375 434.0293 l 1
 600.05664 507.98047 l 1
 605.95703 545.17578 l 1
 549.42188 562.79297 l 1
686.95703 561.04492 m 1
 675.28457 561.02982 663.12695 559.79297 663.12695 559.79297 c 1
 648.57812 539.8457 l 1
 638.87109 512.63867 l 1
 641.02148 484.08789 l 1
 660.9707 468.99414 l 1
 679.01562 464.13867 l 1
 719.98828 479.76562 l 1
 738.29883 507.25195 l 1
 750.16211 523.96875 l 1
 750.16211 523.96875 739.70619 542.08395 731.57227 548.21094 c 0
 722.93612 554.71615 712.0148 558.1048 701.38477 560.07812 c 1
 701.38677 560.08012 l 1
 697.46834 560.8073 692.26274 561.05207 686.95708 561.04496 c 2
 686.95703 561.04492 l 1
685.23047 534.73242 m 1
 701.12109 533.91797 l 1
 701.12109 533.91797 708.63445 528.19652 709.20508 523.95898 c 0
 710.39491 515.10892 705.03485 505.43599 698.41992 499.4375 c 0
 694.99223 496.32918 685.23047 495.11328 685.23047 495.11328 c 1
 670.13477 504.82227 l 1
 676.33203 523.14844 l 1
 685.23047 534.73242 l 1
413.47266 497.94531 m 1
 378.66602 471.94727 l 1
 378.8418 469.83789 l 1
 384.19727 393.82227 l 1
 392.72656 342.07812 l 1
 375.05078 283.57617 l 1
 294.51953 226.25391 l 1
 203.29102 183.59766 l 1
 287.6582 170.9375 l 1
 361.16602 216.04297 l 1
 435.60352 267.02148 l 1
 450.22461 308.33398 l 1
 459.875 445.13867 l 1
 480.94531 467.99414 l 1
 413.47266 497.94531 l 1
EndSplineSet
Validated: 524809
EndChar

StartChar: "+MLAw6jDV 15"
Encoding: 15 12500 15
Width: 1024
LayerCount: 2
Fore
SplineSet
620.40234 595.88086 m 0
 617.84849 595.91086 615.30639 595.77583 612.79492 595.46484 c 0
 590.9036 592.7553 557.15625 559.64062 557.15625 559.64062 c 1
 562.09766 511.62891 l 1
 613.54688 468.56055 l 1
 654.71289 476.57227 l 1
 667.66797 495.62109 l 1
 690.53711 538.68945 l 1
 690.53711 538.68945 681.15959 566.9126 670.33789 576.0332 c 0
 656.79289 587.44976 638.27934 595.67088 620.40234 595.88086 c 0
627.67773 554.43555 m 0
 630.87074 554.47015 634.0451 554.08867 636.0332 552.77734 c 0
 640.923 549.55231 643.2793 536.76758 643.2793 536.76758 c 1
 643.2793 536.76758 637.87012 522.41488 632.22656 517.7207 c 0
 626.41747 512.88899 610.87695 510.10547 610.87695 510.10547 c 1
 601.36133 530.30664 l 1
 616.98633 553.16406 l 1
 616.98633 553.16406 622.35606 554.37782 627.67773 554.43555 c 0
250.57031 547.0957 m 1
 253.85938 539.34961 l 1
 283.75195 469.19141 l 1
 295.4082 391.50781 l 1
 298.03516 203.0332 l 1
 342.75781 181.32812 l 1
 491.58789 89.15625 l 1
 598.10156 137.04883 l 1
 773.43164 299.33594 l 1
 769.69727 304.51562 l 1
 493.0918 157.79492 l 1
 380.23438 214.23047 l 1
 349.11719 246.63281 l 1
 368.01758 356.43555 l 1
 418.03516 367.70898 l 1
 602.61523 399.83008 l 1
 562.36523 473.10156 l 1
 463.31836 423.52539 l 1
 378.27148 404.06445 l 1
 405.87891 474.32617 l 1
 250.57031 547.0957 l 1
EndSplineSet
Validated: 524809
EndChar

StartChar: "+MLAw6jDV 16"
Encoding: 16 12503 16
Width: 1024
LayerCount: 2
Fore
SplineSet
685.89453 615.00586 m 0
 675.42791 614.92826 665.6832 612.91236 658.77734 605.92969 c 0
 645.36418 592.36727 653.07617 548.99023 653.07617 548.99023 c 1
 677.48438 520.51953 l 1
 709.21484 514.01562 l 1
 741.74609 514.83594 l 1
 764.51758 536.80273 l 1
 788.12109 568.51758 l 1
 788.12109 568.51758 781.7597 590.25891 773.47656 596.98828 c 0
 758.41201 609.22605 736.68853 610.91806 717.33984 612.44922 c 0
 707.54971 613.22328 696.36115 615.08351 685.89453 615.00586 c 0
718.16016 585.59961 m 1
 718.16216 585.59961 l 2
 724.9592 585.3843 736.86724 577.46094 736.86724 577.46094 c 1
 736.86724 557.13086 l 1
 709.21489 548.99023 l 1
 699.45317 552.25 l 1
 697.83208 578.2793 l 1
 697.83208 578.2793 710.96132 585.83137 718.16021 585.59961 c 1
 718.16016 585.59961 l 1
611.48438 526.65625 m 1
 439.78125 508.13867 l 1
 333.49023 494.28125 l 1
 271.70117 472.85156 l 1
 270.92969 471.36914 l 1
 235.87695 398.63477 l 1
 321.22461 401.20117 l 1
 443.23242 437.9707 l 1
 576.00781 444.64648 l 1
 555.94727 284.42383 l 1
 515.13086 205.0293 l 1
 449.41992 132.48242 l 1
 326.10742 84.58203 l 1
 259.45117 61.60742 l 1
 261.70117 53.85938 l 1
 262.06445 53.99219 l 1
 520.83203 116.30273 l 1
 600.28906 223.85352 l 1
 667.41797 416.02734 l 1
 667.41797 490.17773 l 1
 611.48438 526.65625 l 1
EndSplineSet
Validated: 524837
EndChar

StartChar: "+MLAw6jDV 17"
Encoding: 17 12506 17
Width: 1024
LayerCount: 2
Fore
SplineSet
629.69141 527.07422 m 0
 618.3576 527.18338 607.34929 525.35062 597.38086 520.54102 c 0
 581.57994 512.91737 567.19336 477.42773 567.19336 477.42773 c 1
 573.66992 425.68359 l 1
 629.70898 399.81836 l 1
 648.0332 386.87891 l 1
 673.91406 409.51172 l 1
 700.85547 433.22266 l 1
 723.48828 488.19922 l 1
 723.48828 488.19922 700.32972 509.99266 685.76172 515.15625 c 0
 668.37476 521.31908 648.58109 526.89228 629.69141 527.07422 c 0
646.5957 488.6543 m 0
 647.81756 488.6153 649.02392 488.46831 650.20312 488.19922 c 0
 655.90125 486.89917 662.05078 475.27344 662.05078 475.27344 c 1
 640.49414 448.31641 l 1
 615.70703 445.08594 l 1
 615.70703 445.08594 616.03215 469.03182 623.24609 477.42773 c 0
 628.76413 483.84947 638.0427 488.92716 646.5957 488.6543 c 0
447.9082 455.10938 m 1
 378.58984 438.99609 l 1
 289.31055 249.67969 l 1
 260.13867 166.13867 l 1
 262.26367 164.45703 l 1
 322.93359 116.9043 l 1
 367.9375 258.93164 l 1
 420.46289 356.69727 l 1
 434.9668 344.58203 l 1
 613.18945 143.55078 l 1
 690.65039 61.4707 l 1
 763.86328 64.86328 l 1
 712.06055 161.94922 l 1
 528.76172 375.81836 l 1
 447.9082 455.10938 l 1
EndSplineSet
Validated: 524841
EndChar

StartChar: "+MLAw6jDV 18"
Encoding: 18 12509 18
Width: 1024
LayerCount: 2
Fore
SplineSet
681.38281 599.35742 m 1
 680.18422 599.35242 678.99692 599.32552 677.83008 599.28122 c 0
 662.44346 598.69478 635.50977 580.77341 635.50977 580.77341 c 1
 609.05078 527.83981 l 1
 677.83203 493.44724 l 1
 715.55664 500.05856 l 1
 732.08984 518.58395 l 1
 732.08984 518.58395 742.94881 563.99299 730.76758 580.77341 c 0
 720.47353 594.95574 699.37163 599.43714 681.38281 599.35739 c 1
 681.38281 599.35742 l 1
451.29102 594.75391 m 1
 455.75391 586.28125 l 1
 472.56641 554.25781 l 1
 465.94531 456.54102 l 1
 412.25977 452.46289 l 1
 321.80273 447.10742 l 1
 308.67969 417.94727 l 1
 276.6582 363.63867 l 1
 334.15039 357.72656 l 1
 460.33594 365.30664 l 1
 456.19336 179.33789 l 1
 418.83008 160.23438 l 1
 455.55273 94.20117 l 1
 508.91797 68.48047 l 1
 522.1582 143.99609 l 1
 534.11719 383.63477 l 1
 644.01562 378.59766 l 1
 709.59375 382.35352 l 1
 705.58398 432.53516 l 1
 644.40234 468.12891 l 1
 557.29688 472.50977 l 1
 541.31055 473.9082 l 1
 542.20312 572.53516 l 1
 451.29102 594.75391 l 1
672.18945 562.94727 m 1
 672.52461 562.96547 672.86243 562.96507 673.20117 562.94727 c 0
 679.07268 562.63875 685.40931 557.07738 689.07812 552.32227 c 0
 691.69197 548.93365 692.26777 544.00047 691.72461 539.75391 c 0
 691.03492 534.37432 684.46289 525.19531 684.46289 525.19531 c 1
 672.54688 527.18555 l 1
 662.62305 538.43164 l 1
 662.62305 538.43164 661.71726 558.90194 669.24805 562.24414 c 1
 669.24805 562.24814 l 2
 670.19811 562.67012 671.18399 562.89258 672.18945 562.94736 c 1
 672.18945 562.94727 l 1
355.60938 301.56641 m 1
 352.15625 299.66016 l 1
 327.64648 286.0332 l 1
 297.41016 233.57617 l 1
 268.38672 178.30664 l 1
 293.6543 134.62891 l 1
 341.5957 140.49023 l 1
 388.71094 252.86523 l 1
 355.60938 301.56641 l 1
632.03906 290.24609 m 1
 630.45508 286.16797 l 1
 611.41992 237.20117 l 1
 669.0293 138.13281 l 1
 744.98633 120.05859 l 1
 755.61523 187.60742 l 1
 682.2207 269.92969 l 1
 632.03906 290.24609 l 1
EndSplineSet
Validated: 524841
EndChar

StartChar: "+MLAw6jDV 19"
Encoding: 19 12484 19
Width: 1024
LayerCount: 2
Fore
SplineSet
479.93164 678.8457 m 0
 475.38094 678.94646 471.05261 677.86603 467.16992 675.19531 c 0
 448.79424 662.55544 462.35513 629.80459 468.25195 608.29492 c 0
 476.26984 579.04062 488.72391 546.94153 513.37891 529.27148 c 0
 522.6002 522.66222 537.75486 515.92267 546.78906 522.78516 c 0
 564.14239 535.96664 552 587.95313 552 587.95312 c 1
 552 587.95312 543.08582 635.05659 527.14453 651.10938 c 0
 515.28508 663.0518 496.18415 678.48587 479.93164 678.8457 c 0
673.63086 669.0918 m 0
 665.18291 669.1366 657.16088 667.58094 649.61523 664.24219 c 0
 622.44232 649.47973 646.77408 602.09765 653.18945 566.0625 c 1
 637.84766 466.04688 l 1
 450.52344 296.94531 l 1
 278.05469 224.71484 l 1
 278.05469 224.71484 404.95315 252.35959 410.76758 251.8418 c 0
 416.58125 251.32589 614.8457 339.17383 614.8457 339.17383 c 1
 720.09961 481.58789 l 1
 731.07422 624.76758 l 1
 738.15819 627.8649 744.90034 631.30547 745.94727 640.43945 c 1
 719.59633 658.41015 695.22007 668.97722 673.63086 669.0918 c 0
382.49805 584.50781 m 0
 379.51685 584.52171 376.80227 583.96877 374.55469 582.63867 c 0
 355.34297 571.26872 361.10156 517.03125 361.10156 517.03125 c 1
 361.10156 517.03125 392.84932 477.83607 414.62695 466.5625 c 0
 430.27344 458.46259 466.43555 456.09375 466.43555 456.09375 c 1
 466.43555 456.09375 471.21731 496.041 464.58008 514.27344 c 0
 456.8105 535.61416 422.46289 567.83008 422.46289 567.83008 c 1
 422.46289 567.83008 398.59652 584.43282 382.49805 584.50781 c 0
EndSplineSet
Validated: 524841
EndChar

StartChar: "+MLAw6jDV 20"
Encoding: 20 12481 20
Width: 1024
LayerCount: 2
Fore
SplineSet
522.0957 822.31836 m 1
 512.80664 814.88281 l 1
 510.52344 813.64258 l 1
 508.68359 795.94922 l 1
 488.2207 758.32227 l 1
 488.04492 757.75 l 2
 482.25582 738.9037 462.54986 714.47812 441.0332 690.21875 c 0
 419.51654 665.95938 396.37392 641.71051 383.71484 619.92188 c 1
 392.43555 612.14062 l 1
 463.2168 664.83984 l 1
 486.32031 619.23828 l 1
 490.45508 587.99219 l 1
 490.33008 573.20117 l 1
 443.71484 569.08008 l 1
 344.74023 561.83594 l 1
 344.65373 563.26645 344.53965 564.88984 342.59961 567.42383 c 0
 341.35717 569.04661 337.9715 570.62831 335.49609 570.15039 c 0
 333.02069 569.67243 331.73307 568.50517 330.47656 567.3125 c 0
 328.02774 564.98805 325.62875 561.61068 322.19922 556.11914 c 2
 316.94141 549.32617 l 1
 316.92771 549.30667 l 2
 303.7237 532.00086 294.37096 514.23329 288.37889 496.26175 c 2
 285.47654 487.55667 l 1
 409.28514 499.5098 l 1
 409.30074 499.5118 l 1
 409.30074 499.5118 451.08757 503.75676 489.80074 507.68172 c 1
 488.92773 399.9082 l 1
 471.97656 336.93359 l 1
 358.58203 227.8125 l 1
 327.31727 208.60078 309.21988 196.9881 300.25 190.57031 c 0
 297.99045 188.95366 296.30618 187.67235 295 186.54492 c 0
 294.34691 185.98121 293.79161 185.47014 293.22656 184.83008 c 0
 292.66152 184.19005 291.85143 183.73653 291.38281 181.2832 c 0
 291.14852 180.05652 291.35181 177.8621 292.57031 176.29492 c 0
 293.78875 174.72774 295.30055 174.21568 296.22656 174.01562 c 0
 298.07859 173.61549 298.77095 173.90502 299.5293 174.05472 c 0
 301.04599 174.35292 302.35825 174.82291 304.04297 175.46097 c 0
 317.52069 180.56533 351.02935 197.56918 374.41602 208.61526 c 2
 374.70312 208.75003 l 1
 515.32812 294.4473 l 1
 516.03711 295.43948 l 2
 534.05827 320.67633 551.80948 339.36606 556.36328 397.8262 c 1
 556.36328 397.8342 l 1
 574.13672 516.1428 l 1
 586.25793 517.35633 599.92376 518.73167 611.29492 519.87131 c 0
 617.68671 520.51191 623.29465 521.07164 627.36523 521.47288 c 0
 629.40055 521.67357 631.05261 521.8346 632.21875 521.94553 c 0
 632.80182 522.00113 633.2641 522.04413 633.58203 522.07249 c 0
 633.7322 522.08499 633.91553 522.09409 634.01758 522.09979 c 0
 634.19397 522.10279 641.25615 522.13929 650.49219 522.14079 c 0
 659.81258 522.14178 671.89459 522.13069 683.86133 522.11929 c 0
 707.79485 522.09279 731.26367 522.04899 731.26367 522.04899 c 1
 738.52539 522.03339 l 1
 730.44727 563.26191 l 1
 730.42187 563.3791 l 2
 726.56059 579.58371 717.44531 592.06339 702.5703 595.09003 c 2
 701.62304 595.28144 l 1
 596.71093 582.58613 l 1
 581.66405 581.2541 l 1
 583.92968 611.51581 l 1
 583.69726 612.44941 l 2
 575.47852 645.28912 559.75958 669.24941 543.12108 691.01191 c 1
 546.56249 711.16035 l 1
 519.89257 714.508 l 1
 534.21584 724.00596 549.3062 734.94772 561.64647 758.06074 c 1
 584.79882 769.55683 l 1
 585.6914 770.95527 l 2
 586.82616 772.73683 587.18481 775.03777 586.92187 776.85371 c 0
 586.65881 778.66964 585.97159 780.09589 585.18749 781.35957 c 0
 583.61925 783.8869 581.51863 785.93372 578.98241 788.06855 c 0
 573.90998 792.3382 566.98922 796.70552 559.46679 800.82246 c 0
 551.94436 804.93939 543.86986 808.74363 536.66015 811.56074 c 0
 531.14805 813.71453 526.45816 815.38309 522.09765 816.01386 c 1
 522.0957 822.31836 l 1
512.67969 814.125 m 1
 516.04688 809.0918 l 1
 515.84766 807.17383 l 1
 510.16797 809.9043 l 1
 512.67969 814.125 l 1
633.85742 522.09961 m 1
 633.86742 522.09961 l 2
 633.86767 522.09962 633.95462 522.0996 633.95532 522.09961 c 1
 633.93712 522.09957 634.00152 522.10261 633.84594 522.09761 c 1
 633.85742 522.09961 l 1
302.50391 177.24609 m 1
 302.31761 176.96792 302.17749 176.94651 302.16797 176.93555 c 0
 302.15797 176.92425 302.38009 177.12779 302.50391 177.24609 c 1
EndSplineSet
Validated: 524837
EndChar

StartChar: "+MLAw6jDV 21"
Encoding: 21 12486 21
Width: 1024
LayerCount: 2
Fore
SplineSet
695.40039 775.29297 m 1
 694.63281 775.28297 l 1
 636.07031 774.49782 l 1
 583.39844 767.05836 l 1
 529.31445 774.26149 l 1
 529.15625 774.27709 l 2
 521.0489 775.02979 513.34268 773.57391 507.26758 769.21069 c 0
 501.51011 765.0756 497.8019 758.69056 495.74414 751.26733 c 2
 467.82031 694.97827 l 1
 562.28516 700.52319 l 1
 660.13672 708.02514 l 1
 723.22266 706.8728 l 1
 724.84961 712.84741 l 2
 729.43633 729.69033 729.93411 743.58871 724.92581 754.75756 c 0
 719.91733 765.92642 709.13121 772.80997 696.15628 775.156 c 2
 695.40039 775.29297 l 1
723.39453 645.75977 m 1
 722.47461 645.74807 l 1
 682.97656 645.22463 l 1
 621.95898 631.92775 l 1
 476.46289 623.38869 l 1
 465.85742 631.75393 l 1
 453.5332 623.01564 l 1
 452.94727 622.36916 l 2
 435.83871 603.46725 419.64697 583.63107 409.30664 560.584 c 2
 403.69141 548.07033 l 1
 505.78906 558.12111 l 1
 559.75391 564.0469 l 1
 568.82812 495.78518 l 1
 547.88867 401.48244 l 1
 516.1835 353.82889 469.63626 308.23944 413.42773 264.1582 c 1
 359.52148 242.89258 l 1
 359.48238 242.87698 l 2
 331.31003 232.15238 283.02955 215.79819 265.50973 207.85941 c 0
 263.31785 206.86618 261.65997 206.08656 259.9648 204.95901 c 0
 259.11723 204.39526 258.19285 204.14887 256.71285 201.71878 c 0
 255.97285 200.50374 254.9648 197.98518 255.81051 195.08401 c 0
 256.65621 192.18289 258.91568 190.55684 260.23043 189.93167 c 0
 262.85993 188.68129 263.79242 189.00047 264.87691 189.00198 c 0
 265.96141 189.00398 266.98146 189.09048 268.16012 189.22659 c 0
 270.51742 189.49872 273.46481 189.99339 277.32223 190.74612 c 0
 292.73924 193.75448 322.54283 200.92637 373.89449 214.23636 c 0
 424.03051 226.53502 472.68185 248.00597 520.31051 275.47659 c 2
 520.77144 275.74222 l 1
 521.19332 276.06644 l 2
 565.35408 310.10467 608.29666 351.39729 636.30855 428.28323 c 1
 662.25841 473.0102 655.9982 524.5144 661.20113 570.22855 c 1
 703.85934 568.91019 l 1
 751.67965 566.84378 l 1
 754.13863 570.75589 l 2
 761.82869 582.99377 766.28017 593.14739 767.89644 602.2598 c 0
 769.51272 611.3722 767.91154 619.73937 763.58199 626.03323 c 0
 754.92438 638.62095 739.29951 642.25156 724.29293 645.56058 c 2
 723.39453 645.75977 l 1
265.09766 204.99414 m 2
 265.09766 204.99214 l 2
 265.11956 204.99014 265.22066 204.94244 265.24609 204.93944 c 1
 265.15839 204.93544 264.88382 204.91014 264.85547 204.91014 c 0
 264.80177 204.91006 264.80597 205.01718 265.09766 204.99414 c 2
269.11328 191.88477 m 1
 268.85435 191.66744 268.75 191.69935 268.77344 191.71484 c 0
 268.78244 191.72284 269.07798 191.86436 269.11328 191.88477 c 1
EndSplineSet
Validated: 524841
EndChar

StartChar: "+MLAw6jDV 22"
Encoding: 22 12490 22
Width: 1024
LayerCount: 2
Fore
SplineSet
537.5625 823.39844 m 1
 524.0293 806.46289 l 2
 521.94901 803.85953 518.0387 798.07749 520.18555 790.98047 c 0
 522.12187 784.57914 528.33832 779.22519 539.90039 774.38281 c 1
 540.19141 713.64258 l 1
 536.65625 662.63281 l 1
 526.18359 662.53321 l 1
 478.73047 667.05079 l 2
 478.40052 667.83724 477.97152 668.59929 477.36328 669.29689 c 0
 475.15403 671.83067 472.03326 672.47469 469.38086 672.47071 c 2
 468.61328 672.47071 l 1
 467.875 672.26368 l 2
 456.33894 669.04409 442.84902 657.93524 432.21094 644.15626 c 0
 426.8919 637.26675 422.44686 629.6893 420.02539 621.82032 c 0
 417.60389 613.95138 417.24092 605.54059 420.79492 597.9629 c 2
 420.92773 597.67774 l 1
 421.09375 597.41017 l 2
 423.31747 593.78605 427.1534 592.17016 430.66016 591.52931 c 0
 434.16692 590.88849 437.81403 590.99322 441.63086 591.31251 c 0
 449.21648 591.94743 457.51488 593.55862 464.10547 594.09962 c 2
 536.31836 594.09962 l 1
 537.08398 501.93165 l 1
 531.61328 464.2422 l 1
 515.87695 411.59376 l 1
 397.83984 259.73439 l 1
 356.61914 234.28126 l 2
 338.5424 225.1249 323.27997 217.01568 312.26562 210.43556 c 0
 306.73224 207.12983 302.27765 204.22582 298.93359 201.62501 c 0
 297.26156 200.32459 295.86393 199.11347 294.67969 197.8047 c 0
 293.49545 196.49588 292.3181 195.18035 291.86914 192.61915 c 0
 291.42018 190.05792 293.37101 186.3696 295.43164 185.19923 c 0
 297.49227 184.02886 299.21438 183.89401 301.13477 183.8047 c 0
 304.97554 183.6263 309.79003 184.20568 316.49805 185.42579 c 0
 329.91407 187.86604 350.53306 193.05491 380.23242 201.59767 c 2
 380.56445 201.69337 l 1
 380.88086 201.82813 l 2
 424.39902 220.34094 460.32755 247.58331 488.69922 283.03517 c 2
 488.77932 283.13477 l 1
 572.77346 398.4668 l 1
 598.57229 502.2793 l 1
 610.47268 575.58398 l 1
 611.03713 594.7832 l 1
 673.55275 595.9668 l 1
 718.62111 600.56836 l 2
 720.75254 600.01481 723.10755 599.56368 726.01174 600.78125 c 0
 729.46615 602.2296 731.35086 606.00997 731.86525 609.42969 c 0
 732.89412 616.26908 731.50087 625.84547 728.1465 643.94336 c 2
 728.1231 644.07422 l 1
 728.0938 644.20312 l 2
 725.70552 654.38405 722.42431 661.52642 716.79497 666.08594 c 0
 711.16563 670.64546 704.13726 671.74541 696.27739 671.84766 c 2
 695.58208 671.85766 l 1
 661.34771 663.76586 l 1
 613.03911 663.32251 l 1
 613.59771 682.44165 l 1
 611.20513 731.19555 l 1
 616.49507 738.0392 620.50189 742.63596 623.08013 746.96899 c 0
 624.48143 749.32397 625.576 751.89604 625.68364 754.80297 c 0
 625.7906 757.69172 624.81296 760.47896 623.38286 762.88891 c 0
 604.31416 797.12026 577.30669 810.08799 548.10357 810.19165 c 0
 543.86059 810.20675 539.558 809.89269 535.23052 809.43969 c 1
 537.5625 823.39844 l 1
EndSplineSet
Validated: 524841
EndChar

StartChar: "+MLAw6jDV 23"
Encoding: 23 12488 23
Width: 1024
LayerCount: 2
Fore
SplineSet
410.95117 831.82617 m 1
 410.6 831.83317 410.2542 831.83017 409.91406 831.81817 c 0
 407.36076 831.73087 405.02961 831.09696 403.17383 829.71075 c 0
 401.31808 828.32453 400.13584 826.24353 399.63086 824.0584 c 0
 398.62093 819.68814 399.67246 814.74443 401.66406 808.92364 c 0
 405.59371 797.43777 413.82633 782.49958 423.33203 766.37676 c 1
 437.63281 653.79883 l 1
 422.6543 424.08594 l 1
 419.18164 233.68359 l 2
 417.13072 207.22936 415.29372 182.07026 414.31055 162.0625 c 0
 413.81849 152.04864 413.54011 143.32704 413.55859 136.3418 c 0
 413.57749 129.35655 413.82201 124.24542 414.67188 120.75586 c 0
 414.88428 119.88347 415.12837 119.09826 415.55273 118.30078 c 0
 415.9771 117.50334 416.6289 116.52664 418.00586 115.98828 c 0
 419.38282 115.44993 421.05075 115.88398 421.94922 116.48633 c 0
 422.84769 117.08878 423.37607 117.76753 423.89258 118.52344 c 0
 425.95854 121.54695 427.7846 126.52624 430.32422 134.87109 c 0
 435.39166 151.52229 442.5298 180.98882 452.43945 227.24219 c 1
 488.72852 321.52344 l 1
 489.22852 477.11914 l 1
 489.58008 492.75 l 1
 585.81445 467.03711 l 1
 586.62109 467.22656 l 2
 595.11536 469.20821 604.03896 471.03034 611.29297 474.42383 c 0
 618.54698 477.81728 624.47916 483.49394 624.75586 492.02539 c 2
 624.80076 493.42383 l 1
 577.21678 542.85156 l 1
 491.791 591.38477 l 1
 495.53514 758.87305 l 2
 495.92057 760.64306 496.79512 761.82837 498.2324 763.27344 c 0
 499.71042 764.75949 501.76732 766.34803 503.49021 768.81641 c 0
 505.21311 771.28478 506.3501 774.74013 505.90037 778.94727 c 0
 505.45068 783.15438 503.64717 788.1431 499.9785 794.77148 c 2
 499.66795 795.33594 l 1
 499.166 795.74023 l 2
 474.38669 815.81156 442.96295 821.13998 414.91209 831.36328 c 2
 414.60154 831.47656 l 1
 414.27537 831.52536 l 2
 413.10923 831.70236 412.00468 831.80561 410.95115 831.82614 c 1
 410.95117 831.82617 l 1
EndSplineSet
Validated: 524809
EndChar

StartChar: "+MLAw6jDV 24"
Encoding: 24 12491 24
Width: 1024
LayerCount: 2
Fore
SplineSet
438.30859 634.05664 m 1
 437.85626 634.06564 437.40419 634.06464 436.95508 634.05464 c 0
 430.96687 633.9254 425.33615 632.18045 421.93555 630.36909 c 0
 411.05361 624.56895 405.4323 617.55196 401.00391 614.78901 c 2
 394.74414 610.91987 l 1
 394.74414 608.16206 l 1
 376.56109 595.39017 361.61905 582.42076 355.21484 566.31245 c 2
 350.30469 554.02339 l 1
 365.95508 550.00776 l 2
 392.73889 543.17386 422.62509 544.13733 453.87891 548.1562 c 2
 579.25391 553.29487 l 1
 644.31836 549.66597 l 1
 647.87891 550.77925 l 2
 655.83621 553.28931 667.59574 556.23712 674.58008 566.55073 c 0
 681.25737 576.4108 677.34257 588.62817 668.38086 601.33589 c 0
 664.84281 608.69659 658.13152 614.20643 650.70312 617.73628 c 0
 642.72943 621.52525 633.81658 624.05921 624.24609 626.2519 c 2
 614.85547 628.38081 l 1
 607.85742 622.86518 l 1
 455.63281 623.92964 l 2
 453.19721 626.73099 452.25636 630.3292 447.71484 632.20307 c 1
 447.71484 632.20707 l 2
 444.69972 633.45106 441.4749 633.99282 438.30859 634.05668 c 1
 438.30859 634.05664 l 1
672.64844 434.40039 m 2
 668.95454 434.44619 665.31137 434.11397 661.38281 433.16406 c 0
 658.85922 432.55469 656.40618 430.7527 653.89453 429.24414 c 2
 550.83594 430.06641 l 1
 388.66797 421.40625 l 1
 340.11523 426.63281 l 1
 338.39453 426.53321 l 2
 337.45486 426.48371 333.40904 427.07044 326.54883 426.14649 c 0
 319.92998 425.25475 311.56205 421.04943 306.53906 415.26173 c 0
 281.20193 397.29737 269.43456 379.16297 256.02148 364.12306 c 2
 253.8125 361.60743 l 1
 253.25977 358.60743 l 2
 252.97691 357.14593 252.45533 354.59854 253.93555 351.01173 c 0
 255.41576 347.42488 259.6904 343.75897 263.57227 342.20509 c 0
 271.33601 339.09756 276.26129 339.86419 283.21484 340.41407 c 0
 296.6782 341.47922 319.47573 345.53687 359.57227 354.00978 c 0
 362.95193 353.99468 463.44653 353.57423 469.13672 353.57423 c 0
 472.30113 353.57423 480.25074 353.72306 494.05664 353.96095 c 0
 507.86254 354.20851 525.80563 354.55441 543.6543 354.87892 c 0
 578.73289 355.518 612.07371 356.16575 613.25977 356.18556 c 2
 613.62695 356.18556 l 1
 676.60352 353.6211 l 1
 712.57422 350.04103 l 1
 713.80273 350.08983 l 2
 725.79499 350.34987 736.11475 351.06616 745.16797 352.89647 c 0
 754.22084 354.72705 764.31266 357.50299 769.29102 366.73241 c 0
 771.78002 371.34721 771.47747 376.78976 769.7207 380.90819 c 0
 767.9639 385.02686 765.16855 388.28957 761.80273 391.40624 c 0
 755.07136 397.64008 745.64558 403.51233 732.46289 410.46874 c 2
 732.27344 410.56834 l 1
 687.4668 432.87107 l 1
 684.2168 433.36131 l 2
 680.08727 433.92981 676.34234 434.35453 672.64844 434.40037 c 2
 672.64844 434.40039 l 2
EndSplineSet
Validated: 524841
EndChar

StartChar: "+MLAw6jDV 25"
Encoding: 25 12492 25
Width: 1024
LayerCount: 2
Fore
SplineSet
352.22656 718.78125 m 1
 352.01172 715.37891 l 2
 351.88025 715.32521 351.75762 715.26692 351.62695 715.21289 c 1
 350.97852 718.53711 l 1
 332.41333 710.99815 321.17619 700.34957 314.36523 688.18359 c 0
 307.58241 676.06786 305.12124 662.63932 303.27148 649.30664 c 0
 302.37826 645.99004 301.97772 643.70066 302.50977 641.41797 c 0
 302.78303 640.24567 303.48487 638.95855 304.62891 638.17773 c 0
 305.77295 637.39692 307.05677 637.25582 308.04688 637.32227 c 0
 310.02708 637.4553 311.46258 638.18308 312.91016 638.85742 c 0
 314.22482 639.46982 315.41384 640.05019 316.35742 640.42969 c 2
 448.57617 649.79688 l 1
 453.10742 651.03711 l 1
 431.73047 564.68359 l 1
 396.5332 503.22266 l 1
 394.05273 505.22266 l 1
 360.43555 542.36914 l 1
 359.91797 542.64258 l 2
 336.96965 554.7012 316.56355 554.51701 306.19336 545.35938 c 0
 301.00826 540.78052 298.89842 533.62112 301.05469 526.15039 c 0
 303.21095 518.6797 309.15845 510.79842 319.44336 502.82422 c 2
 360.57617 470.44727 l 1
 369.78125 461.23438 l 1
 245.55859 327.91016 l 1
 216.17063 311.22366 196.94102 299.73671 185.99414 292.46875 c 0
 180.47861 288.8068 177.08009 286.30975 175.06836 284.2168 c 0
 174.56543 283.6936 174.13294 283.19572 173.74805 282.5332 c 0
 173.36316 281.87073 172.86864 280.90888 173.1875 279.44727 c 0
 173.50634 277.98561 174.89882 276.91523 175.79297 276.61328 c 0
 176.68712 276.3113 177.33655 276.31414 178 276.33984 c 0
 180.6538 276.44378 183.82817 277.38385 188.42969 278.89453 c 0
 193.03121 280.40521 198.81564 282.53871 205.54883 285.1543 c 0
 219.0152 290.38554 236.26513 297.5623 255.10352 305.55078 c 2
 255.36914 305.66016 l 1
 344.83008 363.23242 l 1
 398.55469 432.45898 l 1
 525.06641 305.95703 l 1
 672.9043 219.18945 l 1
 735.05078 216.53906 l 2
 774.10041 212.5929 825.5355 206.52791 842.53906 206.3457 c 0
 844.66448 206.323 846.15902 206.3303 847.60352 206.64062 c 0
 847.96484 206.71852 848.33627 206.81429 848.81445 207.03906 c 0
 849.29264 207.26394 850.01291 207.61514 850.57812 208.69336 c 0
 851.14335 209.77158 850.92979 211.38745 850.49022 212.14062 c 0
 850.0504 212.89381 849.62773 213.19185 849.27147 213.44727 c 0
 847.84659 214.46891 846.54416 214.82295 844.28124 215.52734 c 0
 842.01832 216.2317 838.98241 217.05055 835.01757 218.02344 c 0
 819.24416 221.89401 788.5417 228.21777 737.40624 237.92383 c 1
 639.76561 291.97461 l 1
 480.0371 435.90625 l 1
 431.56835 474.97852 l 1
 442.75194 489.39648 l 1
 514.13476 587.20703 l 1
 550.90233 662.47852 l 1
 569.33593 679.16211 l 1
 569.60937 679.7168 l 2
 573.6293 687.72614 576.8314 695.91729 573.41796 703.19727 c 0
 571.71116 706.83725 568.33226 709.74672 563.51952 711.70898 c 0
 558.70675 713.67125 552.37994 714.84364 543.97265 715.26758 c 2
 543.6621 715.28908 l 1
 491.69335 708.24025 l 1
 391.02733 705.63479 l 1
 381.63989 714.56164 367.16624 716.9462 352.6328 718.75979 c 1
 352.5371 717.19338 l 1
 352.22656 718.78125 l 1
EndSplineSet
Validated: 524841
EndChar

StartChar: "+MLAw6jDV 26"
Encoding: 26 12493 26
Width: 1024
LayerCount: 2
Fore
SplineSet
506.30469 761.66797 m 1
 515.65039 743.91602 l 1
 528.27148 732.24609 l 1
 529.87305 681.17969 l 1
 470.81055 671.98828 l 1
 447.45703 682.26562 l 2
 441.0118 682.06531 433.97501 682.8296 431.10938 676.65234 c 2
 394.67188 619.20117 l 1
 423.63672 620.13477 l 1
 610.94922 632.28516 l 1
 611.87695 626.20312 l 1
 541.80664 538.39453 l 1
 468.00781 480.47461 l 1
 375.99023 429.56055 l 1
 308.72266 401.99609 l 1
 204.32115 365.60416 283.1204 383.44027 326.46289 390.78125 c 1
 450.72461 430.49609 l 1
 522.73438 477.22656 l 1
 516.58594 345.48047 l 1
 515.6582 285.68945 l 1
 505.78872 276.24593 504.91669 259.73719 503.50391 243.65039 c 0
 506.97578 213.66929 539.59344 185.07659 567.97656 201.60938 c 0
 575.24573 206.74235 571.15419 228.91225 568.90234 248.31445 c 2
 576.375 389.37695 l 1
 580.13086 505.84961 l 1
 608.70447 515.56337 637.05747 525.64869 660.45312 543.99414 c 1
 692.51599 584.2892 706.26794 612.11033 708.49219 634.16992 c 1
 707.16602 650.49219 l 1
 709.84608 695.37823 682.2124 696.17785 658.59375 702.81055 c 1
 636.64258 688.80078 l 1
 585.14844 688.39844 l 1
 587.62856 700.47403 590.39258 713.55273 590.39258 713.55273 c 1
 604.86719 736.4375 l 1
 541.81445 761.19336 l 1
 506.30469 761.66797 l 1
663.26172 487.94922 m 1
 645.04492 486.07812 l 2
 626.34306 485.71151 613.94755 481.63174 637.10547 456.64453 c 0
 654.46937 436.05102 673.67188 417.04917 699.6875 403.87109 c 1
 723.64441 396.47947 744.23544 400.87891 763.22266 410.875 c 1
 769.94303 432.58498 767.21027 448.78604 759.01172 461.79102 c 1
 705.75781 480.47852 l 1
 663.26172 487.94922 l 1
EndSplineSet
Validated: 524841
EndChar

StartChar: "+MLAw6jDV 27"
Encoding: 27 12494 27
Width: 1024
LayerCount: 2
Fore
SplineSet
591.17773 703.85547 m 1
 598.06445 690.50781 l 1
 607.02148 673.14844 l 1
 604.98242 488.08398 l 1
 576.46875 419.30664 l 1
 416.40234 271.42383 l 1
 371.25691 236.35023 347.28254 216.88775 336.57812 207.02148 c 0
 333.89398 204.54752 332.07342 202.76931 330.5625 200.87305 c 0
 329.80704 199.92491 329.00928 199.23821 328.23828 196.68359 c 0
 327.85278 195.40626 327.35301 193.15838 328.60156 190.3418 c 0
 329.8501 187.52518 332.8958 185.71282 334.71484 185.27734 c 0
 338.35292 184.40639 339.296 185.23964 340.42188 185.58203 c 0
 341.54774 185.92408 342.48957 186.31512 343.51562 186.77539 c 0
 345.56774 187.69597 347.87915 188.90465 350.58398 190.39844 c 0
 361.40331 196.37361 378.30276 206.92369 394.5 216.93555 c 0
 410.69728 226.94736 426.55854 236.55687 432.75391 239.51953 c 2
 433.26758 239.76562 l 1
 622.19141 363.03516 l 1
 626.49414 368.53516 l 1
 629.71177 364.91271 633.40237 362.33887 637.20117 360.98633 c 0
 644.41678 358.41719 650.71361 358.93619 655.05273 358.42773 c 2
 661.06836 357.72266 l 1
 663.76758 363.14648 l 2
 673.17036 382.04049 676.11841 411.61513 677.4375 444.81836 c 0
 678.74752 477.79292 677.872 513.87314 677.11133 543.63477 c 1
 690.07812 647.38281 l 1
 696.19336 694 l 1
 687.42969 694.94727 l 1
 687.42969 694.94727 670.17218 696.81193 651.42969 698.75586 c 0
 632.6872 700.69979 613.00297 702.70193 606.17578 703.0625 c 2
 591.17773 703.85547 l 1
335.89844 202.33789 m 1
 335.91924 202.34189 336.01244 202.31849 336.03516 202.32229 c 1
 335.77849 202.21986 335.39615 202.06347 335.41211 202.06838 c 0
 335.42571 202.07238 335.46711 202.25287 335.89844 202.33791 c 1
 335.89844 202.33789 l 1
EndSplineSet
Validated: 524837
EndChar

StartChar: "+MLAw6jDV 28"
Encoding: 28 12495 28
Width: 1024
LayerCount: 2
Fore
SplineSet
539.42383 665.17578 m 1
 534.44698 665.08208 529.8857 664.37463 525.96289 662.71484 c 0
 522.81039 661.38097 520.07851 659.3008 518.18164 656.53125 c 2
 516.5 656.53125 l 1
 519.7168 485.51562 l 1
 534.76758 438.58594 l 1
 625.83594 341.13086 l 1
 680.04297 301.41797 l 1
 752.0293 283.9043 l 1
 752.1582 283.8809 l 2
 765.63777 281.6176 777.14625 280.00442 786.17773 279.24027 c 0
 795.20926 278.47609 801.4545 278.27253 805.99609 279.95121 c 0
 807.1315 280.37085 808.24981 280.94751 809.19727 282.02543 c 0
 810.14468 283.10335 810.70969 284.80575 810.56641 286.26566 c 0
 810.27992 289.18543 808.55614 290.91042 806.35547 292.87895 c 0
 802.00221 296.77296 794.34153 301.38793 782.47461 307.46488 c 2
 624.66602 424.125 l 1
 603.4043 465.19336 l 1
 590.92578 635.2207 l 1
 589.80859 652.41406 l 1
 587.83008 653.32227 l 2
 572.32294 660.45033 553.97161 665.4477 539.42383 665.17383 c 1
 539.42383 665.17578 l 1
426.71289 619.46289 m 1
 426.71289 619.46089 l 1
 413.93272 619.63475 399.08648 615.83947 381.53125 611.50386 c 2
 380.92969 611.35542 l 1
 380.41211 611.01753 l 2
 376.85494 608.70075 375.83008 604.57872 375.8457 601.27534 c 0
 375.8612 597.97986 376.52802 594.8596 376.70508 592.37104 c 2
 380.6543 474.54097 l 1
 373.55078 447.43745 l 1
 334.08594 393.76557 l 1
 261.17969 318.44526 l 2
 240.02893 301.29403 226.87321 289.80092 219.92773 282.57612 c 0
 216.44219 278.95042 214.38389 276.98218 213.58203 273.71089 c 0
 213.38157 272.89307 213.27447 271.80344 213.75977 270.61909 c 0
 214.24505 269.43474 215.37514 268.50125 216.31836 268.12886 c 0
 218.20479 267.38402 219.46678 267.71475 220.9043 268.01753 c 0
 226.65438 269.22932 235.71036 273.63557 248.35156 280.27729 c 0
 260.99276 286.91906 276.76939 295.7794 294.09375 305.73237 c 2
 294.24414 305.82027 l 1
 378.8457 365.82808 l 1
 438.14453 410.19137 l 1
 452.24219 456.43941 l 1
 451.23633 576.34371 l 1
 451.23633 576.36321 l 2
 451.11727 582.83977 451.86353 590.69866 451.72656 597.71282 c 0
 451.65816 601.21988 451.3845 604.52925 450.50977 607.53118 c 0
 449.63496 610.53311 448.02342 613.42938 445.13477 615.09759 c 2
 444.28711 615.58782 l 1
 444.07031 615.58782 l 2
 438.84667 618.22438 433.01499 619.37699 426.71289 619.46282 c 1
 426.71289 619.46289 l 1
EndSplineSet
Validated: 524841
EndChar

StartChar: "+MLAw6jDV 29"
Encoding: 29 12498 29
Width: 1024
LayerCount: 2
Fore
SplineSet
312.80664 685.70703 m 1
 311.8421 685.68323 310.84214 685.63353 309.65234 685.06445 c 0
 308.46256 684.4954 307.36418 683.14779 306.98633 681.99023 c 0
 306.23062 679.67513 306.64176 678.12993 306.8457 675.58984 c 2
 307.11133 672.29883 l 1
 307.31836 672.29883 l 1
 311.48828 620.26367 l 1
 320.77148 499.46875 l 1
 308.89648 349.55859 l 1
 342.75 296.35547 l 1
 343.80078 295.92383 l 2
 394.37216 275.19962 439.42557 244.75032 505.11523 242.71289 c 2
 505.32812 242.70489 l 1
 505.54102 242.72439 l 2
 540.72638 245.82171 571.45703 259.32108 601.78906 272.59939 c 2
 602.36914 272.8533 l 1
 696.29492 362.71267 l 1
 696.36522 362.78887 l 2
 705.19673 372.28592 710.882 379.14546 714.11327 384.15606 c 0
 715.72887 386.66132 716.78534 388.64495 717.21288 390.78692 c 0
 717.4268 391.85792 717.48673 393.0605 717.00976 394.32989 c 0
 716.5327 395.59928 715.39693 396.71963 714.26757 397.23028 c 0
 712.00888 398.25154 710.11182 397.86462 707.97851 397.3709 c 0
 705.84519 396.87722 703.45126 396.02488 700.70702 394.87481 c 0
 695.25142 392.58846 688.44156 389.10244 680.68944 384.8377 c 2
 535.40038 317.31817 l 1
 477.05468 314.6795 l 1
 387.99804 344.30254 l 1
 381.37108 379.97247 l 1
 381.37108 445.65801 l 1
 563.87304 491.57598 l 1
 589.87304 497.37481 l 1
 592.55858 537.66973 l 1
 584.01757 591.60333 l 1
 497.5039 553.37286 l 1
 381.49218 510.35333 l 1
 381.49218 529.97637 l 1
 392.14647 674.45098 l 1
 392.14647 674.58184 l 2
 392.14647 676.35899 392.4908 678.73603 391.05272 681.40215 c 0
 390.33359 682.73522 388.97998 683.98787 387.38476 684.60528 c 0
 385.87472 685.1897 384.23929 685.31187 382.41015 685.17559 c 2
 317.02733 685.54669 l 1
 317.00193 685.54669 l 2
 315.35746 685.63829 314.04015 685.73712 312.80662 685.70684 c 1
 312.80664 685.70703 l 1
EndSplineSet
Validated: 524809
EndChar

StartChar: "+MLAw6jDV 30"
Encoding: 30 12501 30
Width: 1024
LayerCount: 2
Fore
SplineSet
686.22852 658.27344 m 1
 685.60025 658.29834 685.02162 658.25044 684.46484 658.17774 c 2
 648.31445 655.59571 l 1
 597.45312 648.40235 l 1
 452.27734 644.30079 l 1
 402.85938 648.93165 l 1
 402.60742 648.92365 l 2
 389.89581 648.46016 380.11276 641.3871 374.13477 629.62873 c 1
 374.10937 629.62873 l 1
 354.02929 589.74201 l 1
 351.82421 579.52716 l 1
 351.80271 579.31232 l 2
 351.57076 577.03523 351.76641 574.54509 353.0156 572.2674 c 0
 354.26494 569.9897 356.51257 568.22892 359.26756 567.2049 c 0
 364.73782 565.17155 372.46953 565.18891 384.82615 567.07599 c 2
 574.08592 579.67755 l 1
 581.97068 455.9256 l 1
 517.33982 377.15216 l 1
 431.40037 309.11701 l 1
 392.27342 285.2342 l 1
 369.24874 276.51894 353.40414 269.98222 343.77732 265.27716 c 0
 338.93477 262.91039 335.71122 261.10873 333.5117 259.25177 c 0
 332.41194 258.32329 331.2528 257.5004 330.85936 255.22248 c 0
 330.66263 254.08348 331.0181 252.53757 331.75779 251.57794 c 0
 332.4975 250.61836 333.33819 250.18081 334.05271 249.8924 c 0
 336.9108 248.7387 339.4867 249.01719 343.56834 249.32794 c 0
 347.64997 249.63862 352.88434 250.33091 359.25975 251.36896 c 0
 372.01053 253.44509 389.28874 256.90636 410.2656 261.4842 c 2
 410.60936 261.5584 l 1
 527.12693 310.23614 l 1
 644.33396 394.62676 l 1
 676.20701 499.1209 l 1
 687.57615 592.15606 l 1
 691.68553 640.92754 l 2
 692.98663 645.98021 693.49629 649.45916 692.8574 652.50176 c 0
 692.52669 654.07743 691.74571 655.6687 690.43357 656.75176 c 0
 689.12147 657.83483 687.52729 658.222 686.2285 658.27325 c 1
 686.22852 658.27344 l 1
EndSplineSet
Validated: 524809
EndChar

StartChar: "+MLAw6jDV 31"
Encoding: 31 12504 31
Width: 1024
LayerCount: 2
Fore
SplineSet
403.2832 612.54688 m 0
 402.61823 612.55388 401.94763 612.54666 401.27148 612.52348 c 0
 396.76413 612.36852 392.0268 611.49054 387.49609 609.18363 c 0
 383.49327 607.14556 379.69554 603.64016 377.38281 598.97074 c 0
 341.82703 553.52525 309.46415 485.96563 274.14258 432.79297 c 1
 251.10352 413.11914 l 1
 326.42578 402.20312 l 1
 347.51172 407.83203 l 1
 379.16406 468.40234 l 1
 425.5918 531.71289 l 1
 541.35938 477.92773 l 1
 637.16797 413.89453 l 1
 691.29492 360.13281 l 1
 711.33398 348.06445 l 1
 747.75977 348.41211 l 1
 772.89062 373.67188 l 1
 695.85547 459.66602 l 1
 574.86133 546.01953 l 1
 461.90039 595.02539 l 1
 415.7207 610.16211 l 2
 411.86288 611.7444 407.70114 612.49707 403.2832 612.54688 c 0
EndSplineSet
Validated: 524809
EndChar

StartChar: "+MLAw6jDV 32"
Encoding: 32 12507 32
Width: 1024
LayerCount: 2
Fore
SplineSet
458.47266 734.34766 m 1
 462.41016 727.78711 l 1
 470.69336 713.98633 l 1
 473.21875 706.42188 l 1
 473.21875 608.89648 l 1
 416.5918 607.81641 l 1
 375.57617 611.92578 l 2
 371.66301 612.9774 367.5965 612.5329 364.15039 610.54102 c 0
 360.50086 608.43151 357.52406 604.91614 354.89844 600.29102 c 2
 354.88084 600.25782 l 1
 334.94529 563.27345 l 1
 334.84959 562.99806 l 2
 334.67516 562.49118 333.81181 561.1004 332.82029 559.60548 c 0
 331.82878 558.11056 330.58974 556.54138 330.2656 553.99806 c 0
 330.10354 552.7264 330.36769 551.06392 331.28318 549.78126 c 0
 332.19869 548.49856 333.50222 547.71938 334.89842 547.20313 c 0
 337.6908 546.17061 341.25481 545.89192 346.77928 546.02931 c 2
 346.79098 546.02931 l 1
 473.66012 549.93165 l 1
 477.91012 366.47462 l 2
 475.46374 359.8609 471.68337 353.39376 468.64058 346.20899 c 0
 465.54283 338.89447 463.31631 330.68846 464.74801 321.14845 c 2
 467.65426 275.71681 l 1
 468.48043 274.79884 l 2
 471.57299 271.35845 476.83386 261.21336 483.20894 253.1172 c 0
 486.39652 249.0691 489.94813 245.39642 494.3066 243.22853 c 0
 498.56499 241.11044 503.82631 240.80967 508.77144 243.31833 c 0
 516.00096 245.85114 522.12995 253.05968 526.68746 262.37497 c 0
 531.26419 271.72961 534.07417 283.37982 533.11129 295.21286 c 2
 529.34176 401.61325 l 1
 534.04488 550.74802 l 1
 638.84762 550.74802 l 2
 669.75458 549.17372 676.41825 551.88258 686.61519 553.61716 c 2
 689.95699 554.18552 l 1
 684.7109 597.28513 l 1
 683.99801 598.10739 l 2
 680.7229 601.87562 678.00435 606.83483 673.10348 611.04099 c 0
 668.20256 615.24715 661.10631 618.241 650.19527 618.18552 c 2
 649.89449 618.18352 l 1
 612.16012 611.57024 l 1
 536.02926 610.10345 l 1
 536.06046 610.60149 l 1
 543.63858 707.06048 l 1
 543.59948 707.40227 l 1
 543.60748 707.34227 543.66188 707.93953 544.00573 708.90227 c 0
 544.34967 709.86502 544.92502 711.11832 545.11706 712.86321 c 0
 545.30906 714.6081 544.69738 717.09908 543.01549 718.68938 c 0
 541.33364 720.27968 539.13244 721.12638 536.10534 721.78704 c 2
 536.01164 721.80854 l 1
 458.47266 734.34766 l 1
377.06641 457.12305 m 1
 376.01702 457.10415 374.93801 457.06235 373.82812 456.99805 c 2
 372.27539 456.90825 l 1
 336.7793 413.74419 l 1
 309.0293 396.51958 l 1
 288.50391 351.54302 l 1
 288.47651 350.83989 l 2
 288.29321 345.92564 288.53921 340.3367 291.56831 334.61528 c 0
 294.59745 328.89387 300.21043 323.27406 310.00581 317.47857 c 2
 310.79487 317.01177 l 1
 311.70893 316.98447 l 2
 323.92215 316.61596 334.73918 321.75585 344.16011 330.08993 c 0
 353.52246 338.3722 361.70849 349.81618 369.40425 362.79697 c 2
 405.57026 409.43368 l 1
 405.75386 410.14267 l 2
 408.8748 422.20511 410.71131 433.56125 406.94917 442.74032 c 0
 405.0681 447.32988 401.59543 451.2325 396.59761 453.6915 c 0
 391.59979 456.15049 385.20057 457.27995 377.06636 457.12314 c 1
 377.06641 457.12305 l 1
655.08594 456.18555 m 1
 654.13672 455.9707 l 1
 624.50391 449.2832 l 1
 624.11914 449.0918 l 2
 617.40923 445.74816 613.10507 440.83697 610.92969 435.22656 c 0
 608.7543 429.61619 608.581 423.4864 609.19922 417.26367 c 0
 610.43565 404.81822 614.81153 391.58424 615.55273 380.62305 c 2
 615.64843 379.21289 l 1
 616.68749 378.25391 l 2
 623.29112 372.14899 629.27727 364.09702 636.35546 357.14844 c 0
 643.23745 350.39246 651.46919 344.69516 662.24413 343.56055 c 2
 708.52733 323.32227 l 1
 709.86132 323.80469 l 2
 714.77459 325.58401 722.61192 325.37099 728.92577 329.53516 c 0
 732.0827 331.61722 734.60905 335.19002 735.31835 339.93945 c 0
 736.02762 344.68888 735.24235 350.54234 732.76561 358.375 c 2
 732.58397 358.95117 l 1
 695.56444 408.32422 l 2
 689.29175 418.21626 683.91601 428.4326 677.93944 437.04883 c 0
 671.9425 445.6945 665.21336 452.92164 656.00976 455.88672 c 2
 655.08594 456.18555 l 1
EndSplineSet
Validated: 524841
EndChar

StartChar: "+MLAw6jDV 33"
Encoding: 33 12516 33
Width: 1024
LayerCount: 2
Fore
SplineSet
383.13672 694.22852 m 1
 385.4707 685.59766 l 1
 405.58008 611.21484 l 1
 413.48633 546.07617 l 1
 325.16211 527.62305 l 1
 307.42188 523.54297 l 1
 307.21094 523.47857 l 2
 305.14865 522.85691 301.67206 522.53927 297.6582 520.41411 c 0
 293.64435 518.28896 289.89323 513.72054 288.41797 507.54302 c 2
 273.86523 452.45513 l 2
 272.92798 450.22457 272.06569 447.37849 273.96093 443.96685 c 0
 274.98107 442.13045 276.81286 440.84478 278.29491 440.30083 c 0
 279.77696 439.75688 280.98298 439.69583 282.03905 439.71099 c 0
 286.14034 439.76999 289.2336 441.04263 292.50194 442.13091 c 2
 423.49608 471.76177 l 1
 452.49608 305.50982 l 1
 464.44921 255.5645 l 1
 471.86913 216.09185 l 1
 472.00585 215.67778 l 2
 475.43774 205.22233 483.95028 199.31573 492.66405 197.39263 c 0
 501.37779 195.46957 510.54941 196.305 519.1953 196.87896 c 2
 519.94921 196.92776 l 1
 520.67382 197.14847 l 2
 527.78851 199.30045 532.74996 204.24326 535.56835 209.47855 c 0
 538.38674 214.7138 539.58557 220.17759 540.80858 225.04105 c 2
 541.15819 226.43167 l 1
 529.88476 288.33206 l 1
 504.15038 458.44925 l 1
 499.31835 488.92191 l 1
 621.67577 516.60355 l 1
 621.98241 516.32815 l 1
 599.46679 465.97659 l 1
 599.46679 438.19339 l 1
 600.04687 436.90042 l 2
 605.87524 423.90255 613.16243 410.36572 627.6621 404.90237 c 2
 628.09765 404.73831 l 1
 640.87499 401.87894 l 1
 641.24608 401.83984 l 2
 649.27505 400.97414 655.8895 403.50503 659.91991 407.35742 c 0
 663.9504 411.20978 665.79412 415.39386 667.61132 418 c 2
 667.89061 418.40039 l 1
 703.84569 490.75586 l 1
 733.32421 538.98242 l 1
 751.16991 578.62891 l 1
 703.55077 619.65625 l 1
 666.82811 611.74805 l 1
 643.75585 603.70312 l 1
 487.1289 565.95703 l 1
 479.28319 615.53516 l 1
 464.56249 678.85938 l 2
 464.24388 683.04488 462.51539 687.12784 459.32811 689.44531 c 0
 455.90079 691.93733 452.20564 692.25424 448.95116 692.17578 c 2
 383.13672 694.22852 l 1
EndSplineSet
Validated: 524809
EndChar

StartChar: "+MLAw6jDV 34"
Encoding: 34 12518 34
Width: 1024
LayerCount: 2
Fore
SplineSet
616.88477 590.52344 m 1
 612.82812 590.20312 l 1
 575.6582 587.27344 l 1
 479.14258 585.30859 l 1
 402.4375 587.28125 l 1
 402.19727 587.25585 l 2
 388.0751 585.81211 381.59982 576.55925 376.32031 569.00976 c 2
 376.22461 568.87108 l 1
 341.99609 509.10741 l 2
 340.89814 507.70107 340.05543 506.27305 339.82812 504.4414 c 0
 339.58408 502.47487 340.5966 500.16945 342.01953 498.99413 c 0
 344.8654 496.64345 348.07328 496.54407 352.10352 496.43163 c 2
 352.24023 496.42963 l 1
 506.52148 503.29682 l 1
 560.13281 506.039 l 1
 563.74023 397.40424 l 2
 563.72513 397.19334 561.74605 368.29754 560.27344 351.52142 c 1
 429.40039 349.44135 l 1
 340.10938 347.49603 l 1
 305.6582 353.77728 l 1
 262.04102 279.00189 l 2
 259.91796 276.43098 258.52527 274.15626 258.2168 271.58002 c 0
 257.88741 268.82905 259.45296 266.06105 261.27148 264.70306 c 0
 264.90854 261.98706 269.19474 261.66277 272.22461 260.73236 c 2
 272.87305 260.53314 l 1
 454.77734 271.33392 l 1
 688.6582 272.31635 l 1
 732.8457 265.3183 l 1
 733.9082 265.83392 l 2
 743.18963 270.33103 751.44035 275.55407 757.27148 282.51361 c 0
 762.97494 289.32077 766.10262 297.96521 765.23242 308.15814 c 0
 766.56111 316.07735 765.60205 323.0361 762.15625 328.56049 c 0
 758.65437 334.17501 752.83841 338.0329 745.54102 340.43744 c 2
 744.9668 340.62494 l 1
 726.44336 340.62494 l 1
 646.00391 349.85541 l 2
 646.04701 350.41036 646.08631 350.77904 646.13281 351.45111 c 0
 646.35845 354.69928 646.62654 359.30214 646.93359 364.98432 c 0
 647.54777 376.34864 648.31397 392.01173 649.18164 409.54682 c 0
 650.8853 443.97676 652.97864 485.38754 655.04102 515.66791 c 1
 661.25664 519.24482 666.93921 525.38901 671.04102 536.08783 c 2
 671.81445 538.10932 l 1
 670.46094 539.79096 l 2
 654.46862 559.70162 638.65367 581.77595 616.88477 589.05853 c 1
 616.88477 590.52344 l 1
EndSplineSet
Validated: 524809
EndChar

StartChar: "+MLAw6jDV 35"
Encoding: 35 12520 35
Width: 1024
LayerCount: 2
Fore
SplineSet
600.96875 623.13477 m 1
 599.91602 623.10157 l 2
 597.47505 623.02407 594.78263 622.9179 591.88672 622.65821 c 2
 589.44922 622.44142 l 1
 579.56055 616.51368 l 1
 490.92383 613.08009 l 1
 428.72266 614.60157 l 1
 428.49805 614.59357 l 2
 425.7975 614.54597 422.94823 614.41669 419.5332 613.19904 c 0
 416.31163 612.05022 412.0998 609.00218 410.26172 604.57209 c 2
 381.5332 540.33203 l 1
 381.5332 538.05469 l 1
 381.5332 538.19075 379.59232 535.61807 382.65234 528.9082 c 0
 384.18237 525.55323 388.59862 522.28 392.07812 521.61133 c 0
 394.8455 521.07955 397.02482 521.36437 399.18164 521.81641 c 2
 548.54688 522.32227 l 1
 569.95898 525.47461 l 1
 572.03125 513.79883 l 1
 572.03125 463.06055 l 1
 543.89258 460.35156 l 1
 452.00781 460.35156 l 1
 445.37695 460.73242 l 2
 444.08367 461.77315 442.65547 462.71233 440.99414 463.30273 c 0
 436.65483 464.84486 432.31454 464.36986 428.36523 463.18555 c 2
 424.10742 461.9082 l 1
 392.88867 403.41602 l 1
 392.68555 401.29297 l 2
 392.22482 396.48654 392.15388 390.66632 395.0332 384.75586 c 0
 397.91252 378.8454 403.85072 374.09847 411.04297 371.66797 c 2
 413.125 370.96484 l 1
 435.45312 372.75586 l 1
 472.04688 383.79102 l 1
 572.26367 384.5625 l 1
 572.50781 321.94922 l 1
 461.91406 318.7207 l 1
 411.63867 322.95508 l 1
 398.14258 334.11523 l 1
 392.64648 332.43359 l 2
 389.54002 331.48293 385.87738 330.14737 382.52539 327.2168 c 0
 379.1734 324.28623 376.91839 320.22396 375.50391 315.96484 c 2
 375.49391 315.92974 l 1
 355.82204 255.39653 l 2
 354.30151 252.33867 353.11538 249.26231 352.90016 245.60161 c 0
 352.65151 241.37191 354.41425 236.0253 357.84352 232.83599 c 0
 364.53709 226.61073 371.5928 227.21802 379.04469 227.95903 c 2
 506.07008 230.47661 l 1
 580.35329 233.97271 l 1
 611.74782 227.50005 l 1
 612.5486 227.45705 l 2
 623.77648 226.85739 634.4768 227.6551 644.28883 231.68166 c 0
 654.1009 235.70818 662.61032 243.30226 668.1736 253.92775 c 2
 669.02907 255.56252 l 1
 669.28688 257.39064 l 2
 671.74002 274.80924 672.28545 293.954 663.26735 312.46877 c 1
 659.8611 539.27736 l 2
 660.97901 540.00991 662.10179 540.61608 663.19313 541.63674 c 0
 666.78232 544.99356 669.50564 549.97954 670.68727 555.62502 c 2
 671.09157 557.5508 l 1
 670.78102 559.49416 l 2
 669.46911 567.71414 668.71928 577.20522 665.89821 586.78908 c 0
 663.07709 596.37294 657.53299 606.49259 647.14235 612.97463 c 2
 646.46071 613.40041 l 1
 645.72243 613.71877 l 2
 634.01296 618.77249 620.34522 622.94476 603.46657 623.11525 c 0
 602.70295 623.12325 601.9172 623.11125 601.13454 623.10355 c 2
 600.96875 623.13477 l 1
EndSplineSet
Validated: 524841
EndChar

StartChar: "+MLAw6jDV 36"
Encoding: 36 12527 36
Width: 1024
LayerCount: 2
Fore
SplineSet
351.80859 681.80078 m 1
 364.00586 658.51953 l 1
 361.77734 511.03906 l 1
 351.79883 446.73633 l 1
 385.05859 397.94141 l 1
 423.875 412.35352 l 1
 423.875 468.9082 l 1
 426.58984 597.80664 l 1
 595.43359 605.23242 l 1
 607.92969 577.57227 l 1
 596.84375 419.00586 l 1
 511.46094 224.97266 l 1
 409.44922 124.07031 l 1
 225.09898 42.87775 325.99546 79.14045 418.31836 111.87305 c 1
 579.10352 234.95117 l 1
 664.48633 410.13672 l 1
 680.00586 583.11523 l 1
 674.83398 610.91406 l 1
 702.18164 635.22461 l 1
 717.70312 656.29102 l 1
 686.66016 654.07227 l 1
 427.56055 644.19922 l 1
 428.3125 679.58594 l 1
 351.80859 681.80078 l 1
EndSplineSet
Validated: 524809
EndChar

StartChar: "+MLAw6jDV 37"
Encoding: 37 12530 37
Width: 1024
LayerCount: 2
Fore
SplineSet
632.95117 659.57812 m 1
 617.44531 647.17383 l 1
 389.49805 636.31836 l 1
 381.35742 643.29688 l 2
 379.80441 643.29688 342.97852 567.31445 342.97852 567.31445 c 2
 340.3336 563.08516 343.01682 562.57539 347.63086 563.4375 c 2
 612.01953 563.4375 l 1
 611.24414 481.25195 l 1
 380.96875 472.72266 l 2
 375.5731 475.3173 371.97513 478.51285 357.70703 478.15039 c 1
 336 411.47266 l 1
 605.81641 425.42773 l 1
 602.71484 369.60352 l 1
 522.08008 244 l 1
 393.375 157.9375 l 1
 285.62672 123.31098 362.45147 142.46714 402.67773 150.95898 c 1
 600.38672 255.63086 l 1
 650.00977 340.91602 l 1
 669.39258 452.56445 l 1
 677.92188 611.50781 l 1
 688.00195 613.05859 l 1
 680.42438 633.95107 654.1426 645.49183 632.95117 659.57812 c 1
EndSplineSet
Validated: 524809
EndChar

StartChar: "+MLAw6jDV 38"
Encoding: 38 12531 38
Width: 1024
LayerCount: 2
Fore
SplineSet
731.35742 652.10156 m 1
 491.49805 303.98828 l 2
 478.28217 286.77064 458.12582 278.47824 436.80664 271.67773 c 1
 329.92383 267.95117 l 1
 292.64453 207.04688 l 1
 307.38847 202.73481 323.17043 199.46288 331.16602 188.40625 c 1
 496.4668 197.10547 l 2
 515.22875 200.71303 533.7988 204.51056 539.96094 220.7168 c 2
 677.91016 486.68555 l 1
 682.87891 537.63477 l 1
 731.35742 652.10156 l 1
346.45312 618.70508 m 0
 332.99694 614.09322 342.96106 606.28984 346.45512 599.36719 c 2
 438.7227 457.00391 l 1
 435.21488 432.39648 l 1
 497.05668 499.72656 l 2
 506.05422 508.06874 504.3577 508.2565 496.27934 516.32617 c 2
 416.75 595.85742 l 2
 407.7039 610.26377 350.37794 617.81907 346.45312 618.70508 c 0
EndSplineSet
Validated: 524809
EndChar

StartChar: "+MLAw6jDV 39"
Encoding: 39 12450 39
Width: 1024
LayerCount: 2
Fore
SplineSet
363.76758 748.54883 m 1
 324.86719 662.59961 l 2
 323.02845 660.12477 320.93468 657.54651 329.33203 659.16602 c 2
 627.66406 658.12891 l 1
 642.38281 638.1543 l 1
 590.86523 505.67969 l 1
 561.42773 478.34375 l 1
 570.88867 564.55664 l 1
 477.31641 617.12695 l 1
 501.49805 570.86523 l 1
 465.75195 321.6875 l 1
 391.10352 215.49805 l 1
 216.10988 149.54151 333.22881 185.18948 404.77148 204.98438 c 1
 503.60156 294.35156 l 1
 550.91211 372.1543 l 1
 565.63281 454.16211 l 1
 624.50977 492.01172 l 1
 724.39062 607.66406 l 1
 696.00391 734.88086 l 1
 715.98047 747.49805 l 1
 374.28125 742.24023 l 2
 370.02059 741.41592 368.83403 748.26877 363.76758 748.54883 c 1
EndSplineSet
Validated: 524809
EndChar

StartChar: "+MLAw6jDV 40"
Encoding: 40 12454 40
Width: 1024
LayerCount: 2
Fore
SplineSet
489.58594 770.11914 m 0
 486.8103 770.16284 484.25743 769.82092 481.96094 769.0293 c 2
 491.15234 647.55664 l 1
 550.57422 685.41797 l 1
 559.72461 727.45703 l 1
 568.06445 734.00391 l 1
 539.30054 750.58266 509.0154 769.81307 489.58594 770.11914 c 0
314.45312 686.30664 m 1
 339.06641 406.60352 l 1
 401.2207 458.29492 l 2
 412.01231 464.92837 408.48183 470.51075 406.62695 482.03906 c 2
 395.99609 548.11719 l 1
 404.18555 564.1582 l 1
 401.01172 569.92188 l 1
 595.75781 576.46875 l 2
 609.24921 579.03656 604.65116 569.6148 603.86914 561.00391 c 0
 599.99633 518.32321 592.13477 422.74805 592.13477 422.74805 c 1
 367.43945 182.74219 l 1
 417.99209 206.1934 454.18197 246.0809 519.09766 253.0957 c 1
 676.6875 411.51758 l 1
 689.75391 628.54102 l 1
 709.54883 641.54297 l 1
 356.32227 651.14258 l 1
 347.85821 671.13137 341.42513 682.74481 314.45312 686.30664 c 1
EndSplineSet
Validated: 524809
EndChar

StartChar: "+MLAw6jDV 41"
Encoding: 41 12452 41
Width: 1024
LayerCount: 2
Fore
SplineSet
616.81836 721.73438 m 0
 612.6413 721.72308 609.95713 721.12212 609.50586 719.75 c 2
 619.79688 699.16797 l 1
 619.79688 699.16797 625.66804 625.40058 626.6582 619.41797 c 0
 629.478 602.38288 573.02422 505.8802 572.62695 507.07227 c 1
 366.82422 265.24414 l 1
 287.46601 185.90052 329.24014 214.48302 372.81836 244.66406 c 2
 561.13281 396.52734 l 1
 564.91211 337.28125 l 1
 558.05273 173.48047 l 1
 563.20508 56.85156 l 1
 576.92578 111.73633 l 1
 576.92578 111.73633 587.21289 185.49391 588.07031 188.92383 c 0
 588.92702 192.35413 620.65234 309.83789 620.65234 309.83789 c 1
 628.97461 451.23047 l 1
 638.66992 459.04883 l 1
 673.82812 498.50391 l 1
 710.00187 569.92129 702.24457 636.46102 698.69336 703.46484 c 0
 698.14729 706.74736 641.42273 720.9745 618.69727 721.70508 c 1
 618.69727 721.70308 l 1
 618.04171 721.72578 617.41507 721.73808 616.81836 721.73438 c 0
EndSplineSet
Validated: 524841
EndChar

StartChar: "+MLAw6jDV 42"
Encoding: 42 12456 42
Width: 1024
LayerCount: 2
Fore
SplineSet
313.66016 655.83594 m 1
 298.49609 630.7207 l 1
 300.32236 624.88965 265.7832 591.70312 265.7832 591.70312 c 1
 280.85029 568.9738 355.25663 593.58139 399.99414 594.51758 c 1
 417.74023 539.64648 l 1
 396.85156 392.17578 l 1
 387.11133 390.9707 l 1
 228.37305 393.89453 l 1
 212.16379 380.41749 198.50888 365.27583 198.49414 341.24219 c 0
 198.41854 335.31778 190.77844 327.01752 202.24023 324.68555 c 2
 342.69922 336.00586 l 1
 498.86328 333.01953 l 1
 673.58008 347.14062 l 1
 765.69141 374.90039 l 1
 803.87711 377.45233 810.87308 382.7882 828.07031 387.21289 c 1
 778.96094 398.73828 l 1
 495.79492 404.44531 l 1
 473.3457 401.65625 l 1
 476.48828 517.5918 l 1
 482.26953 596.23047 l 1
 517.86133 596.97266 l 1
 600.7168 615.67578 l 1
 627.22262 625.76145 649.15068 636.20918 650.69727 648.26172 c 1
 528.79102 654.05664 l 1
 313.66016 655.83594 l 1
EndSplineSet
Validated: 524841
EndChar

StartChar: "+MLAw6jDV 43"
Encoding: 43 12458 43
Width: 1024
LayerCount: 2
Fore
SplineSet
536.63281 775.16211 m 1
 559.07031 739.39258 l 1
 553.64062 675.59375 l 1
 414.74805 669.65234 l 2
 399.91329 666.39515 378.97691 666.95061 375.93945 656.32031 c 1
 349.83063 654.34627 400.6486 604.51734 428.09375 602.94922 c 2
 538.58594 606.35352 l 1
 459.01758 459.84961 l 1
 400.80664 371.31055 l 1
 260.72266 297.33203 l 2
 206.59052 271.19357 232.58778 277.10804 268.60547 287.0293 c 2
 382.60742 316.12695 l 2
 411.08911 323.44979 435.59191 338.72949 455.98828 362.22266 c 2
 552.83789 504.80469 l 1
 551.18359 378.58398 l 1
 551.79102 291.86914 l 1
 488.72656 203.3418 l 1
 453.09061 170.29096 479.66881 188.257 499.04297 200.31445 c 0
 536.60694 227.46091 579.45386 244.03889 611.21875 282.7832 c 1
 611.82812 405.27539 l 1
 622.74023 576.87891 l 1
 626.86914 610.75586 l 1
 690.66016 614.4707 l 1
 714.88205 630.7269 740.36116 647.12343 744.625 661.16211 c 1
 825.793 691.17912 786.59565 683.328 771.30273 682.99805 c 2
 628.95312 678.16992 l 1
 624.56445 738.78906 l 1
 630.49831 739.92141 633.97349 747.2041 636.69531 756.36719 c 1
 607.90325 777.45695 571.57661 774.05887 536.63477 775.16211 c 2
 536.63281 775.16211 l 1
EndSplineSet
Validated: 524841
EndChar

StartChar: "+MLAw6jDV 44"
Encoding: 44 12459 44
Width: 1024
LayerCount: 2
Fore
SplineSet
474.31836 787.0918 m 1
 474.86523 646.85352 l 1
 435.74805 644.27148 l 1
 421.63378 630.26599 409.81296 614.01347 404.89844 590.99414 c 1
 422.17844 573.40792 444.96928 562.90895 470.45312 555.87109 c 1
 475.23828 553.23438 l 1
 475.85547 394.91211 l 1
 264.53516 69.61328 l 2
 250.54372 50.01605 244.34383 38.10553 266.07422 53.75391 c 1
 522.13281 359.77148 l 1
 537.55859 400.57422 l 1
 548.08203 553.35352 l 1
 637.04883 564.93555 l 1
 649.72656 573.35352 l 1
 667.13086 522.98633 l 1
 643.21875 297.44531 l 1
 520.5957 256.64258 l 1
 533.70508 250.96289 l 1
 512.87695 230.56836 l 1
 535.29031 229.77201 542.2796 224.84942 580.23438 228.19922 c 1
 607.72893 220.42813 639.30464 219.85516 674.06836 224.90234 c 0
 692.37412 226.12464 697.84656 235.73083 703.38281 245.29492 c 2
 722.66211 316.70508 l 1
 718.35352 618.95898 l 1
 758.13281 645.39258 l 2
 785.13678 660.41129 765.41776 660.50384 761.99805 665.80273 c 1
 554.89258 652.13281 l 1
 562.23828 758.73633 l 1
 562.23828 758.73633 487.43149 779.15 474.32031 787.08398 c 1
 474.31836 787.0918 l 1
EndSplineSet
Validated: 524841
EndChar

StartChar: "+MLAw6jDV 45"
Encoding: 45 12461 45
Width: 1024
LayerCount: 2
Fore
SplineSet
447.50586 820.13477 m 0
 435.66263 820.12777 424.78277 819.67184 417.22656 818.82031 c 1
 417.22456 818.81431 l 1
 418.85737 801.82994 l 1
 435.10737 721.78306 l 1
 439.39253 692.82603 l 1
 395.06245 689.11119 l 1
 357.72065 686.10728 l 1
 336.75739 677.17134 321.74236 663.79724 318.07222 641.95494 c 1
 444.47456 638.95103 l 1
 447.28315 639.3397 l 1
 456.23237 578.6815 l 1
 462.66597 540.23619 l 1
 353.123 534.32213 l 1
 337.60151 533.46666 l 1
 303.23209 515.66976 295.95778 493.8291 281.875 473.00391 c 1
 368.62891 467.4375 l 1
 473.19531 470.44141 l 1
 474.33984 470.56445 l 1
 477.35547 452.55859 l 1
 521.23633 200.29883 l 1
 554.83153 58.16327 560.48378 143.94814 556.98242 180.89453 c 2
 555.35156 269.42188 l 1
 550.47852 402.83984 l 1
 535.42383 476.80469 l 1
 599.00586 483.30273 l 1
 671.97266 534.75586 l 1
 769.68323 569.17866 757.94441 572.09532 704.7168 563.06641 c 2
 527.77539 543.76562 l 1
 521.87695 543.44141 l 1
 503.35547 634.47852 l 1
 502.62695 646.89258 l 1
 545.01562 652.67969 l 1
 574.54613 662.63988 588.0128 677.09508 600.53906 691.81445 c 1
 657.09693 705.19738 660.95265 720.9321 641.75586 713.33789 c 1
 499.66211 697.86719 l 1
 495.23828 773.94336 l 2
 491.76096 791.58884 505.32419 798.33185 516.36328 806.69141 c 0
 527.23367 816.14211 483.03554 820.15585 447.50586 820.13477 c 0
EndSplineSet
Validated: 524841
EndChar

StartChar: "+MLAw6jDV 46"
Encoding: 46 12465 46
Width: 1024
LayerCount: 2
Fore
SplineSet
373.30859 761.20508 m 1
 376.78711 757.26953 l 1
 366.88086 755.52734 l 1
 366.88086 750.47852 l 1
 368.41602 750.28711 l 1
 380.18945 717.71875 l 1
 363.17383 632.63477 l 1
 300.89258 512.0293 l 2
 288.17178 495.41963 280.29684 484.24532 276.36328 477.15625 c 0
 274.36523 473.55538 272.78435 471.6298 273.13672 467.30859 c 0
 273.22482 466.22833 273.58228 464.81975 274.57617 463.55273 c 0
 275.57006 462.28576 277.12882 461.44932 278.38672 461.16797 c 0
 280.90252 460.60535 282.33257 461.22767 283.69336 461.74414 c 0
 289.13651 463.8095 295.08362 468.51534 303.58008 475.36328 c 0
 312.07653 482.21126 322.3839 491.0913 333.44727 500.81641 c 2
 333.96484 501.27344 l 1
 419.55664 624.38867 l 1
 541.92578 630.72266 l 1
 533.85742 487.02734 l 1
 502.6543 382.49219 l 1
 380.97266 256.87305 l 1
 323.32723 225.09826 292.83081 207.61594 280.30469 199.48633 c 0
 277.14832 197.43779 275.19525 196.10233 273.625 194.64453 c 0
 273.23244 194.28018 272.84803 193.91635 272.39258 193.30078 c 0
 271.93713 192.68517 271.0792 191.86035 271.09961 189.4707 c 0
 271.10981 188.27584 271.64279 186.68352 272.55469 185.63867 c 0
 273.46659 184.59386 274.49372 184.12134 275.22656 183.88281 c 0
 276.69226 183.40572 277.3862 183.54752 277.99414 183.60156 c 0
 280.42591 183.81737 281.86349 184.46025 284.36523 185.37305 c 0
 286.86698 186.28588 289.94834 187.51981 293.5332 189.01953 c 0
 307.87267 195.01847 330.20476 205.24389 350.76562 214.53125 c 0
 371.32649 223.81865 390.67989 232.30847 396.5625 234.13867 c 2
 397.35156 234.38086 l 1
 555.31836 339.96484 l 1
 601.53516 454.29492 l 1
 621.54102 580.73242 l 1
 626.25781 635.0918 l 1
 663.26367 637.01953 l 1
 700.37109 666.04492 l 1
 717.97451 670.4807 730.47357 673.91228 738.26367 676.45312 c 0
 742.28619 677.76512 745.15416 678.83281 747.34961 679.9082 c 0
 748.44734 680.44591 749.37133 680.9345 750.41406 681.82812 c 0
 750.93541 682.27494 751.52526 682.82905 752.08984 683.83594 c 0
 752.65443 684.84282 753.14402 686.556 752.76758 688.26367 c 0
 752.01473 691.67902 749.58842 692.57225 748.39844 693.01172 c 0
 747.20849 693.45118 746.26146 693.58705 745.2168 693.71289 c 0
 743.1274 693.96457 740.72286 694.01378 737.8418 693.97852 c 0
 732.25445 693.91012 724.91745 693.454 717.0625 692.90039 c 2
 687.45312 696.9082 l 1
 632.9082 690.49414 l 1
 446.95898 683.83594 l 1
 454.32227 711.4668 l 2
 455.84279 715.13412 455.0135 719.39026 453.24023 722.40625 c 0
 451.36464 725.59628 448.64083 728.16778 445.37891 730.69531 c 0
 438.8551 735.75038 429.94893 740.47003 420.46484 744.79492 c 0
 410.98076 749.11982 400.963 752.97531 392.48828 755.86719 c 0
 384.0136 758.75906 377.58527 760.6711 373.30859 761.20508 c 1
EndSplineSet
Validated: 524809
EndChar

StartChar: "+MLAw6jDV 47"
Encoding: 47 12463 47
Width: 1024
LayerCount: 2
Fore
SplineSet
472.50781 810.19922 m 2
 471.98567 810.20722 471.43642 810.19622 470.69922 809.95508 c 0
 469.96202 809.71364 468.83794 809.03976 468.32227 807.81445 c 2
 468.0625 807.19336 l 1
 468.0625 806.38281 l 1
 468.0781 806.24219 l 2
 468.46853 801.75265 469.22368 797.48616 469.20701 793.69922 c 0
 469.19191 789.91228 468.52569 786.73966 466.17381 783.68164 c 2
 465.9375 783.38086 l 1
 409.30469 658.5 l 1
 369.11719 598.2207 l 1
 369.08789 598.1816 l 2
 365.76971 592.88089 361.89946 587.00733 358.70117 581.77926 c 0
 355.50288 576.55123 352.93717 572.42336 352.20508 568.60934 c 0
 352.02207 567.65584 351.87597 566.59308 352.42578 565.25191 c 0
 352.97562 563.91071 354.67535 562.75338 355.99219 562.60152 c 0
 358.62587 562.29765 360.25215 563.33089 362.80469 564.79293 c 0
 367.90976 567.71707 375.79509 573.65113 388.17773 584.0234 c 2
 388.31055 584.13473 l 1
 508.97461 709.28707 l 1
 578.62891 708.50387 l 1
 578.18319 705.20484 575.45434 684.94125 572.12695 661.0898 c 0
 570.33296 648.23015 568.4972 635.29301 567.0332 625.42184 c 0
 566.30122 620.48623 565.6646 616.31421 565.17188 613.32223 c 0
 564.92545 611.82621 564.71336 610.62393 564.55273 609.79293 c 0
 564.47263 609.37745 564.40668 609.05331 564.36133 608.86324 c 0
 564.33863 608.76814 564.28543 608.65767 564.27733 608.65035 c 0
 564.01576 608.0505 564.08677 607.95436 564.02147 607.63082 c 0
 563.94287 607.24149 563.8654 606.79006 563.77733 606.23629 c 0
 563.60121 605.12874 563.38775 603.63806 563.14257 601.79293 c 0
 562.65221 598.10264 562.02644 593.00206 561.31249 586.9609 c 0
 559.88462 574.87854 558.10596 559.03217 556.36522 543.26168 c 0
 552.89558 511.82818 549.61236 480.93247 549.58983 480.72066 c 0
 542.55292 444.81122 539.16197 416.82825 529.28905 389.17965 c 1
 459.93555 302.4043 l 1
 415.62236 263.72575 386.97229 237.65028 371.08789 221.81641 c 0
 363.12321 213.87706 358.40016 208.67252 356.13281 205.00781 c 0
 355.56598 204.09166 355.12184 203.28158 354.85547 202.23242 c 0
 354.58909 201.18323 354.57131 199.30882 355.89648 198.01758 c 0
 357.22167 196.72638 358.66737 196.7639 359.66016 196.85938 c 0
 360.65295 196.95498 361.53589 197.21113 362.5332 197.56641 c 0
 366.52245 198.98675 372.31361 202.2015 380.2793 207.07422 c 0
 388.24499 211.94694 398.22578 218.45736 409.88672 226.3125 c 0
 433.20856 242.02282 463.22196 263.11635 496.89062 287.1543 c 2
 497.17773 287.36133 l 1
 497.41406 287.61914 l 2
 548.61253 344.03449 598.60367 400.69908 616.47656 460.41406 c 2
 616.52926 460.59961 l 1
 658.44332 702.23828 l 1
 663.89109 709.08543 671.55635 716.16274 671.92184 728.82617 c 2
 671.96094 730.06641 l 1
 671.16992 731.02734 l 2
 654.89112 750.82559 631.50414 759.90551 607.90039 767.65625 c 2
 606.78516 768.02539 l 1
 573.58984 755.36523 l 1
 542.5332 753.74023 l 1
 545.86914 776.27734 l 1
 545.86914 776.52148 l 2
 545.86914 778.60504 545.04019 778.83919 544.68945 779.18555 c 0
 544.33871 779.5319 544.03669 779.75794 543.69922 779.99805 c 0
 543.02423 780.47825 542.21605 780.96788 541.21289 781.54102 c 0
 539.2066 782.68729 536.4534 784.11762 533.15039 785.75586 c 0
 526.54438 789.03234 517.77928 793.1091 508.94531 796.98438 c 0
 500.11138 800.85964 491.22994 804.52682 484.34961 807.00781 c 0
 480.90945 808.24831 477.99198 809.19424 475.68359 809.73242 c 0
 474.5294 810.00152 473.55405 810.18209 472.50977 810.19727 c 2
 472.50781 810.19922 l 2
EndSplineSet
Validated: 524809
EndChar

StartChar: "+MLAw6jDV 48"
Encoding: 48 12467 48
Width: 1024
LayerCount: 2
Fore
SplineSet
639.16016 705.08789 m 1
 634.99805 701.18945 l 1
 612.44531 700.20898 l 1
 459.86133 682.0332 l 1
 413.77734 671.73633 l 1
 413.51953 672.78516 l 1
 406.58008 670.28906 l 2
 406.39942 670.22406 406.19871 670.17704 405.99609 670.15625 c 2
 394.52539 669.15234 l 1
 393.11523 665.0918 l 2
 385.4832 643.10017 379.93743 622.45209 380.12305 601.99219 c 2
 380.19725 594.12305 l 1
 583.71482 630.76758 l 1
 591.68748 631.91016 l 1
 595.01756 622.99414 l 1
 614.89646 535.73242 l 2
 614.89346 535.34714 614.76217 533.54832 614.00389 530.01953 c 2
 568.125 416.92773 l 2
 566.86116 416.28041 565.51627 415.88377 564.07227 414.75781 c 0
 562.11239 413.22956 559.24258 410.5185 556.13672 407.50977 c 2
 384.13086 396.82812 l 1
 382.64648 395.83789 l 2
 361.85982 382.01767 350.63392 362.91584 343.03711 341.61133 c 2
 340.32617 334.01562 l 1
 395.42578 325.71094 l 1
 585.34766 337.32227 l 1
 587.16211 339.30078 l 2
 627.67154 383.55357 655.68866 428.56146 673.01367 474.41016 c 1
 672.98437 474.32226 l 2
 672.93297 474.19148 672.91287 474.16308 673.00587 474.36716 c 2
 674.89649 478.5527 l 1
 674.41603 479.03122 l 1
 685.31796 508.53829 685.28516 538.15619 680.39649 568.79489 c 1
 680.39649 575.32809 l 1
 679.45118 575.32809 l 1
 673.62833 621.07194 664.42988 663.77254 643.41212 698.13474 c 2
 639.16016 705.08789 l 1
566.46484 411.24414 m 1
 566.44594 411.21014 566.51114 410.99861 566.49414 410.95703 c 1
 566.49214 410.99103 566.42924 411.05693 566.42774 411.08789 c 0
 566.42574 411.13889 566.46784 411.19803 566.46484 411.24414 c 1
EndSplineSet
Validated: 524837
EndChar

StartChar: "+MLAw6jDV 49"
Encoding: 49 12469 49
Width: 1024
LayerCount: 2
Fore
SplineSet
587.63672 862.91602 m 1
 572.04 862.95442 558.11287 861.14061 547.4707 857.49414 c 2
 542.12695 855.66406 l 1
 542.50977 847.89062 l 1
 543.69141 846.15625 l 2
 547.33094 840.7939 547.29847 838.19195 550.32031 832.11523 c 0
 553.0921 826.54132 558.5896 819.39976 569.61523 808.55859 c 1
 565.47461 698.01562 l 1
 464.43945 689.12891 l 1
 465.45117 707.47266 l 1
 483.82422 748.83984 l 1
 479.85938 752.49414 l 2
 457.91325 772.69302 428.07032 772.9258 403.53125 778.13867 c 2
 392.48047 780.48633 l 1
 398.79883 747.25391 l 1
 402.35742 684.31445 l 1
 378.32617 681.67969 l 1
 378.36897 681.75879 377.56681 682.09153 376.0918 683.14844 c 0
 374.06597 684.60003 371.25018 686.83467 367.11523 688.16016 c 0
 362.9803 689.48564 357.38302 689.29283 352.42578 686.64062 c 0
 347.59064 684.05376 343.1845 679.67479 338.41211 672.98242 c 0
 330.73689 664.72181 319.3058 656.52649 309.89258 646.75586 c 0
 300.37764 636.87965 292.54104 623.80457 296.07227 608.14062 c 2
 296.73047 605.21875 l 1
 299.2168 603.54883 l 2
 304.85681 599.77372 310.47856 599.95134 317.60547 599.95508 c 0
 324.73238 599.95908 333.12669 600.64047 342.0918 601.56445 c 0
 360.02201 603.41238 380.27086 606.25385 394.85742 607.01172 c 2
 394.96875 607.01972 l 1
 406.26172 607.92792 l 1
 410.26367 520.68183 l 1
 410.375 520.11933 l 2
 412.21608 510.92805 414.24971 503.82468 416.75977 498.26972 c 0
 419.26983 492.71476 422.24295 488.18288 427.55273 485.94941 c 0
 432.86252 483.71597 438.99583 485.72477 442.91992 488.88691 c 0
 446.84402 492.04886 449.96918 496.33003 453.16602 501.67988 c 2
 454.11133 503.27363 l 1
 460.17188 612.29121 l 1
 519.25 617.05097 l 1
 562.74414 616.85957 l 1
 561.27539 499.59003 l 1
 533.15039 429.31464 l 1
 360.01562 262.09394 l 1
 303.85303 226.54624 274.35263 207.1656 262.18359 198.16621 c 0
 259.12038 195.90087 257.24626 194.48075 255.56836 192.70331 c 0
 255.14888 192.25897 254.72233 191.80018 254.19531 190.96113 c 0
 253.6683 190.12203 252.53347 188.84248 252.98438 185.56464 c 0
 253.20981 183.92576 254.24993 181.94214 255.56055 180.80488 c 0
 256.87116 179.66758 258.14452 179.27025 259.04492 179.07636 c 0
 260.84573 178.68854 261.64933 178.90325 262.35156 179.01776 c 0
 265.1605 179.47591 266.55674 180.25281 269.08398 181.3576 c 0
 271.61123 182.4624 274.68032 183.91611 278.23828 185.66815 c 0
 292.4701 192.67626 314.44849 204.4023 334.70898 215.08612 c 0
 354.96948 225.76993 374.18967 235.62497 379.87305 237.80682 c 2
 380.69141 238.12518 l 1
 381.41406 238.61932 l 2
 461.34737 293.18542 548.73951 335.90141 620.33008 412.49237 c 2
 622.22656 414.52948 l 1
 625.42383 492.32049 l 1
 634.26758 616.53534 l 1
 690.67188 616.2619 l 1
 766.24805 621.38495 l 1
 767.94531 625.91034 l 2
 775.54908 646.15384 768.76075 671.05263 755.38867 699.21112 c 2
 753.42578 703.34588 l 1
 660.28125 706.37323 l 1
 640.54102 704.6369 l 1
 645.80469 778.63299 l 1
 651.73571 791.06266 658.10447 803.85598 661.54297 816.06659 c 0
 663.32173 822.38311 664.35641 828.60726 663.75781 834.75799 c 0
 663.15921 840.90872 660.63469 847.0811 655.83008 851.72088 c 2
 654.46289 853.03534 l 1
 652.64062 853.55291 l 2
 632.96218 859.06918 612.75184 862.13789 594.41992 862.78729 c 0
 592.12843 862.86849 589.86482 862.91072 587.63672 862.9162 c 1
 587.63672 862.91602 l 1
EndSplineSet
Validated: 524841
EndChar

StartChar: "+MLAw6jDV 50"
Encoding: 50 12471 50
Width: 1024
LayerCount: 2
Fore
SplineSet
727.41016 870.00977 m 1
 490.7793 219.13281 l 2
 488.90314 208.51121 472.90843 203.89133 460.76367 197.63281 c 2
 296.58984 133.37109 l 1
 302.06445 125.03906 l 1
 381.85742 86.17578 l 1
 411.81641 79.60547 l 1
 520.25937 122.23967 569.7339 174.00283 596.22461 229.32227 c 1
 659.27148 465.75781 l 2
 662.6243 481.2244 668.0602 497.66871 658.86914 507.24414 c 1
 727.41016 870.00977 l 1
455.87695 544.35547 m 0
 423.63154 544.19673 384.84779 540.37417 375.95117 538.98633 c 1
 373.01183 531.56485 355.05266 531.5649 380.19141 510.26953 c 0
 413.72489 480.49593 450.04356 462.66108 488.1582 452.5293 c 1
 517.43745 457.47443 535.19891 471.04431 517.58594 511.16211 c 1
 501.21289 537.58203 l 2
 496.94127 542.85636 477.93995 544.46432 455.87695 544.35547 c 0
346.57812 415.54492 m 1
 323.04527 411.96193 332.21285 398.88673 339.67969 386.30469 c 1
 427.17188 317.65039 l 2
 437.06063 308.42041 444.15094 314.54783 451.74023 317.93164 c 0
 476.10118 325.37315 473.46591 349.89969 465.43555 377.83984 c 0
 464.12292 391.58901 457.59768 398.90177 448.06836 402.50781 c 2
 448.06836 402.50781 353.75016 408.85818 346.57812 415.54492 c 1
EndSplineSet
Validated: 524841
EndChar

StartChar: "+MLAw6jDV 51"
Encoding: 51 12473 51
Width: 1024
LayerCount: 2
Fore
SplineSet
552.37109 553.75781 m 1
 552.37109 553.75581 l 1
 452.22852 542.91987 l 1
 374.52539 540.95893 l 1
 367.72526 546.58438 362.64443 536.52076 358.13281 521.26167 c 2
 333.96094 467.08984 l 1
 478.99414 484.82617 l 1
 462.58789 388.30273 l 1
 394.38477 274.06055 l 1
 246.77148 172.61523 l 1
 199.14906 148.36541 48.398676 88.51131 243.31836 147.99805 c 1
 396.97852 221.86719 l 1
 462.43164 274.92188 l 1
 574.81055 138.15625 l 1
 763.875 72.16797 l 1
 819.98438 68.22852 l 2
 910.31924 59.91356 879.42089 74.27082 831.2168 91.86523 c 2
 665.46484 164.73633 l 1
 525.52734 326.05859 l 1
 528.19922 328.23047 l 1
 563.58984 508.46289 l 1
 573.74543 533.54157 573.2235 550.95076 552.37109 553.75781 c 1
EndSplineSet
Validated: 524837
EndChar

StartChar: "+MLAw6jDV 52"
Encoding: 52 12475 52
Width: 1024
LayerCount: 2
Fore
SplineSet
383.83789 774.47266 m 0
 381.226 774.45136 378.97443 774.0506 377.19141 773.19727 c 0
 360.37515 770.01188 349.17883 758.44919 373.98047 730.95312 c 1
 368.97656 647.98633 l 1
 367.32617 616.51758 l 1
 340.96321 619.387 324.69141 632.34267 301.69336 632.28711 c 1
 272.79282 617.0405 253.54847 572.94011 255.6582 542.08594 c 1
 358.96484 555.44922 l 1
 359.24219 457.35938 l 1
 344.46875 349.62891 l 2
 340.29918 300.94784 380.21697 292.19759 439.44141 300.93359 c 1
 694.52539 317.40234 l 1
 792.5807 328.8906 802.23725 339.33015 668.10938 348.05859 c 2
 668.10938 348.05859 474.29008 361.16028 469.32227 358.50781 c 0
 459.73927 353.38995 428.02489 388.40462 438.39062 404.11914 c 1
 437.57227 501.25391 l 1
 437.89258 559.17773 l 1
 589.4375 573.61328 l 1
 544.62891 486.51758 l 1
 580.01284 503.95481 616.11878 517.18273 647.20312 559.62305 c 1
 664.60742 593.83008 l 2
 682.25819 629.52205 642.30459 643.88817 619.45508 664.58789 c 1
 582.10156 629.43945 l 1
 438.21875 618.10938 l 1
 438.62695 694.08984 l 1
 451.84169 704.93293 460.9844 718.3107 465.12109 734.80078 c 0
 468.10513 739.42959 409.08612 774.67876 383.83789 774.47266 c 0
EndSplineSet
Validated: 524841
EndChar

StartChar: "+MLAw6jDV 53"
Encoding: 53 12477 53
Width: 1024
LayerCount: 2
Fore
SplineSet
673.45117 750.33789 m 1
 682.06055 690.37695 l 1
 682.06055 690.37695 674.89063 561.47436 674.89062 555.47852 c 2
 660.53711 522.50586 l 1
 551.45508 380.10547 l 1
 374.92578 251.20508 l 1
 258.61725 200.00798 153.62541 153.30136 377.80469 237.70312 c 1
 512.69727 297.66602 l 1
 592.18262 348.29543 667.64122 417.90636 739.47266 504.50781 c 1
 747.20519 546.19071 760.07816 569.98926 760.58008 636.8457 c 1
 770.79085 642.1446 786.56494 651.72959 772.48242 678.39453 c 1
 740.0236 708.69527 707.25394 735.47173 673.45117 750.33789 c 1
419.80273 628.39062 m 1
 413.512 628.38062 409.69785 626.80602 411.38281 622.03125 c 0
 410.77393 606.12322 408.91176 579.73351 423.05664 559.49414 c 1
 488.51172 511.80273 l 2
 521.36677 489.26655 524.20388 512.02967 534.17578 523.99414 c 1
 535.45855 541.81386 528.80979 561.29222 509.82031 583.34766 c 1
 502.58819 604.80933 454.27533 623.42315 449.93945 624.16016 c 0
 441.16112 625.64816 430.57052 627.84088 422.64258 628.30273 c 0
 421.65163 628.36033 420.70141 628.39203 419.80273 628.39063 c 2
 419.80273 628.39062 l 1
EndSplineSet
Validated: 524841
EndChar

StartChar: "+MLAw6jDV 54"
Encoding: 54 12479 54
Width: 1024
LayerCount: 2
Fore
SplineSet
512.13867 783.62695 m 0
 511.08794 783.69035 510.29275 783.62724 509.79688 783.42383 c 2
 501.00781 757.05273 l 1
 486.94336 706.08984 l 1
 429.82617 586.57812 l 1
 341.94727 506.60742 l 1
 273.81788 456.39867 315.82493 477.90541 344.58789 490.78906 c 1
 473.48828 593.9043 l 1
 569.79492 431.38672 l 1
 567.80273 423.11523 l 1
 501.88867 318.53711 l 1
 393.78906 179.69531 l 1
 234.08928 95.7898 324.98388 132.3621 401.69922 162.11719 c 1
 467.61133 214.85352 l 1
 617.00391 382.68945 l 1
 684.67773 587.45898 l 1
 707.52344 651.59766 l 1
 716.3125 735.96875 l 1
 724.19735 758.18784 714.24976 765.85791 677.64844 751.78711 c 2
 624.91211 728.94141 l 1
 585.0957 730.88281 l 1
 589.76953 737.73047 l 2
 601.32815 753.14173 527.89972 782.67681 512.13867 783.62695 c 0
552.28125 681.56445 m 1
 624.0332 674.45898 l 1
 608.21484 590.96484 l 1
 600.38281 558.44922 l 1
 503.85742 618.20117 l 1
 520.34766 631.39062 l 1
 552.28125 681.56445 l 1
EndSplineSet
Validated: 524841
EndChar

StartChar: "+MLAw6jDV 55"
Encoding: 55 12460 55
Width: 1024
LayerCount: 2
Fore
SplineSet
757.28711 674.69922 m 2
 753.7845 674.79352 738.50176 673.34535 725.7168 674.31055 c 1
 708.83008 643.91016 l 1
 673.70508 593.92383 l 2
 658.83415 576.93674 666.02388 577.92411 675.05469 580.41406 c 2
 770.30078 624.99609 l 2
 775.62651 627.91464 781.09349 630.73251 777.73047 639.85742 c 0
 773.81941 653.87078 767.68016 672.98727 757.82617 674.6582 c 0
 757.70161 674.6794 757.52062 674.6929 757.28711 674.6992 c 2
 757.28711 674.69922 l 2
498.49219 650.85352 m 1
 494.65948 650.82552 490.37885 649.83013 485.62695 647.81055 c 2
 485.61325 647.80855 l 1
 432.59177 598.13473 l 1
 444.53903 560.87496 l 1
 444.53903 560.45113 l 1
 413.03122 559.43941 l 1
 386.75974 566.60152 l 2
 382.93259 564.55491 378.76251 564.22194 375.7695 558.00387 c 2
 343.77145 501.64644 l 1
 328.57473 483.67895 344.58154 487.16543 357.13864 488.27926 c 2
 431.66208 493.5273 l 1
 442.48239 494.00582 l 1
 439.78122 406.59371 l 1
 417.32419 340.6816 l 1
 268.30466 209.32223 l 1
 157.96664 144.39675 206.79775 168.28181 269.24802 199.76754 c 1
 497.09567 355.96285 l 1
 508.56247 398.47262 l 1
 517.63864 497.29879 l 1
 616.98435 501.64644 l 1
 635.6152 468.21285 l 1
 593.10544 341.16012 l 1
 566.83395 281.45308 l 1
 472.7363 276.66988 l 1
 440.19343 283.03498 407.68161 289.3878 456.0195 262.34566 c 2
 540.80075 208.33785 l 1
 590.23435 177.32418 l 1
 628.48239 231.42769 l 1
 694.84177 356.44137 l 1
 721.59177 442.8984 l 1
 661.88669 570.90621 l 1
 647.5071 590.66218 626.39606 590.22518 606.95114 594.78707 c 1
 575.91013 564.70113 l 1
 520.55075 562.91598 l 1
 519.53903 633.00582 l 1
 515.16106 644.67171 508.28686 650.92513 498.49216 650.85348 c 1
 498.49219 650.85352 l 1
793.26758 604.73242 m 1
 773.67969 594.59961 l 1
 720.31445 558.79883 l 2
 693.34072 540.25987 687.40967 530.05734 708.15625 530.42773 c 1
 773.67969 548.66602 l 1
 820.28906 565.55273 l 1
 823.74355 582.87658 817.22475 594.65669 818.95312 597.62891 c 0
 819.49057 598.55262 802.73265 603.90093 793.26758 604.73242 c 1
EndSplineSet
Validated: 524841
EndChar

StartChar: "+MLAw6jDV 56"
Encoding: 56 12466 56
Width: 1024
LayerCount: 2
Fore
SplineSet
681.37109 740.49805 m 0
 668.19952 740.40005 652.98951 733.24315 650.13672 725.70312 c 0
 644.8489 711.72759 631.3005 692.34059 624.27734 674.58203 c 0
 610.81028 640.52881 593.40234 569.15234 593.40234 569.15234 c 1
 592.74217 551.04372 599.72554 560.14727 604.62891 561.84375 c 2
 681.11133 674.86328 l 2
 715.51812 725.70713 700.62186 740.6412 681.37109 740.49805 c 0
738.98828 725.95898 m 0
 730.05212 726.11339 719.36175 718.85251 708.51367 697.93359 c 2
 693.05078 668.11719 l 2
 692.3205 666.71058 653.71875 583.17578 653.71875 583.17578 c 1
 635.00793 557.39347 652.1489 553.58817 665.5957 564.32422 c 2
 665.5957 564.32422 725.19753 619.8151 747.73047 652.51562 c 0
 755.21518 663.37753 760.98828 689.80078 760.98828 689.80078 c 2
 765.27042 701.84383 754.91796 725.68375 738.98828 725.95898 c 0
375.82227 636.4707 m 1
 375.82227 636.4492 l 1
 372.24436 636.55616 369.24037 633.77598 369.06445 630.20115 c 2
 356.61719 379.6582 l 1
 278.84375 215.4707 l 2
 278.46803 214.67704 278.25467 213.81698 278.2168 212.93945 c 2
 262.04492 183.36523 l 2
 261.76667 176.95221 285.13188 181.0532 289.04883 186.13867 c 2
 409.69336 348.3418 l 1
 418.38525 352.24835 422.057 355.39557 424.07031 362.97266 c 2
 429.58398 464.60938 l 1
 510.19336 467.40625 l 1
 509.51728 437.08726 508.36021 339.93779 508.33398 337.68164 c 2
 404.50391 120.30273 l 1
 390.29099 101.60469 395.83922 91.84415 415.29102 113.0332 c 2
 588.81445 302.87109 l 2
 590.07251 304.25036 590.68457 306.09977 590.49805 307.95703 c 2
 573.96289 473.29492 l 1
 651.63281 528.08008 l 1
 669.02734 535.78711 l 2
 671.58155 537.47017 682.94258 544.38341 682.43945 546.79297 c 0
 681.78756 549.91414 668.39903 548.34741 664.47656 547.7832 c 2
 581.85938 535.81055 l 2
 581.18314 535.80655 467.16055 535.10704 433.42773 535.24023 c 1
 438.21289 623.53516 l 2
 438.40489 627.02854 435.82622 630.05947 432.34766 630.43164 c 2
 432.34766 630.43164 381.06101 635.89129 376.3457 636.41211 c 0
 376.17271 636.41211 375.99705 636.47071 375.82227 636.47071 c 1
 375.82227 636.4707 l 1
EndSplineSet
Validated: 524837
EndChar

StartChar: "+MLAw6jDV 57"
Encoding: 57 12464 57
Width: 1024
LayerCount: 2
Fore
SplineSet
748.88281 749.87891 m 0
 748.02932 749.86251 747.48353 749.67516 747.35352 749.28516 c 2
 727.30859 738.21875 l 1
 685.55078 700.21875 l 1
 656.31836 678.08594 l 1
 641.13297 660.11769 649.26948 656.47611 673.02344 662.42773 c 2
 757.58398 689.15234 l 1
 772.82617 696.46094 l 1
 784.80312 708.64689 779.24211 720.06924 779.50781 731.74609 c 1
 775.54102 736.54883 l 2
 775.94217 741.76443 754.85725 749.99357 748.88281 749.87891 c 0
474.19727 652.36719 m 0
 462.64947 652.63176 463.97271 642.8087 471.95312 627.76758 c 1
 480.30664 580.99805 l 1
 436.87695 498.31445 l 1
 363.38086 414.79688 l 1
 286.74678 355.90201 369.27378 405.70156 375.07422 403.10352 c 1
 470.2832 460.73047 l 1
 518.72461 506.66602 l 1
 528.74609 534.22656 l 1
 594.72461 537.56836 l 1
 593.05078 475.76562 l 1
 580.52344 384.73047 l 1
 463.59961 207.67188 l 1
 320.7832 73.20898 l 1
 290.71875 55.66992 l 1
 158.5551 6.7575 281.71028 46.35584 298.23438 48.98828 c 1
 426.01562 116.63867 l 1
 547.11719 213.51953 l 1
 622.2832 313.74023 l 1
 669.88867 463.23633 l 1
 689.93164 565.12891 l 2
 688.72937 574.50743 694.22855 583.43972 682.41602 593.52539 c 2
 653.18359 616.07422 l 1
 640.29427 618.2962 632.65836 615.57799 633.14062 605.2168 c 1
 552.96289 602.71289 l 1
 546.28125 615.24023 l 1
 552.9668 646.14062 l 1
 481.97656 651.15234 l 2
 478.91574 651.92425 476.33575 652.31819 474.19727 652.36719 c 0
771.30469 651.5918 m 2
 770.52752 651.5801 769.96475 651.5003 769.69531 651.36133 c 2
 749.85938 641.13086 l 1
 693.06641 602.50391 l 1
 691.95182 592.04558 685.74972 578.80844 713.94727 584.33789 c 1
 769.69531 584.75391 l 2
 788.19081 584.71611 786.50422 597.88695 791.82617 606.46875 c 0
 796.16998 620.20355 791.82606 627.91507 792.24219 637.58008 c 1
 792.24419 637.58008 l 1
 792.70024 648.34762 776.74489 651.67343 771.30474 651.5918 c 2
 771.30469 651.5918 l 2
EndSplineSet
Validated: 524841
EndChar

StartChar: "+MLAw6jDV 58"
Encoding: 58 12468 58
Width: 1024
LayerCount: 2
Fore
SplineSet
655.35547 707.37109 m 0
 652.95819 707.40179 650.04178 706.13495 646.09766 702.29883 c 2
 598.41406 608.96289 l 1
 598.85211 599.1142 605.11527 599.9414 613.63281 604.9043 c 2
 690.73633 628.23828 l 1
 716.29916 631.30499 720.59938 645.81955 711.02734 667.80469 c 1
 665.37305 702.29883 l 2
 661.90415 703.66536 659.35094 707.31999 655.35547 707.37109 c 0
700.46289 598.61914 m 0
 696.21661 598.61114 691.63645 598.02766 686.67773 596.78906 c 2
 640.00977 570.41016 l 1
 583.19531 540.98828 l 1
 592.87204 532.62683 595.91185 519.02359 629.86523 529.82812 c 1
 728.27344 543.01758 l 1
 742.94859 551.05512 741.5982 561.76418 740.44922 572.43945 c 1
 730.99218 587.85305 718.86343 598.65371 700.46289 598.61914 c 0
563.91992 526.78516 m 1
 418.8418 521.71289 l 1
 362.0293 513.5957 l 1
 362.0293 513.5957 326.4125 435.55699 323.47656 431.41992 c 0
 315.62724 420.35951 339.87738 401.9619 347.82422 407.07031 c 2
 514.20898 447.65234 l 1
 533.48438 363.44531 l 1
 488.84375 271.12305 l 1
 339.70898 260.97852 l 1
 317.38867 252.86133 l 1
 282.89453 179.81641 l 1
 282.84543 169.15398 292.83425 166.5302 306.22852 166.62695 c 2
 497.97656 183.87305 l 1
 543.62891 208.22266 l 1
 606.5293 329.9668 l 1
 606.5293 429.39062 l 1
 563.91992 526.78516 l 1
EndSplineSet
Validated: 524841
EndChar

StartChar: "+MLAw6jDV 59"
Encoding: 59 12532 59
Width: 1024
LayerCount: 2
Fore
SplineSet
734.6875 688.55664 m 0
 729.01745 688.69119 723.13239 685.95575 720.16992 682.16016 c 2
 689.26562 642.56445 l 1
 641.94336 601.03516 l 1
 729.82812 611.66016 l 1
 746.72852 655.60156 l 2
 752.9907 680.13852 744.13753 688.33259 734.6875 688.55664 c 0
437.61133 648.10742 m 0
 425.74127 648.11542 423.60676 631.35827 432.79102 624.58203 c 0
 442.9398 613.8478 447.18339 599.98096 445.0918 585.56055 c 0
 443.37098 579.18259 449.33382 565.04414 438.12109 568.24805 c 0
 412.79939 567.68452 387.38416 568.07345 362.12109 566.92969 c 1
 353.7004 574.49403 335.46058 571.32906 338.58398 557.63281 c 0
 342.1254 536.83218 345.04303 515.98327 344.01953 494.82812 c 0
 344.29166 473.69871 344.05803 452.53677 344.63672 431.42773 c 0
 339.45952 392.66645 369.93802 370.13848 392.40234 424.13281 c 0
 398.22924 438.02673 406.34313 451.21592 410.74023 465.55469 c 0
 410.96701 475.8471 411.17258 486.13848 411.39062 496.43164 c 1
 473.0967 498.24767 534.80331 500.0636 596.50977 501.87891 c 1
 592.67241 477.33995 589.5126 452.64821 581.15039 429.13086 c 0
 567.03423 381.01483 552.91694 332.89728 538.80078 284.78125 c 1
 501.49382 245.85854 464.18782 206.93833 426.88086 168.01562 c 1
 397.69686 147.38247 366.0286 129.48348 339.3418 105.75977 c 1
 245.03389 49.43725 359.34546 90.76677 378.46484 102.8125 c 0
 456.39417 145.90138 531.42309 193.93591 607.49023 240.16406 c 1
 615.04513 250.97313 616.84865 265.10115 622.09766 277.22852 c 0
 635.37136 316.43771 650.11499 355.25412 662.46875 394.70898 c 1
 670.41256 441.12612 678.37914 487.53886 686.30859 533.95898 c 0
 689.56239 555.61723 669.29787 569.65219 652.23633 577.16211 c 1
 633.10512 574.87247 614.37458 568.49326 594.83594 570.14453 c 0
 575.29578 569.91776 555.75538 569.67101 536.21484 569.43555 c 1
 538.36917 578.34125 534.07584 590.42614 542.97852 595.9707 c 0
 565.40321 614.6359 542.23353 633.55955 520.65625 632.43359 c 1
 493.97392 638.22462 467.26282 644.73459 440.11523 647.875 c 0
 439.23785 648.03261 438.40269 648.10667 437.61133 648.10742 c 0
769.4707 631.7168 m 0
 768.25623 631.7546 767.10441 631.6732 766.04297 631.45703 c 0
 758.22388 629.86396 748.17773 615.52344 748.17773 615.52344 c 1
 750.54258 619.13856 718.7207 560.95703 718.7207 560.95703 c 1
 759.28516 553.125 l 1
 790.18945 565.30273 l 1
 793.58007 582.72711 805.22102 584.68189 798.88086 620.35156 c 1
 798.88086 620.35156 781.21063 631.36878 769.4707 631.7168 c 0
EndSplineSet
Validated: 524837
EndChar

StartChar: "+MLAw6jDV 60"
Encoding: 60 12470 60
Width: 1024
LayerCount: 2
Fore
SplineSet
711.81836 714.70312 m 0
 701.77849 714.61442 690.13997 711.52052 681.15234 711.49805 c 1
 652.53906 680.44922 l 1
 609.49023 597.3125 l 1
 616.58008 597.3125 l 1
 611.06641 591.80078 l 1
 692.17773 633.53711 l 1
 732.33789 676.84766 l 1
 737.75139 708.54043 726.49201 714.83282 711.81836 714.70312 c 0
506.69531 666.37109 m 0
 506.36556 666.38189 506.05092 666.37909 505.75195 666.36309 c 0
 500.56987 666.09477 499.93938 661.926 501.17188 656.15997 c 2
 500.14062 536.04864 l 1
 421.70703 536.04864 l 1
 422.45117 613.14629 l 1
 419.20508 618.82793 l 1
 350.20508 620.45098 l 1
 353.45117 560.39434 l 1
 349.79883 536.04864 l 1
 310.43945 536.04864 l 2
 300.34887 539.42224 297.63105 536.13904 295.01953 532.80254 c 2
 272.29492 456.5 l 2
 271.55128 452.62096 272.02353 449.29415 279.59961 449.19531 c 2
 326.66992 458.12305 l 1
 338.15039 458.36328 l 1
 336.4082 446.7832 l 1
 346.95898 385.10352 l 2
 350.47285 372.03988 364.75163 364.61454 384.29102 359.94531 c 1
 394.66518 364.05891 407.87141 356.52903 411.90039 386.72852 c 2
 420.82812 445.16016 l 1
 420.94922 459.95312 l 1
 499.48438 461.45898 l 1
 498.72656 372.11914 l 1
 437.85938 266.59961 l 1
 346.94727 177.31055 l 1
 89.996816 69.88666 281.67053 127.74838 373.72852 148.90625 c 1
 471.94531 192.73047 l 1
 552.28906 283.64258 l 1
 578.27539 330.71289 l 1
 580.06836 462.99805 l 1
 622.91211 463.82812 l 1
 647.25977 459.77148 l 1
 661.26386 464.8709 672.7433 471.61033 671.60547 486.55273 c 0
 672.78139 524.94926 665.93661 534.0252 652.93945 535.26367 c 2
 632.65234 536.07617 l 1
 581.04883 536.07617 l 1
 581.52344 570.97461 l 1
 580.71484 635.89844 l 1
 576.65625 646.44922 l 1
 510.09961 665.89844 l 2
 508.81424 666.18495 507.68458 666.3386 506.69531 666.37109 c 0
766.98828 640.33008 m 1
 730.9082 625.39062 l 1
 692.96484 578.90625 l 1
 662.25391 545.04492 l 1
 737.0625 565.51953 l 1
 785.09961 593.86914 l 1
 801.63672 607.25586 l 1
 816.06129 632.71083 790.06358 635.70859 766.98828 640.33008 c 1
EndSplineSet
Validated: 524841
EndChar

StartChar: "+MLAw6jDV 61"
Encoding: 61 12474 61
Width: 1024
LayerCount: 2
Fore
SplineSet
718.26367 744.9082 m 1
 673.48242 680.8125 l 1
 646.55664 602.19727 l 1
 743.61719 672.64648 l 1
 743.61719 672.64648 758.73133 701.83573 753.98047 715.86914 c 0
 749.06032 730.40285 718.26367 744.9082 718.26367 744.9082 c 1
764.01172 634.90039 m 0
 755.63934 634.69548 746.67187 631.6621 742.39844 627.38867 c 2
 677.13867 595.94141 l 1
 638.9707 549.45703 l 1
 724.76953 558.06836 l 1
 763.88672 591.35156 l 1
 763.88672 591.35156 777.00864 604.37354 780.40039 612.70898 c 0
 787.21517 629.45621 776.24827 635.19988 764.01172 634.90039 c 0
599.70508 584.70117 m 1
 598.59147 584.68467 597.40955 584.58877 596.15234 584.4082 c 2
 596.15234 584.4062 l 1
 561.44531 577.47651 l 1
 408.05469 565.57417 l 1
 388.07227 561.45503 l 1
 355.42383 499.78901 l 2
 357.83614 495.79783 362.12569 493.41658 371.50195 495.39448 c 2
 539.81445 505.8769 l 1
 545.1543 448.26362 l 1
 483.44141 382.74609 l 1
 344.53516 264.81641 l 1
 288.00522 203.17012 219.06175 189.36178 152.32031 146.86133 c 0
 128.88827 136.07546 152.56357 142.05217 172.99805 146.88083 c 2
 329.50586 177.06052 l 1
 376.11914 202.06052 l 1
 481.76953 281.81833 l 1
 532.0293 323.2363 l 1
 593.74219 256.87302 l 1
 649.91797 194.93161 l 1
 733.68555 169.55075 l 1
 881.41016 156.90036 l 1
 779.58594 199.45895 l 1
 657.21875 280.10935 l 1
 569.68164 354.26169 l 1
 595.76953 375.75778 l 1
 617.94141 458.54685 l 1
 614.125 518.1445 l 1
 624.8592 532.39317 623.15981 544.15577 624.51953 556.52927 c 1
 617.66121 567.53485 616.40927 584.94804 599.70508 584.70114 c 1
 599.70508 584.70117 l 1
EndSplineSet
Validated: 524841
EndChar

StartChar: "+MLAw6jDV 62"
Encoding: 62 12472 62
Width: 1024
LayerCount: 2
Fore
SplineSet
668.12109 743.55273 m 2
 635.78711 698.3125 l 1
 611.80859 666.10352 l 1
 592.76367 600.18359 l 1
 684.84961 676.80078 l 1
 717.07031 710.76758 l 1
 717.07031 710.76758 707.82039 727.71298 700.2207 733.13281 c 0
 691.06211 739.66418 668.12109 743.55273 668.12109 743.55273 c 2
744.66992 664.47461 m 2
 709.49609 649.99609 l 1
 678.94727 590.64062 l 1
 645.75195 565.14648 l 1
 765.10742 610.21875 l 1
 765.10742 610.21875 777.96523 632.11305 774.29297 642.77344 c 0
 770.30602 654.34648 744.66992 664.47461 744.66992 664.47461 c 2
365.55469 583.01172 m 0
 355.38642 582.90995 350.81985 572.68665 348.78711 557.87695 c 1
 360.16406 490.99609 l 1
 376.95288 462.97101 398.04224 465.85196 417.47461 456.82422 c 1
 449.18953 452.24509 448.18429 464.60059 454.04883 473.40039 c 1
 441.8418 516.95703 l 1
 426.1334 546.89716 397.08044 564.40112 368.89453 582.71289 c 0
 367.71938 582.92516 366.60658 583.02225 365.55469 583.01172 c 0
625.16797 576.14648 m 0
 625.14967 576.1466 625.13697 576.13848 625.12887 576.11918 c 0
 614.52257 574.72563 603.24575 544.15693 593.65426 535.65824 c 1
 587.74023 456.03711 l 1
 540.44727 378.32227 l 1
 436.30469 291.1543 l 1
 317.45703 204.00195 l 1
 288.0293 189.2793 l 1
 249.05078 158.76953 l 1
 258.29071 137.39672 304.41872 118.2654 341.23242 130.42188 c 1
 395.55469 168.9043 l 1
 395.55469 168.9043 525.73726 283.24031 537.05664 285.50391 c 0
 548.37606 287.76807 614.02734 355.67969 614.02734 355.67969 c 1
 614.02734 355.67969 651.37695 417.93032 651.37695 422.45898 c 0
 651.37695 426.98614 653.64453 539.05664 653.64453 539.05664 c 1
 647.41639 539.05664 626.31991 576.139 625.16797 576.14648 c 0
305.61523 466.23633 m 0
 296.15645 466.36352 286.69707 463.5214 277.23828 460.1543 c 1
 258.30664 422.80469 l 1
 289.40039 376.40234 l 1
 324.13279 357.77921 338.03368 363.58373 355.60938 365.08008 c 1
 369.12695 394.50977 l 1
 333.99219 454.50195 l 2
 324.5334 463.0129 315.07402 466.10913 305.61523 466.23633 c 0
EndSplineSet
Validated: 524841
EndChar

StartChar: "+MLAw6jDV 63"
Encoding: 63 12523 63
Width: 1024
LayerCount: 2
Fore
SplineSet
620.75586 782.75 m 1
 620.75586 782.748 l 1
 566.68329 779.27763 549.45662 768.33527 541.61523 752.0644 c 1
 531.9707 204.83594 l 1
 536.99974 157.89647 554.02106 166.54689 568.44336 188.29883 c 2
 788.39062 467.5625 l 1
 786.76732 475.80716 776.53022 473.6094 762.74023 467.09766 c 1
 765.92222 475.67756 775.19007 486.21657 768.78906 491.70898 c 1
 619.4043 375.02344 l 1
 616.31641 768.90625 l 1
 621.05367 774.76905 624.7769 780.24493 620.75586 782.75 c 1
421.15039 719.94922 m 0
 415.35878 719.96442 414.9822 715.32079 412.26172 712.69336 c 2
 396.33594 474.46875 l 1
 329.62614 401.42938 288.32811 318.06341 235.60938 240.20703 c 1
 262.07363 246.8847 289.83262 249.10656 312.30078 269.53906 c 0
 376.25719 327.65761 425.6757 386.70205 473.60352 441.03125 c 0
 492.37341 459.73122 488.64083 480.14873 489.36914 504.66992 c 2
 494.44727 675.61914 l 1
 488.35051 684.82758 460.58725 695.62545 449.54688 698.02734 c 0
 440.65591 701.79629 433.00588 709.30314 426.12109 719.11328 c 0
 424.11253 719.69509 422.48692 719.94572 421.15039 719.94922 c 0
EndSplineSet
Validated: 524841
EndChar

StartChar: "+MLAw6jDV 64"
Encoding: 64 12524 64
Width: 1024
LayerCount: 2
Fore
SplineSet
358.72461 713.91211 m 0
 348.88536 714.25356 349.25511 700.37336 353.88867 680.55664 c 2
 360.35156 643.93555 l 1
 350.8418 419.54883 l 1
 350.8418 419.54883 342.5808 325.57685 347.42578 288.49023 c 0
 350.85343 262.25842 372.19922 213.0918 372.19922 213.0918 c 2
 382.67758 184.18295 414.4804 181.92704 441.13477 173.23828 c 1
 464.18421 174.27614 469.81071 184.9942 480.98828 192.62695 c 2
 549.92188 266.94727 l 1
 642.55273 374.6582 l 1
 631.7832 378.9668 l 1
 663.01953 424.20508 l 1
 654.40234 428.51367 l 1
 678.09766 462.98047 l 1
 532.68945 344.49805 l 1
 444.36523 273.41016 l 1
 450.82812 622.39258 l 1
 461.59961 659.01562 l 2
 461.91029 662.96448 466.5511 666.91443 456.21484 670.86328 c 2
 363.58203 712.87109 l 2
 361.74235 713.52448 360.13022 713.86333 358.72461 713.91211 c 0
EndSplineSet
Validated: 524841
EndChar

StartChar: "+MLAw6jDV 65"
Encoding: 65 12525 65
Width: 1024
LayerCount: 2
Fore
SplineSet
296.05273 597.30078 m 2
 292.29214 597.34918 294.3544 592.33528 301.11914 583.23242 c 1
 304.89453 560.06641 l 1
 302.19531 446.4375 l 1
 295.72266 365.125 l 1
 304.89258 315.57812 l 1
 314.33535 301.14222 328.90945 294.91661 348.50781 296.72852 c 1
 374.35352 315.03906 l 1
 375.00391 319.06836 l 1
 441.54324 334.37356 576.89477 310.26875 609.15039 307.78711 c 1
 651.17773 290.79492 l 1
 673.16514 287.11669 681.62284 296.96888 694.25391 302.64648 c 1
 705.02734 371.58398 l 1
 717.95703 499.76172 l 1
 729.80859 529.92188 l 1
 724.58287 564.87343 699.53473 584.44737 669.48828 582.69141 c 2
 636.10547 580.74414 l 1
 588.16016 568.70117 l 1
 396.96289 569.16406 l 1
 398.5957 578.88867 l 1
 369.65737 588.5205 336.63305 589.98155 304.89258 594.00977 c 1
 304.89458 594.00377 l 1
 300.67391 596.20937 297.76215 597.27863 296.05278 597.30064 c 2
 296.05273 597.30078 l 2
605.94727 514.83398 m 1
 611.32422 388.8125 l 1
 608.70508 369.96484 l 1
 595.17188 375.88281 l 1
 534.85156 368.34766 l 1
 381.96875 366.50586 l 1
 382.96875 432.44336 l 1
 388.90234 502.44336 l 1
 389.75977 509.51953 l 1
 605.94727 514.83398 l 1
EndSplineSet
Validated: 524841
EndChar

StartChar: "+MLAw6jDV 66"
Encoding: 66 12510 66
Width: 1024
LayerCount: 2
Fore
SplineSet
670.01367 705.14258 m 1
 670.01367 705.14058 l 1
 661.16406 697.3984 l 1
 321.48438 688.54879 l 2
 312.78579 686.78035 305.48297 692.76392 292.71875 671.94137 c 2
 252.88867 602.23629 l 2
 245.03255 590.94109 253.92562 593.15195 261.73828 594.4941 c 2
 541.66797 598.92769 l 1
 664.48828 604.45308 l 1
 667.79688 557.98824 l 1
 553.95703 460.41207 l 1
 551.07031 468.91988 l 1
 437.65625 486.6191 l 2
 418.89808 489.7289 428.07347 479.47587 432.12891 471.67379 c 2
 499.61914 331.1543 l 1
 499.61914 331.1543 524.39359 258.3842 525.07617 253.70703 c 0
 533.65268 194.93613 584.58409 227.81141 581.5 252.04688 c 2
 583.7168 357.16797 l 1
 575.81055 392.76172 l 1
 738.60938 462.82617 l 1
 749.67578 519.26562 l 1
 767.375 635.43555 l 2
 771.45349 645.00157 777.57237 652.2373 771.80859 673.05078 c 1
 742.85477 692.28102 709.29203 703.61149 670.01367 705.14258 c 1
EndSplineSet
Validated: 524837
EndChar

StartChar: "+MLAw6jDV 67"
Encoding: 67 12511 67
Width: 1024
LayerCount: 2
Fore
SplineSet
413.36328 679.08789 m 1
 410.7207 678.23828 l 2
 402.15331 675.49281 395.63942 668.99544 393.86523 660.73242 c 2
 355.33398 581.0332 l 1
 439.89453 578.36133 l 1
 596.39844 572.13086 l 1
 672.27539 552.16992 l 1
 674.41016 553.10742 l 2
 689.71486 559.83011 701.28169 568.50615 712.33008 584.03906 c 1
 721.05935 588.67703 725.17175 597.2372 725.5 605.07617 c 0
 725.85603 613.57958 723.7136 621.85232 722.95312 628.78711 c 2
 722.76172 630.52148 l 1
 721.74219 631.94727 l 2
 709.70057 648.75834 691.47834 660.85583 665.06836 657.4375 c 2
 614.79297 657.4375 l 1
 435.67969 667.51953 l 1
 413.36328 679.08789 l 1
431.94336 515.27539 m 1
 430.05469 514.30859 l 2
 426.90434 512.69492 421.86638 511.79071 416.3457 508.57422 c 0
 410.99514 505.45679 406.01766 499.39096 404.03711 490.15039 c 2
 381.52539 440.59375 l 1
 418.53906 430.58398 l 1
 494.49805 421.97656 l 1
 584.11328 399.37305 l 1
 584.20308 399.35745 l 2
 589.43618 398.19151 595.27564 396.43054 601.32027 395.49026 c 0
 607.36491 394.54996 614.00029 394.34529 620.12301 397.65237 c 2
 621.54098 398.41995 l 1
 650.85348 441.10159 l 1
 651.00191 442.86722 l 2
 651.83057 452.76705 650.10563 465.49128 637.66207 475.91605 c 2
 636.38473 476.98636 l 1
 504.68551 504.77151 l 1
 431.94336 515.27539 l 1
352.60352 354.99219 m 1
 350.55859 354.07031 l 2
 340.22284 349.40891 330.91787 342.09148 325.95508 330.72852 c 0
 325.95008 330.71722 325.93698 330.70862 325.93168 330.69732 c 2
 298.46488 292.07427 l 1
 300.51566 288.39067 l 2
 300.83719 287.81316 300.95278 287.06549 301.26957 284.88482 c 0
 301.58637 282.7041 302.3404 279.09962 304.85746 275.90044 c 0
 309.89158 269.50208 318.99245 265.56679 340.12113 260.87114 c 2
 340.58598 260.76763 l 1
 423.04106 254.48638 l 1
 535.95512 240.5645 l 1
 644.56449 185.09575 l 1
 645.5684 184.92583 l 2
 653.08701 183.64234 661.0314 182.09468 669.0352 182.09185 c 0
 676.72725 182.08885 684.71676 183.86932 691.49027 189.00982 c 0
 698.51116 192.61337 702.38851 199.28742 704.39457 205.92778 c 0
 706.45687 212.75418 707.14109 219.97844 708.06254 226.5606 c 2
 708.14454 227.13677 l 1
 708.12114 227.71294 l 2
 707.71855 239.67711 701.41412 251.28954 691.74224 263.02739 c 2
 690.69341 264.29693 l 1
 581.85552 309.91021 l 1
 491.44927 319.3438 l 1
 402.64458 343.50396 l 1
 352.60352 354.99219 l 1
EndSplineSet
Validated: 524841
EndChar

StartChar: "+MLAw6jDV 68"
Encoding: 68 12512 68
Width: 1024
LayerCount: 2
Fore
SplineSet
455.5 661.65234 m 1
 453.73438 652.21094 l 1
 447.83789 620.57227 l 1
 343.40625 423.80078 l 1
 282.4082 337.75781 l 1
 245.50781 313.1543 l 1
 247.88477 307.9707 l 2
 251.6198 299.8217 252.80282 289.52127 256.85352 278.80469 c 0
 260.90421 268.08814 268.74719 257.18017 284.50586 250.4082 c 2
 285.9668 249.7793 l 1
 323.27539 252.11328 l 1
 408.48438 265.39258 l 1
 681.26758 283.86914 l 1
 707.28906 225.57422 l 1
 723.5957 202.28516 l 1
 724.17773 201.76172 l 2
 730.79856 195.87408 737.79427 191.68317 745.57812 190.89453 c 0
 753.11072 190.13133 760.72509 193.31463 766.99219 199.39062 c 0
 772.08828 203.04981 774.56629 208.61678 775.99219 214.30273 c 0
 777.46027 220.15684 777.99063 226.52437 778.42773 232.8457 c 2
 778.49413 233.82812 l 1
 745.06249 380.93359 l 1
 737.50976 410.05273 l 2
 737.50476 416.9729 734.95507 422.80087 730.59374 425.7207 c 0
 726.00951 428.78976 721.49172 428.78049 718.2871 429.13867 c 2
 717.96288 429.17577 l 1
 615.0371 430.48241 l 1
 643.53124 398.63671 l 1
 667.5078 357.78515 l 1
 552.12108 351.71093 l 1
 400.34179 333.89061 l 1
 510.88671 523.1621 l 1
 560.10155 608.17187 l 1
 560.32226 609.20507 l 2
 560.67148 610.83915 562.11444 614.3596 560.74413 618.99999 c 0
 559.37386 623.64038 555.32159 627.20782 549.40429 629.9414 c 2
 548.99218 630.1328 l 1
 548.54882 630.26561 l 1
 548.54882 630.26561 527.67649 636.62742 506.46483 643.1914 c 0
 495.85903 646.47339 485.16692 649.8039 476.98046 652.4121 c 0
 472.88723 653.7162 469.41715 654.83919 466.92772 655.67382 c 0
 465.68297 656.09113 464.67506 656.4417 464.0039 656.68554 c 0
 463.33269 656.92939 462.34069 657.54809 463.73046 656.71484 c 1
 455.5 661.65234 l 1
EndSplineSet
Validated: 524805
EndChar

StartChar: "+MLAw6jDV 69"
Encoding: 69 12513 69
Width: 1024
LayerCount: 2
Fore
SplineSet
682.55078 747.55664 m 1
 635.98633 747.55464 l 1
 636.88672 740.07807 l 1
 640.14258 712.97065 l 1
 630.2207 500.09956 l 1
 628.14648 475.2812 l 1
 626.55273 472.72065 l 1
 607.35141 484.90581 587.33203 497.56831 587.33203 497.56831 c 1
 586.85938 497.87104 l 1
 551.78125 512.57612 l 1
 551.49414 512.66402 l 2
 547.80048 513.83711 544.0586 515.12756 539.37305 514.48043 c 0
 537.03031 514.1569 534.25524 513.05078 532.27148 510.87691 c 0
 530.77048 509.23204 529.87597 507.22608 529.4082 505.16207 c 2
 494.34375 457.26363 l 1
 490.88867 443.45894 l 1
 558.21875 401.47848 l 1
 574.67969 389.71871 l 1
 563.02344 371.07223 l 1
 389.38672 197.44918 l 1
 328.02148 162.99801 l 1
 301.6436 158.23796 283.76363 154.65693 273.35938 152.06637 c 0
 268.04484 150.74312 264.76197 149.84473 261.99023 148.48629 c 0
 261.2973 148.14651 260.61563 147.79231 259.73242 147.05269 c 0
 258.84921 146.31308 257.25398 144.96301 257.03711 141.93746 c 0
 256.82024 138.91195 258.97375 136.36981 260.21875 135.53121 c 0
 261.46375 134.69261 262.28457 134.49646 263.03906 134.29684 c 0
 266.05702 133.49833 268.76664 133.51547 272.9375 133.49215 c 0
 277.10836 133.46945 282.33177 133.6171 288.46289 133.88473 c 0
 300.61053 134.41528 316.29941 135.44021 333.71289 136.70699 c 0
 376.06152 132.9212 405.67629 149.85199 435.70117 161.50777 c 2
 436.75 161.91402 l 1
 598.41211 299.06246 l 1
 640.37109 346.75582 l 1
 703.22852 306.90816 l 1
 703.45703 306.78316 l 2
 711.77082 302.37831 721.34593 295.3088 731.28711 291.79879 c 0
 736.25768 290.0438 741.79594 289.06907 747.26953 291.12691 c 0
 752.74312 293.18475 756.90608 298.21139 759.32422 304.86324 c 2
 759.40432 305.0859 l 1
 766.97854 331.62301 l 1
 765.14064 334.23629 l 1
 765.14064 334.23629 752.18207 352.59238 737.60549 372.86519 c 0
 724.38202 391.25615 711.37415 408.92605 703.57619 418.6191 c 1
 705.22854 420.50191 l 1
 727.64064 622.16793 l 1
 726.53322 706.22457 l 1
 728.66408 724.33199 l 2
 729.79559 729.43796 729.05065 734.84585 725.88283 738.56441 c 0
 722.59619 742.42245 718.07598 743.88818 713.57033 744.61715 c 2
 713.34963 744.65425 l 1
 682.55078 747.55664 l 1
EndSplineSet
Validated: 524841
EndChar

StartChar: "+MLAw6jDV 70"
Encoding: 70 12514 70
Width: 1024
LayerCount: 2
Fore
SplineSet
696.80469 589.74023 m 1
 492.26953 583.74023 l 2
 476.68352 587.16146 372.21094 585.91992 372.21094 585.91992 c 1
 327.00977 510.72656 l 1
 369.00391 509.90625 l 1
 446.93945 512.42578 l 1
 439.26172 416.61719 l 1
 396.42773 416.58009 l 1
 322.87109 416.38087 l 1
 293.5293 356.15431 l 1
 315.82812 342.54103 l 1
 435.65234 347.78517 l 1
 433.16797 274.18165 l 1
 438.27734 232.55079 l 1
 515.28125 145.88478 l 1
 576.86523 117.14063 l 1
 628.4082 149.32228 l 1
 687.66602 204.08985 l 1
 730.4707 270.85939 l 1
 600.0625 198.70313 l 1
 503.5332 263.36915 l 1
 510.36914 351.06837 l 1
 537.61719 352.25978 l 1
 625.20117 356.99806 l 1
 673.83594 396.54493 l 1
 675.46875 428.63673 l 1
 598.00781 429.29884 l 1
 535.64844 416.7129 l 1
 519.40234 416.6738 l 1
 530.14258 489.20505 l 1
 528.96289 518.73239 l 1
 579.22852 524.79489 l 1
 644.29297 538.56052 l 1
 696.80469 589.74023 l 1
EndSplineSet
Validated: 524841
EndChar

StartChar: "+MLAw6jDV 71"
Encoding: 71 12462 71
Width: 1024
LayerCount: 2
Fore
SplineSet
640.39844 697.26953 m 0
 636.93071 697.27853 633.65056 697.27053 631.03516 697.25953 c 0
 627.54795 697.24493 625.24219 697.22243 625.24219 697.22243 c 1
 613.68945 664.42188 l 1
 587.4375 609.25391 l 2
 575.62459 590.0146 582.54898 592.19474 591.03516 596.16211 c 2
 677.46094 656.08008 l 2
 682.21936 659.85016 687.1399 663.54286 682.29492 671.97461 c 0
 678.08831 680.89656 672.58019 692.68884 663.85742 696.42188 c 0
 662.89988 697.06838 650.80163 697.24208 640.39844 697.26953 c 0
522.03125 647.68555 m 1
 472.35938 629.5332 l 1
 452.29297 627.62109 l 1
 470.00977 532.39844 l 1
 372.04297 533.04688 l 1
 339.56445 498.65625 l 1
 350.07617 480.50391 l 1
 377.7832 473.81836 l 1
 407.39062 459.49414 l 1
 483.30664 460.95703 l 1
 497.05469 387.06836 l 1
 496.23828 387.06836 l 1
 400.70508 386.11328 l 1
 376.82617 366.04688 l 1
 415.98828 329.74219 l 1
 507.70703 316.375 l 1
 510.07227 317.13281 l 1
 548.3457 111.49023 l 1
 556.38325 99.19619 560.46408 103.51544 564.06445 109.85938 c 2
 584.62305 146.0625 l 1
 597.99023 189.05078 l 1
 582.25977 340.4375 l 1
 658.64062 365.08984 l 1
 660.55273 389.92578 l 1
 572.8457 388.40625 l 1
 558.11133 463.57617 l 1
 673.92188 516.82422 l 1
 684.43359 537.8457 l 1
 600.36914 529.24805 l 1
 544.87109 531.17773 l 1
 522.03125 647.68555 l 1
700.49805 637.11719 m 1
 680.90625 625.69531 l 1
 627.54102 585.33789 l 2
 600.56728 564.44013 594.63623 552.93972 615.38281 553.35547 c 1
 680.90625 573.91602 l 1
 727.51758 592.95312 l 1
 730.20029 608.09996 730.11052 617.93701 728.23438 624.35352 c 0
 726.12426 624.39362 711.39972 636.04002 700.49805 637.11719 c 1
EndSplineSet
Validated: 524841
EndChar

StartChar: "+MLAw6jDV 72"
Encoding: 72 12449 72
Width: 1024
LayerCount: 2
Fore
SplineSet
378.69531 537.75586 m 1
 378.69531 537.74586 l 1
 371.13867 537.63844 l 1
 371.13867 536.43336 l 1
 343.39369 534.79369 314.24695 527.46278 286.72852 522.16774 c 1
 127.80859 516.19313 l 2
 118.13932 517.30269 107.00401 520.13809 95.84375 521.65602 c 0
 84.526333 523.19629 72.71226 523.60196 62.509766 517.50172 c 2
 60.6875 516.41797 l 1
 49.882812 496.16211 l 1
 26 435.01758 l 1
 270.40039 459.20117 l 1
 267.10352 433.60156 l 1
 249.13477 407.14648 l 1
 234.6875 401.41211 l 1
 230.59375 408.45508 l 1
 130.5918 412.09766 l 1
 148.9668 382.46484 l 2
 157.99269 367.69698 168.29417 345.3691 176.26758 326.9043 c 0
 180.25732 317.66343 183.69191 309.33622 186.16992 303.35156 c 0
 187.40738 300.35965 188.38021 297.95914 189.11914 296.23242 c 0
 189.11914 296.15532 189.11821 296.15562 189.19534 296.125 c 2
 150.17386 165.34766 l 1
 171.00198 185.03125 l 2
 183.82116 197.10612 198.14834 217.36707 209.78323 235.59766 c 0
 215.60068 244.71218 220.66387 253.24836 224.35159 259.94727 c 0
 226.19468 263.29676 227.68534 266.18975 228.79105 268.53906 c 0
 229.34584 269.71336 229.82602 270.76369 230.20511 271.77539 c 0
 230.48253 272.51508 230.76041 273.26034 230.94534 274.42383 c 0
 231.061 274.84763 236.56953 295.14303 242.09573 316.24609 c 0
 244.88888 326.90784 247.68835 337.66793 249.71097 345.99805 c 0
 250.72188 350.16271 251.53993 353.69678 252.1055 356.41211 c 0
 252.22115 356.93607 252.24349 357.31508 252.32815 357.78125 c 0
 277.80164 369.68431 303.48277 380.27225 335.49026 405.60938 c 2
 337.35745 407.14258 l 1
 360.23245 484.10547 l 2
 366.2094 490.4045 374.02743 497.18534 380.65237 504.4082 c 0
 384.15059 508.22152 387.30583 512.16233 389.57815 516.58203 c 0
 391.84965 521.00098 393.30264 526.30688 392.03128 531.76758 c 2
 390.66214 537.45508 l 1
 384.85355 537.67773 l 2
 382.76849 537.76243 380.72942 537.77133 378.77151 537.75583 c 2
 378.77151 537.75583 378.77244 537.75659 378.69531 537.75583 c 1
 378.69531 537.75586 l 1
EndSplineSet
Validated: 524837
EndChar

StartChar: "+MLAw6jDV 73"
Encoding: 73 12451 73
Width: 1024
LayerCount: 2
Fore
SplineSet
227.52734 545.85742 m 1
 227.52734 525.72266 l 1
 227.52734 421.97266 l 1
 173.09375 349.38867 l 1
 23.789062 262.93164 l 2
 12.914681 255.55774 18.626225 248.18249 30.441406 240.80859 c 1
 117.69727 245.98633 l 1
 191.34766 294.33984 l 1
 196.41992 247.23438 l 1
 191.85938 133.25195 l 1
 256.42188 159.46875 l 1
 256.42188 229.94336 l 1
 257.66992 291.26953 l 1
 266.83594 330.45703 l 1
 265.69141 355.07812 l 1
 273.71289 364.85938 l 1
 292.25391 396.53906 l 1
 306.5957 502.10938 l 1
 286.26929 545.33417 255.62753 539.55763 227.52734 545.85742 c 1
EndSplineSet
Validated: 524809
EndChar

StartChar: "+MLAw6jDV 74"
Encoding: 74 12453 74
Width: 1024
LayerCount: 2
Fore
SplineSet
69.763672 524.75 m 1
 121.23242 474.75781 l 1
 113.61719 448.19531 l 1
 81.412109 445.75781 l 1
 64.40625 461.90625 l 1
 30.618018 469.39727 19.105322 460.79897 22.599609 441.36328 c 2
 29.492188 373.46094 l 1
 40.748047 337.50781 l 1
 72.140625 310.88672 l 1
 90.636719 328.91406 l 1
 91.660156 371.45898 l 1
 99.953125 385.12305 l 1
 159.17188 393.25 l 1
 216.32812 390.4668 l 1
 215.58984 363.84375 l 1
 208.5918 289.21484 l 1
 200.91602 255.42969 l 1
 185.61133 224.77344 l 1
 116.21875 185.58594 l 1
 79.708984 173.69727 l 1
 84.029297 154.35742 l 1
 156.38477 163.46289 l 1
 230.60742 196.51172 l 1
 266.72656 261.4043 l 1
 273.89062 376.81641 l 1
 281.625 444.83984 l 1
 248.57812 466.91602 l 1
 218.26758 452.12305 l 1
 179.98242 452.98047 l 1
 180.94531 504.61523 l 1
 145.74609 517.52734 l 1
 69.763672 524.75 l 1
EndSplineSet
Validated: 524841
EndChar

StartChar: "+MLAw6jDV 75"
Encoding: 75 12455 75
Width: 1024
LayerCount: 2
Fore
SplineSet
131.04297 478.9707 m 1
 114.83594 467.75977 l 1
 117.39453 462.92773 l 1
 107.25909 444.55462 108.39035 428.99955 139.51562 420.94141 c 2
 184.67969 404.28125 l 1
 193.54297 337.3418 l 1
 189.73633 292.63086 l 1
 188.42578 274.25586 l 1
 97.708984 269.07812 l 1
 61.591797 273.9707 l 1
 48.481326 262.26951 30.936514 254.26174 34.457031 228.70117 c 1
 50.154297 200.13867 l 1
 136.95703 201.85352 l 1
 182.3457 204.06641 l 1
 252.53711 206.29297 l 1
 301.38672 207.99414 l 1
 358.4375 214.19531 l 1
 423.40625 242.29102 l 1
 429.03516 262.54688 l 1
 243.6582 271.98438 l 1
 248.54883 298.0332 l 1
 254.35742 396.25977 l 1
 331.83008 417.08789 l 1
 360.99609 446.25391 l 1
 308.38477 474.92188 l 1
 201.68555 465.36719 l 1
 162.31641 465.36719 l 1
 131.04297 478.9707 l 1
EndSplineSet
Validated: 524841
EndChar

StartChar: "+MLAw6jDV 76"
Encoding: 76 12457 76
Width: 1024
LayerCount: 2
Fore
SplineSet
250.08594 537.29492 m 1
 203.32812 537.27732 l 1
 209.75391 500.98045 l 1
 219.76172 454.62693 l 1
 211.63477 453.9492 l 1
 211.91992 454.0273 l 1
 152.31055 451.00191 l 1
 104.64844 459.24996 l 1
 101.39844 455.66598 l 2
 95.027741 448.7197 89.404918 441.22984 86.558594 432.29488 c 0
 83.713819 423.36065 84.281976 412.94597 89.525391 403.17574 c 2
 91.617188 399.18746 l 1
 119.54883 395.49996 l 1
 223.52344 398.22457 l 1
 220.61914 374.8984 l 1
 169.60156 319.50195 l 1
 106.30469 253.30078 l 1
 24 232.69727 l 1
 25.023438 215.35938 l 1
 87.763672 207.56445 l 1
 168.47266 237.64844 l 1
 224.83203 286.79883 l 1
 220.34766 220.58203 l 1
 208.78906 199.15234 l 1
 229.15234 141.81445 l 1
 278.24219 148.17969 l 1
 281.7793 205.96875 l 1
 275.68359 315.28711 l 1
 274.31445 399.1875 l 1
 322.83398 403.05469 l 1
 358.04883 400.10547 l 1
 382.50391 395.66602 l 1
 395.47656 449.58789 l 1
 357.31055 461.64062 l 1
 283.48047 457.54883 l 1
 284.89453 511.63477 l 1
 250.08594 537.29492 l 1
EndSplineSet
Validated: 524809
EndChar

StartChar: "+MLAw6jDV 77"
Encoding: 77 12515 77
Width: 1024
LayerCount: 2
Fore
SplineSet
108.39453 533.45898 m 0
 107.41155 533.45858 106.41078 533.43698 105.39258 533.39258 c 2
 105.38858 533.39058 l 1
 113.36514 475.2109 l 1
 121.26553 411.38668 l 1
 121.08975 411.10348 l 1
 58.302644 396.53512 l 1
 57.038972 395.28707 l 2
 52.001274 390.43892 45.891305 385.42444 41.34366 379.01754 c 0
 36.796812 372.61063 34.100495 363.73468 37.595613 354.66793 c 2
 39.296785 350.34957 l 1
 127.41007 355.36129 l 1
 144.06827 224.82418 l 1
 161.30069 171.51949 l 1
 200.83585 145.6484 l 1
 203.22843 232.43746 l 1
 198.05069 303.54684 l 1
 189.6835 361.84762 l 1
 271.82218 381.74215 l 1
 265.56241 341.36519 l 1
 261.91983 289.09957 l 1
 334.72843 354.50191 l 1
 357.93546 397.21285 l 1
 384.39053 426.73824 l 1
 390.96771 489.5089 349.26926 466.45381 321.19913 467.62887 c 1
 291.16016 450.39648 l 1
 184.50781 430.32031 l 1
 180.69922 430.32031 l 1
 168.87109 494.82227 l 1
 152.72402 512.71678 138.86702 533.47166 108.39453 533.45898 c 0
EndSplineSet
Validated: 524841
EndChar

StartChar: "+MLAw6jDV 78"
Encoding: 78 12517 78
Width: 1024
LayerCount: 2
Fore
SplineSet
279.93945 397.83203 m 1
 279.26172 397.75583 l 1
 167.09766 387.40036 l 1
 133.41797 368.00192 l 2
 118.35734 358.63928 111.49473 345.18012 121.24414 323.41208 c 1
 271.46484 318.74606 l 1
 268.62109 228.707 l 1
 208.66602 227.00583 l 1
 82.912109 213.00974 l 1
 55.839844 208.85739 l 1
 28.419922 158.39645 l 1
 127.11328 154.3027 l 1
 127.11328 154.3027 211.10802 162.08458 253.21094 161.707 c 0
 289.3939 161.38347 361.44531 153.40036 361.44531 153.40036 c 1
 441.47656 150.39059 l 1
 446.75977 186.90036 l 1
 405.13281 214.48435 l 1
 337.21484 232.12302 l 1
 344.33398 367.4902 l 1
 316.91406 392.8027 l 1
 279.93945 397.83203 l 1
EndSplineSet
Validated: 524841
EndChar

StartChar: "+MLAw6jDV 79"
Encoding: 79 12519 79
Width: 1024
LayerCount: 2
Fore
SplineSet
259.52539 515.49219 m 0
 258.93008 515.47359 258.29928 515.42709 257.63086 515.35156 c 0
 197.09991 503.85443 137.20963 490.79309 69.537109 496.75 c 1
 69.537109 496.748 l 1
 50.70965 474.46354 49.483508 447.30491 45.609375 420.87891 c 0
 44.138723 412.52464 51.009599 413.82426 56.878906 413.96289 c 0
 70.370576 411.60979 97.476563 410.27161 105.41406 410.08203 c 0
 137.23292 409.31611 153.60075 417.88973 184.97461 421.35938 c 1
 195.35489 358.9192 185.79795 300.51507 173.67383 242.63281 c 1
 48.644531 245.98633 l 1
 37.193123 239.4152 33.142514 200.73876 26 175.47852 c 1
 46.250675 172.39041 64.417904 173.34053 88.609375 171.41992 c 1
 93.831851 166.59176 108.92365 164.67476 126.89258 163.60742 c 1
 179.49609 172.35547 l 1
 181.93071 159.30177 186.84981 165.37305 191.19922 167.05078 c 0
 222.26901 207.46648 249.97138 250.49433 258.9707 308.02539 c 0
 265.84495 373.04577 264.04353 434.70192 248.61523 491.07422 c 1
 268.63477 502.58984 l 1
 269.37188 509.81341 268.45498 515.77182 259.52539 515.49219 c 0
148.71875 361.78711 m 2
 144.35225 361.77811 139.86148 361.4388 135.45117 360.77148 c 1
 135.45317 360.76948 l 1
 108.04693 358.99604 l 1
 96.576222 342.33003 l 1
 79.757324 327.57471 84.267691 319.54149 93.800831 303.1894 c 1
 111.10491 294.61906 127.64666 290.3893 143.22466 291.63862 c 0
 156.59493 295.39158 168.42764 300.64466 174.91607 311.10737 c 1
 181.61724 343.23628 l 2
 184.21104 355.67571 167.6403 361.82669 148.7188 361.78706 c 1
 148.71875 361.78711 l 2
EndSplineSet
Validated: 524841
EndChar

StartChar: "+MLAw6jDV 80"
Encoding: 80 12483 80
Width: 1024
LayerCount: 2
Fore
SplineSet
213.07031 525.23242 m 1
 207.22696 525.30082 201.25024 524.3296 195.10742 522.08789 c 1
 191.22547 512.01689 210.63056 490.912 204.03906 478.47656 c 1
 188.27539 360.78125 l 1
 87.916016 173.72266 l 1
 61.272229 141.92508 82.268812 156.17982 95.796875 163.21484 c 1
 230.31055 311.38867 l 1
 237.07099 329.84539 237.86737 314.50279 240.82031 311.38667 c 1
 262.35001 359.65282 267.84827 413.74851 274.44922 467.44331 c 1
 281.80469 471.12104 l 2
 295.14566 474.88508 292.9019 479.6233 283.90625 484.78315 c 0
 261.18491 505.13649 238.39149 524.93585 213.07031 525.23237 c 1
 213.07031 525.23242 l 1
143.32812 505.49414 m 0
 132.67129 505.54174 123.75582 494.89803 124.17188 489.51172 c 2
 128.90039 464.29102 l 1
 126.27344 374.43945 l 1
 129.68182 340.54567 139.51102 337.95018 154.12305 358.67578 c 1
 162.5293 422.25586 l 1
 167.7832 478.47656 l 1
 160.95804 498.95226 151.61677 505.45712 143.32812 505.49414 c 0
60.876953 481.9082 m 0
 52.941558 481.94185 45.332724 471.67797 38 452.73047 c 1
 47.458984 377.06641 l 2
 55.304157 332.38925 64.517867 341.08849 73.730469 349.74414 c 1
 87.392578 444.84766 l 1
 78.142702 470.16689 69.32431 481.87239 60.876953 481.9082 c 0
EndSplineSet
Validated: 524841
EndChar

StartChar: "+MLAw6jDV 81"
Encoding: 81 12526 81
Width: 1024
LayerCount: 2
Fore
SplineSet
186.51562 479.32031 m 1
 80.923828 475.41992 l 1
 45.705078 437.63086 l 1
 28.097656 419.73047 l 1
 42.185547 354.09961 l 1
 61.552734 336.19922 l 1
 86.205078 373.98633 l 1
 93.248047 409.78516 l 1
 194.34375 413.76172 l 1
 231.32031 401.83008 l 1
 227.79883 318.29688 l 1
 218.99609 248.6875 l 1
 183.05078 191.01172 l 1
 105.57422 167.14648 l 1
 58.03125 161.17969 l 1
 154.87695 155.21289 l 1
 253.48438 202.94531 l 1
 273.18717 234.18201 290.85373 264.90969 295.74414 292.44336 c 2
 304.54883 431.66406 l 1
 276.375 477.4082 l 1
 186.51562 479.32031 l 1
EndSplineSet
Validated: 524809
EndChar

StartChar: "+MLAw6jDV 82"
Encoding: 82 24618 82
Width: 1024
LayerCount: 2
Fore
SplineSet
315.21289 782.85742 m 1
 302.71981 771.8628 321.99281 747.72616 325.86523 729.96094 c 2
 327.4707 59.35156 l 1
 360.80273 280.48633 l 2
 365.67976 286.50889 371.97109 287.61878 374.43164 302.02539 c 2
 388.05078 533.4043 l 1
 426.43359 506.25391 l 1
 430.95703 497.78711 l 1
 451.60981 516.85535 482.1727 537.83322 468.94141 550.37305 c 0
 448.41612 575.47474 423.19976 592.92029 391.99609 600.59375 c 1
 396.11719 670.66211 l 1
 409.76367 697.75586 l 2
 413.32172 711.55065 325.8071 781.53049 315.21289 782.85742 c 1
721.39844 704.50195 m 1
 555.38281 694.04297 l 1
 553.20803 701.36298 547.10787 702.36128 539.29102 700.58398 c 1
 533.70877 694.46742 505.65234 645.44922 505.65234 645.44922 c 2
 492.24237 627.26713 507.01819 622.00626 535.56641 623.08008 c 2
 535.56641 623.08008 535.56841 623.08008 535.56841 623.08008 c 1
 652.91997 639.49414 l 1
 660.72661 627.10742 l 1
 644.7772 606.62582 625.55355 587.82639 604.42388 569.99609 c 1
 549.77935 597.24609 l 2
 549.24031 601.54051 539.18326 600.2315 538.15825 602.97461 c 0
 535.13902 611.05146 539.63992 618.36293 535.56646 623.08008 c 1
 511.60875 612.12841 501.96692 588.53161 494.43364 570.16016 c 1
 563.24028 537.84375 l 1
 513.28512 501.40517 457.80377 467.7914 409.5293 430.49219 c 1
 474.44548 459.34336 557.91713 474.54812 621.02734 506.49023 c 1
 707.48438 470.09766 l 1
 707.48438 470.09766 873.75116 450.00089 863.36914 456.17773 c 0
 854.44314 461.48808 716.30636 520.05721 668.36328 540.59766 c 1
 694.51599 555.35611 707.018 577.40415 731.72852 594.63086 c 1
 713.05859 683.84961 l 1
 724.03064 690.5209 720.37528 697.56964 721.39844 704.50195 c 1
266.33398 648.79688 m 0
 262.82076 648.63213 259.35447 647.28643 255.89648 645.6875 c 0
 247.59638 517.98754 193.81752 462.70239 137.90039 410.82422 c 1
 229.41016 436.95703 l 1
 259.83282 450.29774 280.76765 479.34268 303.9043 508.69922 c 0
 306.5802 512.09418 316.7786 505.66255 315.5332 516.11914 c 0
 310.63947 569.05687 301.94522 615.86573 280.1875 641.60938 c 0
 275.44341 647.26839 270.85099 649.00869 266.33398 648.79688 c 0
660.62891 474.2832 m 1
 657.69922 472.38477 l 1
 657.69922 472.38477 574.76754 471.61161 568.58008 473.25 c 1
 572.39844 436.25 l 1
 571.98633 416.26562 l 1
 543.42036 415.0335 513.78073 417.80901 486.16406 419.31836 c 1
 477.14086 408.00245 465.35252 401.51019 464.41406 376.0957 c 1
 499.90602 372.13669 535.43079 369.14599 570.99414 367.91016 c 1
 569.02539 272.45898 l 1
 447.79492 294.21484 l 2
 438.1806 298.3329 428.20663 300.30964 416.13867 289.77734 c 2
 388.47461 258.89062 l 1
 388.47461 258.89062 413.36383 244.23125 466.07422 229.49219 c 0
 525.37652 212.9097 613.82582 197.39241 615.94141 195.95898 c 0
 636.17991 182.24361 898.41292 271.15869 885.64844 282.38672 c 1
 804.76031 276.87054 737.3392 263.34219 639.08789 268.15625 c 1
 649.5918 368.64258 l 1
 676.98593 370.16149 704.42037 372.99494 731.9043 377.9375 c 1
 758.5957 408.73047 l 1
 789.2207 425.63477 l 1
 747.20249 416.222 700.95623 413.85445 654.32812 414.04883 c 1
 660.62891 474.2832 l 1
EndSplineSet
Validated: 524837
EndChar

StartChar: "+MLAw6jDV 83"
Encoding: 83 20154 83
Width: 1024
LayerCount: 2
Fore
SplineSet
467.64453 834.50195 m 0
 460.56139 831.27426 470.9697 819.12956 478.1875 808.61133 c 1
 478.1875 808.61133 485.73171 789.3742 482.53906 760.82812 c 0
 478.77152 727.14323 477.52062 606.95952 476.32617 549.72266 c 0
 475.91194 529.81105 447.2207 497.54297 447.2207 497.54297 c 1
 361.26094 378.50875 292.38255 262.58048 169.91406 136.9082 c 1
 348.64258 259.61914 l 1
 498.36523 457.54297 l 1
 648.8418 235.60938 l 1
 854.08594 149.36133 l 1
 654.10156 354.42969 l 1
 542.66992 516.12305 l 1
 543.57812 517.32227 l 1
 559.375 770.29688 l 1
 566.2571 773.50732 572.47786 777.72792 574.41211 788.50586 c 0
 573.63406 797.42976 470.52279 834.06619 467.64453 834.50195 c 0
EndSplineSet
Validated: 524841
EndChar

StartChar: "+MLAw6jDV 84"
Encoding: 84 12540 84
Width: 1024
LayerCount: 2
Fore
SplineSet
353.76562 481.03711 m 1
 298.20508 417.3457 l 1
 324.62891 416.66992 l 1
 424.23242 379.4043 l 1
 526.34316 377.12324 624.18707 379.10347 687.12891 415.99219 c 1
 712.61381 437.84466 759.63514 464.23199 687.12891 465.45508 c 0
 576.99128 467.6963 466.43153 471.21007 353.76562 481.03711 c 1
EndSplineSet
Validated: 524841
EndChar

StartChar: "+MLAw6jDV 85"
Encoding: 85 65281 85
Width: 1024
LayerCount: 2
Fore
SplineSet
522.85352 789.94922 m 0
 522.02211 789.91632 521.2601 789.77866 520.56836 789.55078 c 0
 512.57352 786.91548 504.66148 751.98652 513.92578 745.05859 c 1
 453.92383 392.76758 l 2
 451.65717 364.35063 446.67065 329.45763 475.91992 376.14844 c 1
 605.93359 723.32031 l 1
 639.92428 736.75163 645.34273 745.52559 616.47852 754.58984 c 2
 616.47852 754.58984 544.11855 783.86423 527.5957 789.18555 c 0
 525.81895 789.76873 524.23919 790.00413 522.85352 789.94922 c 0
437.31641 332.32031 m 1
 424.72852 318.95508 l 1
 424.72852 318.95508 391.24418 230.66997 390.32031 225.91797 c 0
 379.49246 170.20664 431.54875 163.36603 440.08984 194.25781 c 1
 459.57902 234.05416 454.80813 259.2243 462.03516 291.62891 c 1
 454.75662 331.13808 445.74434 323.82167 437.31641 332.32031 c 1
EndSplineSet
Validated: 524841
EndChar

StartChar: "+MLAw6jDV 86"
Encoding: 86 20840 86
Width: 1024
LayerCount: 2
Fore
SplineSet
408.78906 789.43164 m 0
 401.83962 789.41234 396.72854 789.06149 394.69922 788.3125 c 2
 394.69922 788.3105 l 2
 392.22438 781.42571 397.75947 778.54454 404.18164 776.10737 c 1
 324.22461 480.68359 l 1
 141.28711 276.0625 l 2
 111.01914 247.44021 117.18893 242.13738 150.77344 254.38086 c 1
 389.2832 431.91016 l 1
 390.99023 437.85547 l 1
 423.73828 438.76562 l 1
 425.95312 365.44922 l 1
 354.05273 368.21094 l 1
 343.20312 357.37695 l 1
 306.45591 349.90052 326.73723 335.71535 318.81836 324.84766 c 1
 427.70312 307.70703 l 1
 429.36523 252.77539 l 1
 371.66797 254.38086 l 1
 278.16016 277.42188 l 1
 286.28711 274.70508 l 1
 257.02223 266.71217 247.27835 237.77462 263.24609 220.50781 c 1
 296.81246 195.93404 340.93539 192.47384 379.79688 178.49023 c 0
 424.29703 161.20831 467.16023 166.84261 509.88477 174.42578 c 0
 578.81314 192.26961 670.11464 208.7971 681.99219 229.99609 c 0
 692.86362 246.3571 689.00964 258.30058 681.99219 269.29492 c 1
 503.04492 254.48438 l 1
 502.72656 307.89844 l 1
 556.72354 310.7273 597.66462 316.16749 615.58789 326.21094 c 1
 622.97347 351.70669 629.96177 376.92206 602.03711 377.70117 c 2
 502.34961 368.21289 l 1
 501.89844 440.9668 l 1
 577.29688 435.9707 l 1
 589.19256 449.27528 589.38509 461.92825 585.0957 474.33398 c 1
 642.69141 387.18945 l 1
 698.53052 333.34252 752.57531 311.77985 806.6543 289.61719 c 1
 961.99439 245.02768 883.96285 283.8868 873.05664 295.04102 c 2
 745.67383 383.125 l 1
 480.13086 749.23633 l 1
 487.86719 762.22266 l 1
 501.74609 776.10547 l 2
 503.55637 783.34707 438.90333 789.51515 408.78906 789.43164 c 0
456.94727 668.25195 m 1
 566.26367 502.8418 l 1
 512.07734 495.17922 460.01868 496.01844 408.52148 499.10938 c 1
 456.94727 668.25195 l 1
EndSplineSet
Validated: 524841
EndChar

StartChar: "+MLAw6jDV 87"
Encoding: 87 28357 87
Width: 1024
LayerCount: 2
Fore
SplineSet
594.42969 855.94727 m 1
 594.43969 855.93927 l 1
 596.90649 708.9588 l 1
 533.11157 702.04084 l 1
 451.2561 716.9549 l 1
 405.17016 716.7967 l 1
 402.15454 357.38849 l 1
 391.0979 159.06232 l 1
 407.9436 182.67365 l 1
 407.9436 182.67365 420.53224 212.24165 433.2561 242.48615 c 1
 548.04126 333.06037 l 1
 609.16821 325.67951 l 1
 526.62524 160.83185 l 1
 516.87524 127.97638 l 1
 487.18819 81.93248 495.73107 80.4676 580.62719 168.0467 c 1
 648.19751 296.46466 l 1
 682.62711 232.70948 712.74495 164.3513 775.74438 131.12287 c 1
 812.76586 159.47052 l 1
 822.32836 361.81427 l 1
 808.21313 419.65412 l 1
 755.12915 261.96076 l 1
 731.01841 303.16112 714.68094 350.31086 703.36352 401.30451 c 1
 769.40844 526.8338 l 1
 766.40258 556.02808 750.90592 553.16099 738.5393 558.34552 c 1
 712.30102 531.71466 l 1
 689.26586 485.71271 l 1
 683.2122 534.89748 679.9963 586.24882 677.84008 638.41779 c 1
 683.18434 641.33082 686.90649 643.42169 686.90649 643.4217 c 2
 735.81469 681.64044 l 1
 729.54126 707.20685 l 1
 739.60571 730.5799 l 1
 695.23657 719.61701 l 1
 675.03344 717.42951 l 1
 674.32743 738.73683 673.70667 760.05403 672.83813 781.24982 c 1
 683.05102 841.25568 l 1
 683.05102 841.25568 630.01041 846.2676 623.14868 848.75177 c 0
 616.28695 851.23462 594.42993 855.94709 594.42993 855.94709 c 1
 594.42969 855.94727 l 1
749.17383 833.94141 m 0
 748.04083 833.92961 746.87489 833.89141 745.67773 833.82812 c 2
 702.41602 789.00977 l 1
 702.02294 773.94885 682.9504 749.49311 725.20703 755.85742 c 0
 743.15261 756.59033 761.15221 757.42291 785.45117 779.54492 c 1
 788.95551 810.19611 784.29691 834.30608 749.17383 833.94141 c 0
259.26172 781.94336 m 0
 242.64419 782.37354 233.31419 756.24072 242.77344 748.02344 c 1
 253.99085 717.37504 265.85476 686.65908 291.29102 654.70898 c 1
 331.29879 635.18687 345.638 650.23833 334.55469 699.5293 c 1
 266.80859 779.99219 l 2
 264.16905 781.26946 261.63624 781.87698 259.26172 781.94336 c 0
489.11914 638.20898 m 1
 489.12214 638.20851 558.22046 628.302 599.06445 621.9668 c 1
 599.65935 606.47119 600.43365 590.89433 601.37891 575.25586 c 1
 521.9043 569.46875 l 1
 483.6543 576.01758 l 1
 485.32749 595.10306 489.11914 638.20898 489.11914 638.20898 c 1
231.25977 604.58789 m 1
 204.01644 604.6941 207.03766 596.6146 201.89062 590.73438 c 1
 201.55349 571.80287 199.90161 552.53246 215.16992 537.61523 c 0
 240.75063 510.71392 263.0397 502.46477 284.19727 500.58203 c 1
 300.98396 494.248 313.38184 493.55238 300.31836 525.5293 c 2
 281.0957 573.70508 l 2
 265.08574 607.46514 247.98962 598.92752 231.25977 604.58789 c 1
375.97852 574.80859 m 2
 375.9785 574.80759 375.97853 574.80559 375.97852 574.80459 c 1
 375.98052 574.80859 l 1
 375.97852 574.80859 l 2
375.97852 574.80459 m 1
 247.79102 289.89443 l 1
 233.56366 299.83058 216.12726 315.98365 218.50391 293.67178 c 1
 253.74407 256.48886 284.89797 209.8144 332.73242 201.86904 c 1
 348.08398 229.48428 l 1
 375.47656 487.33779 l 1
 373.98828 511.68935 l 1
 388.33476 545.72869 375.75975 554.18524 375.97852 574.80459 c 1
604.20898 535.68349 m 1
 605.54467 519.45844 607.00968 503.19078 608.88281 486.74795 c 1
 605.46094 503.08974 l 1
 557.18945 466.23818 l 1
 564.6582 425.1249 l 1
 585.48438 410.22842 l 1
 616.29297 431.24795 l 1
 618.61133 416.23672 621.20626 401.1121 624.10742 385.86318 c 1
 558.23047 393.74013 l 1
 553.55469 516.13271 l 1
 604.20898 535.68349 l 1
478.89453 521.83584 m 1
 508.11914 518.95498 l 1
 510.82617 450.43154 l 1
 498.1965 457.3203 479.4994 463.61025 473.98242 466.11513 c 1
 476.3537 492.91471 476.74133 497.36109 478.89453 521.83584 c 1
467.47852 393.22256 m 1
 500.7793 376.20693 l 1
 497.68164 359.18545 l 1
 455.03711 295.24013 l 1
 456.60901 299.1962 459.27775 305.69582 459.42969 306.40029 c 0
 459.80764 308.15822 463.30063 346.58065 467.47852 393.22256 c 1
EndSplineSet
Validated: 524837
EndChar

StartChar: "+MLAw6jDV 88"
Encoding: 88 22855 88
Width: 1024
LayerCount: 2
Fore
SplineSet
461.53516 827.13672 m 1
 467.83374 803.34629 463.05402 786.20733 460.85547 767.51562 c 1
 460.85547 767.51562 457.84884 761.4652 457.44141 760.63086 c 2
 383.53125 757.16016 l 1
 353.80664 759.37109 l 1
 324.72204 731.9419 320.82249 704.72264 324.66211 691.62305 c 1
 424.21875 694.32812 l 1
 414.87765 676.19433 406.38367 660.18947 403.93945 657.74805 c 0
 397.16389 650.97214 252.16992 538.49219 252.16992 538.49219 c 1
 219.01477 517.54495 224.13505 514.73418 259.61914 526.30078 c 1
 329.74023 561.07227 l 1
 279.93945 517.47656 l 1
 540.13086 514.0918 l 1
 587.29883 517.25977 l 1
 595.70117 451.75195 l 1
 594.5779 405.67781 592.7054 359.60986 577.40625 313.53516 c 1
 532.53003 274.50564 497.86069 230.93445 438.49414 198.3457 c 1
 289.42969 100.10742 l 1
 242.68164 77.74414 l 1
 251.49248 73.09048 268.37476 76.62632 309.08594 95.36133 c 0
 413.4319 149.56512 519.64922 188.8294 622.12695 257.98047 c 1
 629.26799 256.79082 678.10508 459.24722 680.38867 463.96094 c 0
 682.37746 468.06944 683.64468 503.32821 682.41406 523.63867 c 1
 742.04883 527.64453 l 1
 776.05928 534.3976 777.66535 538.8466 788.13086 543.91797 c 1
 788.13086 543.91797 801.0067 556.11139 788.81055 556.78906 c 0
 776.61401 557.46356 658.72266 560.16016 658.72266 560.16016 c 1
 658.72266 560.16016 449.33213 568.97077 441.87891 569.64844 c 0
 436.03689 570.17421 384.7974 572.75473 359.50781 575.83984 c 1
 426.30273 608.96094 l 1
 492.99414 676.26172 l 1
 546.42457 649.11533 599.85278 618.59472 653.2832 604.2168 c 1
 698.92213 596.42942 727.48791 594.49365 710.19922 608.28125 c 1
 647.875 638.0918 l 2
 616.54952 652.75014 591.88901 675.41247 567.33984 698.20312 c 1
 574.00781 698.38867 l 1
 680.38867 739.04688 l 1
 718.83932 744.82832 719.06579 756.04003 728.49609 763.43359 c 1
 589.59961 766.83203 l 1
 551.89258 765.06836 l 1
 546.23633 802.74805 l 1
 553.96206 809.72417 551.00647 815.159 546.23633 820.34961 c 1
 461.53516 827.13672 l 1
345.67969 478.17969 m 1
 357.87109 444.98438 l 1
 362.05125 392.35948 369.4068 339.73618 389.70703 287.11133 c 1
 426.98047 306.08789 l 1
 506.25781 335.89844 l 1
 544.875 356.2207 l 1
 553.46095 382.18594 561.04387 410.40736 562.49219 452.43359 c 1
 552.73383 469.2678 538.13639 478.49094 515.74609 475.47461 c 2
 408.68359 472.08984 l 1
 408.68359 472.08984 355.83604 473.44617 348.38281 476.83398 c 2
 345.67969 478.17969 l 1
441.40625 422.69531 m 1
 453.14345 422.77811 465.87593 420.87796 479.15234 417.87891 c 1
 480.61578 397.66932 476.77567 382.7666 465.59961 375.19727 c 0
 448.91413 369.01218 431.78774 360.63581 416.8125 363.00391 c 1
 413.28998 383.0746 411.00702 402.7307 418.17188 419.23828 c 1
 424.64432 421.37062 431.64701 422.42742 439.07227 422.65234 c 0
 439.84577 422.67574 440.62377 422.68984 441.40625 422.69534 c 1
 441.40625 422.69531 l 1
EndSplineSet
Validated: 524841
EndChar

StartChar: "+MLAw6jDV 89"
Encoding: 89 39318 89
Width: 1024
LayerCount: 2
Fore
SplineSet
602.90625 769.17969 m 1
 602.89625 769.17169 l 1
 580.08529 769.18339 523.35678 690.04091 524.4861 662.92559 c 1
 488.55446 660.34747 l 1
 439.37868 654.117 l 1
 450.64129 657.84312 452.07943 665.25443 456.89039 671.4002 c 0
 475.22148 710.42202 458.02403 719.73734 455.39235 741.23028 c 1
 428.84759 755.515 402.28103 767.85177 375.32204 745.5545 c 0
 356.05438 734.32859 345.70139 720.22699 349.04665 701.70098 c 1
 396.29274 648.66387 l 1
 330.39625 640.32012 l 1
 291.64821 585.84942 l 1
 300.76329 582.72156 304.63538 580.33759 434.77321 560.10333 c 1
 435.71852 538.16192 l 1
 400.09194 536.15971 383.36491 535.92794 368.5193 535.42364 c 1
 369.45398 545.90045 353.22628 550.12386 348.29665 550.57793 c 0
 345.33992 550.85686 341.25881 549.24288 336.06422 545.69122 c 0
 307.07411 533.98757 298.86841 519.26431 282.90407 505.66973 c 1
 274.50671 477.64385 297.20314 461.29021 329.48219 448.5252 c 1
 349.95438 351.50412 353.47247 253.74714 360.37086 156.14239 c 1
 367.61168 127.971 375.43692 104.61777 390.94508 146.25176 c 0
 392.21425 152.6875 393.19675 158.63207 394.365 164.88458 c 1
 629.04079 164.67169 l 1
 628.85524 166.73809 l 1
 628.96071 166.74209 l 1
 657.08455 236.6226 689.21681 295.54439 711.15016 382.40224 c 1
 714.82008 437.85385 700.7229 474.95565 689.56422 515.0917 c 1
 702.9154 519.71485 715.8854 525.28228 724.76539 541.06045 c 0
 728.65339 551.0133 732.42067 560.89832 711.24586 554.7499 c 1
 711.24586 554.7499 625.74553 549.45262 541.98024 544.42373 c 1
 540.53688 577.94912 l 1
 672.64039 609.28701 l 1
 724.39235 664.31826 l 1
 756.22277 683.7673 738.62895 677.98213 732.07789 677.82998 c 2
 601.68922 668.48037 l 1
 616.75442 679.76549 633.54733 685.11393 646.49977 703.65029 c 1
 667.89821 719.32802 l 2
 681.82501 725.71013 686.57573 732.47443 676.14235 739.8749 c 2
 608.78688 766.49795 l 2
 607.2573 768.33817 605.26558 769.17693 602.90602 769.17959 c 1
 602.90625 769.17969 l 1
608.07227 496.38672 m 1
 612.41797 483.41326 613.55015 468.80473 617.22461 452.45117 c 1
 405.80664 443.3418 l 1
 402.21042 458.74152 397.66572 472.47847 392.11133 484.46094 c 1
 608.07227 496.38672 l 1
627.61523 384.73047 m 1
 618.19141 345.96094 l 1
 414.52148 337.18555 l 1
 414.88432 350.34889 415.00949 363.11021 414.55858 374.81836 c 1
 627.61523 384.73047 l 1
600.11719 271.5918 m 1
 590.95703 233.86523 l 1
 404.42383 225.82812 l 1
 406.32002 238.78487 408.01809 251.34529 409.38477 263.375 c 1
 600.11719 271.5918 l 1
EndSplineSet
Validated: 524837
EndChar

StartChar: "+MLAw6jDV 90"
Encoding: 90 38936 90
Width: 1024
LayerCount: 2
Fore
SplineSet
536.71094 769.125 m 1
 510.80719 743.32493 506.20636 711.13207 491.66992 681.92188 c 1
 562.32617 683.18164 l 1
 586.48047 623.48828 l 1
 552.28897 626.01894 527.60125 626.76007 508.63672 627.75586 c 0
 481.43546 630.33429 479.91845 633.10517 486.79492 605.59766 c 2
 499.52344 554.66992 l 1
 466.25112 596.18603 426.99067 645.04273 410.96094 664.26367 c 1
 426.52539 688.63477 l 1
 455.30536 695.65949 440.13688 702.68426 438.00977 709.70898 c 0
 432.72863 714.66034 345.68127 741.10714 345.06445 737.49414 c 2
 346.98633 718.32812 l 1
 227.21094 418.40625 l 1
 199.42158 364.83549 209.0091 365.43146 243.49805 402.11914 c 1
 274.08789 449.99414 l 1
 281.67151 432.50294 295.23437 401.16406 295.23438 401.16406 c 0
 299.70556 394.94421 303.77022 385.59409 311.72461 406.37109 c 1
 396.81445 433.25977 l 1
 387.88608 411.03554 382.74248 387.18941 361.94336 370.05273 c 1
 358.48633 374.33398 l 1
 308.33313 391.59599 293.72526 378.19885 315.8457 333.125 c 2
 315.8457 333.125 369.47413 217.83493 370.93945 213.34961 c 0
 384.62097 171.46364 429.67551 168.63978 413.57812 220.04688 c 1
 398.72461 324.50586 l 1
 392.5625 332.14258 l 1
 429.86523 367.14453 l 1
 441.01257 402.82924 487.20598 394.54688 454.30859 485.48828 c 1
 469.20938 496.96754 459.63066 507.00744 460.91797 517.68555 c 1
 476.90991 500.98672 498.03111 486.77018 504.29492 507.21289 c 1
 521.34399 418.80214 498.3143 335.42134 495.50195 250.71094 c 1
 517.97852 268.125 l 2
 519.68875 268.28412 528.62575 269.03405 531.92188 269.32617 c 1
 531.92188 244.96875 l 1
 512.6614 213.24997 487.33415 175.46279 464.85352 140.52344 c 1
 499.34775 155.73226 567.44142 172.06855 586.53711 228.68164 c 1
 595.56678 238.8398 562.80505 262.24112 542.74219 270.26562 c 1
 576.42496 273.2493 628.41083 277.82588 671.64258 280.79492 c 1
 714.94922 249.75586 l 1
 761.89844 476.85352 l 2
 770.07545 521.60206 768.48241 559.83631 746.08984 584.20508 c 1
 770.51953 586.09961 l 1
 793.60111 604.06533 835.25977 626.8609 798.30469 629.2168 c 2
 798.30469 629.2168 733.02056 629.49837 655.82031 627.49609 c 1
 651.98633 684.77344 l 1
 653.62305 684.77344 l 1
 738.90234 711.60547 l 1
 794.13749 719.35699 777.7936 731.87885 779.14062 743.22266 c 1
 791.60938 762.38672 l 1
 536.71094 769.125 l 1
369.04492 598.6543 m 1
 450.47656 520.93945 l 1
 456.65234 519.01758 l 1
 388.36914 498.59375 l 1
 387.86133 528.4043 l 1
 395.60142 530.85264 390.18287 534.40322 387.70312 537.70312 c 0
 376.40876 556.25278 360.91438 560.10102 344.24023 559.82031 c 1
 369.04492 598.6543 l 1
665.07812 577.89844 m 1
 664.91992 528.15625 l 1
 583.48633 522.0957 l 1
 583.05093 538.15083 582.30815 554.43689 580.94336 571.3457 c 1
 665.07812 577.89844 l 1
329.24023 536.34375 m 1
 351.05273 487.44141 l 1
 285.47266 467.82812 l 1
 329.24023 536.34375 l 1
664.75977 477.86523 m 1
 664.57422 420.54492 l 1
 579.74414 417.39258 l 1
 581.57646 435.40796 582.83158 453.46721 583.44727 471.80469 c 1
 664.75977 477.86523 l 1
664.39648 365.625 m 1
 664.26562 322.88477 l 1
 630.42411 322.28465 594.52448 321.67697 564.69531 321.17773 c 1
 567.56813 335.04316 570.00981 348.66006 572.25977 362.19727 c 1
 664.39648 365.625 l 1
645.95508 275.63086 m 1
 629.68988 269.108 614.25617 262.01727 631.57812 232.51367 c 1
 683.31641 169.26367 l 2
 697.09656 149.9004 713.8803 150.06609 731.23438 153.93164 c 0
 750.77151 160.76782 775.43707 164.47 763.80859 190.35156 c 2
 742.73438 224.84961 l 1
 645.95508 275.63086 l 1
EndSplineSet
Validated: 524841
EndChar

StartChar: "+MLAw6jDV 91"
Encoding: 91 26368 91
Width: 1024
LayerCount: 2
Fore
SplineSet
340.00195 812.39844 m 2
 338.95148 812.41434 337.91822 812.36974 336.90039 812.27148 c 2
 336.90039 812.26548 l 1
 322.6493 810.86075 311.44979 798.76738 299.16406 790.48424 c 1
 345.85597 724.79561 306.2341 671.79894 297.13867 614.31431 c 1
 301.17407 601.88787 294.31968 588.01977 349.99023 582.47838 c 1
 362.86328 596.03111 l 1
 603.39648 599.41588 l 1
 633.56505 634.42107 690.64615 655.61583 655.56836 724.07994 c 1
 644.05664 776.9315 l 1
 682.1641 793.66056 670.30074 799.97974 667.0957 808.10142 c 1
 354.05469 799.29283 l 2
 343.94105 798.0129 340.67204 802.60679 343.20508 812.16588 c 1
 342.11903 812.30661 341.05243 812.38236 340.00195 812.3983 c 2
 340.00195 812.39844 l 2
583.75586 762.71289 m 1
 576.76953 739.4668 l 1
 384.3418 718.66797 l 1
 375.73633 737.63281 l 1
 379.80159 737.63281 583.75586 762.71289 583.75586 762.71289 c 1
574.4707 689.5293 m 1
 576.29297 663.7793 l 1
 385.22461 654.97266 l 1
 386.0957 676.75781 l 1
 574.4707 689.5293 l 1
726.80469 588.80078 m 1
 726.19588 588.80278 725.49585 588.72058 724.69336 588.58398 c 0
 608.29601 564.62998 418.36282 570.08871 261.90625 562.1582 c 0
 245.15274 564.21884 217.40636 494.93096 226.67188 491.68945 c 1
 228.17197 476.66224 245.98302 486.11089 257.16211 485.60156 c 2
 274.85156 486.25391 l 1
 276.06445 288.35938 l 1
 249.03125 280.9668 l 1
 194.82227 268.09375 l 1
 198.12897 246.18814 200.28117 224.27882 217.18359 202.37109 c 1
 231.41406 197.62695 l 1
 311.54723 214.9952 346.84497 240.66617 394.98633 263.95898 c 1
 394.80113 257.88279 394.0332 233.54102 394.0332 233.54102 c 1
 397.41992 175.2793 l 1
 385.90625 110.2207 l 1
 449.58984 208.47461 l 1
 451.36914 227.68359 l 1
 465.57374 233.02157 497.30486 252.87321 532.54102 275.61523 c 1
 622.60829 224.2047 699.12547 208.93085 780.25 181.36914 c 1
 808.04238 178.23678 862.89478 164.38765 800.57227 196.96094 c 1
 601.4043 320.10742 l 1
 624.26061 334.75302 645.27867 347.88792 659.63672 355.5 c 0
 727.3942 401.73643 692.7228 411.39947 690.80469 432.75195 c 1
 677.25195 467.98633 l 1
 677.25195 467.98633 707.56813 491.62412 704.35742 490.34766 c 0
 652.04309 469.54249 556.87617 469.80164 509.41211 477.33008 c 0
 499.30301 478.934 503.34712 478.05754 501.50195 483.01367 c 0
 498.14838 492.0114 486.02049 494.09479 482.4375 485.53125 c 0
 475.70087 474.30239 466.49822 458.613 456.40234 441.21289 c 1
 454.98633 492.83594 l 1
 485 492.04102 l 1
 486.24414 491.96092 l 1
 553.27148 490.18553 l 2
 598.07325 488.98791 655.39661 508.66634 664.38281 520.80467 c 1
 664.38281 520.80467 698.97373 546.96694 703.00195 548.57615 c 0
 713.03093 552.584 738.36133 587.4366 727.38672 588.75584 c 1
 727.38272 588.76954 l 2
 727.19951 588.78944 727.00753 588.80024 726.8046 588.80074 c 1
 726.80469 588.80078 l 1
401.51172 490.86328 m 1
 401.37944 481.20859 399.6144 473.24234 399.18164 456.52734 c 1
 330.75391 453.99609 l 1
 332.75 488.34766 l 1
 401.51172 490.86328 l 1
609.50195 417.14258 m 1
 596.98567 390.37672 579.71892 367.57248 560.26758 346.58594 c 1
 538.01561 364.91967 526.56589 391.04651 516.18164 414.90039 c 1
 609.50195 417.14258 l 1
491.43359 414.30664 m 1
 483.05476 403.04569 477.47912 389.60108 476.69336 372.43359 c 1
 486.02388 348.34417 497.70671 324.24763 512.31836 300.1582 c 1
 493.73027 283.23953 474.98174 266.45913 457.71875 248.43555 c 0
 455.83617 246.34305 454.25451 244.49402 452.75781 242.7207 c 1
 459.75781 318.22266 l 1
 457.1543 413.48242 l 1
 491.43359 414.30664 l 1
399.54492 413.67188 m 1
 399.23878 402.9449 398.99395 393.62269 398.66211 382.31445 c 1
 331.14453 383.54297 l 1
 331.59375 413.25391 l 1
 399.54492 413.67188 l 1
397.86914 347.29688 m 1
 397.35399 330.38939 397.26862 336.31385 396.79883 321.34961 c 1
 329.91797 303.06641 l 1
 330.65234 342.82812 l 1
 397.86914 347.29688 l 1
EndSplineSet
Validated: 524841
EndChar

StartChar: "+MLAw6jDV 92"
Encoding: 92 24460 92
Width: 1024
LayerCount: 2
Fore
SplineSet
547.50781 811.08008 m 1
 542.40025 811.21129 538.06754 804.4076 535.04297 785.9043 c 1
 448.24414 657.42578 l 1
 427.68164 661.69141 l 2
 373.99119 673.71608 403.18154 638.47343 414.99219 613.14258 c 0
 425.9222 583.8681 428.3038 557.64982 459.26758 521.21094 c 1
 397.30469 493.64453 l 1
 361.34766 485.73828 l 1
 353.38281 486.31445 l 1
 410.41992 535.94727 l 1
 418.35938 549.44922 l 2
 425.32504 554.42659 353.94917 646.25093 346.00195 644.83984 c 1
 341.49805 625.22266 l 1
 113.39453 310.74609 l 1
 77.227098 270.4332 62.582668 247.57818 118.61719 282.04883 c 1
 253.73828 399.62305 l 1
 268.44531 197.78516 l 1
 274.33984 156.25 l 1
 286.21436 109.59589 291.10519 144.9296 296.60742 173.08984 c 2
 297.45703 182.08398 l 1
 300.60385 180.74157 306.68568 179.84511 317.10742 179.60742 c 0
 380.21419 191.70433 443.35004 204.12921 507.96484 233.31445 c 1
 533.875 264.71289 l 1
 631.58594 170.70898 l 1
 897.41406 146.55859 l 2
 937.75939 142.85186 968.24745 165.14407 911.39844 172.50391 c 0
 902.37293 173.67496 692.9707 230.38086 692.9707 230.38086 c 1
 564.03125 301.25977 l 1
 619.01758 367.88086 l 1
 603.09766 406.68164 l 1
 636.27888 417.80241 648.48863 426.50927 641.98633 433.06055 c 1
 598.48586 446.49446 544.70664 436.94863 490.97461 427.50586 c 1
 498.93359 443.59961 l 1
 650.00977 501.14258 l 1
 678.95117 460.44336 l 1
 707.65631 448.34486 723.87489 458.82863 730.29102 487.03906 c 0
 736.74116 500.71831 731.58952 520.37174 719.85938 543.41016 c 0
 700.94473 579.14056 657.35933 592.48679 620.11133 611.58398 c 1
 605.76953 602.29126 561.60298 615.32491 607.45508 560.97266 c 1
 620.46289 542.66797 l 1
 574.22461 532.51953 l 1
 546.83789 577.5918 l 1
 636.46289 670.4707 l 1
 651.17432 671.95244 656.97245 676.12863 653.5293 683.10742 c 0
 645.47664 705.80248 629.11252 723.8558 606.73242 738.55078 c 1
 586.34375 689.13477 l 1
 520.45898 621.00391 l 1
 505.54883 645.55859 l 1
 483.11328 650.21289 l 1
 573.26953 730.0332 l 1
 582.52786 750.33756 570.43785 772.80957 564.62305 794.64453 c 1
 564.62305 794.64653 l 1
 558.49776 803.88404 552.61537 810.94892 547.50781 811.08013 c 1
 547.50781 811.08008 l 1
308.13281 803.02148 m 1
 308.13281 803.01948 l 2
 306.68034 793.0581 316.82505 791.38391 303.55664 772.97847 c 2
 198.88086 582.11914 l 2
 192.49308 562.2564 204.71626 564.39768 224.85547 575.89844 c 1
 366.08398 710.48047 l 1
 377.5957 709.64453 l 1
 395.20338 719.96228 385.32627 731.8323 377.5586 743.58398 c 1
 383.92332 754.19649 315.39745 801.69695 308.13282 803.02148 c 2
 308.13281 803.02148 l 1
342.87305 477.17578 m 1
 371.05664 413.94531 l 1
 423.57031 425.22852 l 1
 308.44922 298.45898 l 1
 320.96289 431.05859 l 1
 320.1582 457.41016 l 1
 342.87305 477.17578 l 1
470.89062 386.88281 m 1
 536.36523 382.88867 l 1
 500.82617 336.00391 l 1
 457.5 359.81641 l 1
 470.89062 386.88281 l 1
447.16016 348.12109 m 1
 483.50781 313.1543 l 1
 462.13477 284.95508 l 1
 316.7168 205.30078 l 2
 315.67692 200.97211 304.15693 195.0513 298.20312 189.97656 c 1
 305.85742 271.03711 l 1
 307.11523 269.91211 l 1
 353.8249 294.1303 400.63757 311.58584 447.16016 348.12109 c 1
EndSplineSet
Validated: 524841
EndChar

StartChar: "+MLAw6jDV 93"
Encoding: 93 12354 93
Width: 1024
LayerCount: 2
Fore
SplineSet
484.32227 742.73438 m 1
 466.93945 735.55078 l 1
 468.30859 698.17969 l 1
 457.7168 651.93164 l 1
 444 611.77734 l 1
 436.18945 583.71484 l 1
 426.41797 567.09961 l 1
 418.58984 565.96094 l 1
 326.41797 576.61523 l 1
 293.55469 544.97656 l 1
 328.26562 526.5957 l 1
 407.25 509.09961 l 1
 406.63477 403.45703 l 1
 348.03906 343.39258 l 1
 305.98633 287.80273 l 1
 294.82227 242.04102 l 1
 352.75 150.54297 l 1
 404.33203 165.70898 l 1
 473.8125 201.81836 l 1
 512.54883 165.82031 l 1
 562.48438 148.65234 l 1
 561.78711 170.76953 l 1
 539.16016 216.50195 l 1
 525.7793 245.5332 l 1
 567.4375 299.51758 l 1
 605.39844 360.06055 l 1
 609.02539 367.73242 l 1
 637.01953 340.92578 l 1
 654.07812 292.10938 l 1
 653.44141 213.4043 l 1
 632.55078 170.57422 l 1
 601.29492 138.5293 l 1
 637.98047 141.96289 l 1
 637.98047 141.96289 686.10553 154.45155 702.70117 171.36523 c 0
 717.15654 186.09711 723.75775 207.87241 727.23828 228.21484 c 0
 732.91834 261.41746 731.32029 297.19253 720.31445 329.02734 c 0
 712.3302 352.12147 679.09375 389.64648 679.09375 389.64648 c 1
 638.17383 419.66797 l 1
 654.02734 439.40625 l 1
 642.50195 484.94727 l 1
 611.62305 488.31055 l 1
 594.42773 485.35742 l 1
 582.07422 454.81055 l 1
 569.51758 433.2207 l 1
 507.60352 435.18164 l 1
 489.93359 431.65625 l 1
 491.13672 469.76172 l 1
 498.4043 504.66211 l 1
 532.70117 511.59766 l 1
 532.70117 511.59766 582.195 516.7408 601.39844 530.75 c 0
 612.71185 539.00509 624.49219 565.84961 624.49219 565.84961 c 1
 629.40625 590.52344 l 1
 541.99805 580.97461 l 1
 504.0957 579.5625 l 1
 524.60742 687.29688 l 1
 538.54102 717.9707 l 1
 484.32227 742.73438 l 1
538.49219 391.74414 m 1
 544.30859 391.74414 l 1
 540.52539 366.11328 l 1
 530.37109 341.02734 l 1
 504.80664 310.48633 l 1
 497.08203 301.43555 l 1
 481.61914 316.57422 l 1
 473.46094 359.75 l 1
 473.55274 378.23047 l 1
 490.16798 388.51953 l 1
 496.87501 390.53711 l 1
 538.49219 391.74414 l 1
413.95312 344.38867 m 1
 424.19727 308.24414 l 1
 436.02539 272.22266 l 1
 447.55273 246.73242 l 1
 432.97266 230.80664 l 1
 394.30469 212.42383 l 1
 375.66602 207.78516 l 1
 351.14258 237.52539 l 1
 355.35742 264.25 l 1
 380.89062 308.50391 l 1
 413.95312 344.38867 l 1
EndSplineSet
Validated: 524841
EndChar

StartChar: "+MLAw6jDV 94"
Encoding: 94 12356 94
Width: 1024
LayerCount: 2
Fore
SplineSet
306.88477 612.94336 m 1
 305.05859 600.73633 l 1
 292.14648 512.75391 l 1
 284.3125 405.49023 l 1
 328.03125 271.64258 l 1
 417.22656 160.32227 l 1
 417.22656 160.32227 441.01236 186.49456 446.87891 202.71289 c 0
 458.02292 233.51268 455.11523 300.62305 455.11523 300.62305 c 1
 415.97656 267.36523 l 1
 362.67969 401.38672 l 1
 361.83203 458.11133 l 1
 378.70312 538.04688 l 1
 306.88477 612.94336 l 1
609.31641 537.7793 m 1
 620.17773 521.61328 l 1
 646.30859 482.87695 l 1
 657.08789 443.15039 l 1
 662.21289 336.42578 l 1
 660.43555 245.14844 l 1
 684.51562 224.17578 l 1
 723.47656 231.33789 l 1
 738.80273 272.52344 l 1
 739.6875 323.69141 l 1
 736.21289 402.50586 l 1
 736.21289 402.50586 740.96576 469.28178 721.83984 493.16016 c 0
 696.618 524.65299 609.31836 537.7793 609.31836 537.7793 c 1
 609.31641 537.7793 l 1
EndSplineSet
Validated: 524841
EndChar

StartChar: "+MLAw6jDV 95"
Encoding: 95 12358 95
Width: 1024
LayerCount: 2
Fore
SplineSet
454.88086 681.87305 m 1
 410.52539 679.95898 l 1
 390.88477 599.36328 l 1
 458.26172 607.16406 l 1
 580.71289 580.98633 l 2
 581.80264 580.16564 602.98785 564.41909 625.05859 548.33984 c 0
 636.37382 540.09617 647.6124 531.99474 656.00586 526.16992 c 0
 660.20291 523.25636 663.67035 520.92784 666.19727 519.35938 c 0
 667.46027 518.58423 668.39717 518.01457 669.54297 517.49023 c 0
 670.11519 517.2166 670.2969 516.73898 672.65234 516.69336 c 0
 672.94866 516.68536 673.71093 516.69336 673.72461 516.69336 c 1
 673.72461 516.69536 675.14124 517.03396 675.15039 517.05664 c 0
 675.15039 517.06064 676.92089 518.12891 676.92773 518.12891 c 2
 676.92773 518.12891 678.44468 519.95312 678.44922 519.95312 c 0
 678.45322 519.95312 679.1543 521.98242 679.1543 521.98242 c 2
 679.1563 521.98242 679.2227 523.57813 679.2227 523.57812 c 1
 679.2217 523.57812 679.1325 524.39896 679.04106 524.69531 c 0
 678.94996 525.01468 678.85915 525.287 678.78129 525.49219 c 0
 678.02213 527.38441 677.76566 527.43079 677.08402 528.47266 c 0
 676.40008 529.52136 675.51159 530.84749 674.4102 532.44336 c 0
 672.21021 535.63502 669.20511 539.909 665.64457 544.90625 c 0
 658.52322 554.89849 649.20958 567.76615 639.95121 580.52148 c 0
 621.43508 606.0322 603.12309 631.01367 603.12309 631.01367 c 1
 603.12309 631.01367 602.57317 632.0174 602.14457 632.35938 c 0
 574.60829 654.63735 505.08207 675.59766 505.08207 675.59766 c 1
 455.43559 681.7832 l 1
 454.88086 681.87305 l 1
596.51367 513.31445 m 1
 596.51167 513.25005 l 1
 594.38081 513.25005 l 2
 556.27962 512.13294 480.08003 509.77349 480.08003 509.77349 c 1
 415.1562 493.34966 l 1
 344.00972 482.39653 l 1
 328.50581 410.12896 l 1
 422.10542 411.0645 l 1
 559.65034 432.56646 l 1
 614.41987 430.20903 l 1
 625.9062 379.63286 l 1
 589.6562 236.25786 l 1
 548.07026 187.99028 l 1
 518.54683 166.6563 l 1
 453.27925 146.30864 l 1
 389.54097 131.39263 l 1
 559.42573 145.37896 l 1
 559.42573 145.37896 627.82958 193.61943 649.99995 227.92778 c 0
 676.14944 268.39609 691.63685 317.25846 694.873 365.33208 c 0
 696.88378 395.21994 694.64232 428.38039 678.67378 453.72466 c 0
 660.6378 482.34725 596.51362 513.3145 596.51362 513.3145 c 1
 596.51367 513.31445 l 1
EndSplineSet
Validated: 524837
EndChar

StartChar: "+MLAw6jDV 96"
Encoding: 96 12360 96
Width: 1024
LayerCount: 2
Fore
SplineSet
466.24023 721.63281 m 1
 457.59961 694.23828 l 1
 469.68359 674.38477 l 1
 505.08008 626.03516 l 1
 561.20117 560.42188 l 1
 561.20117 560.42188 578.90892 563.46231 585.38477 569.06055 c 0
 593.27302 575.8798 600.05859 596.6875 600.05859 596.6875 c 1
 582.79492 640.72656 l 1
 582.79492 640.72656 562.98797 678.58079 547.39844 692.51758 c 0
 535.49459 703.15943 520.19157 709.80792 505.08008 714.96484 c 0
 492.64778 719.20747 466.24023 721.63281 466.24023 721.63281 c 1
543.9375 527.61328 m 1
 504.22852 512.08789 l 1
 504.22852 512.08789 487.42226 511.85946 479.19336 510.35547 c 0
 454.65266 505.87038 430.06322 499.48367 407.5293 488.7793 c 0
 395.92135 483.26512 375.58984 467.18555 375.58984 467.18555 c 1
 353.99805 447.33008 l 1
 340.19336 411.93164 l 1
 356.58789 392.94922 l 1
 417.89062 409.3418 l 1
 402.34766 345.46484 l 1
 402.34766 345.46484 369.53351 306.90018 362.63867 283.29688 c 0
 357.55566 265.89608 362.63867 228.91211 362.63867 228.91211 c 1
 357.45703 171.07031 l 1
 389.39453 145.16406 l 1
 412.70898 195.23438 l 1
 467.56055 229.04688 l 1
 467.56055 229.04688 497.69642 155.79746 525.80469 129.62109 c 0
 545.30225 111.46496 597.46875 94.22461 597.46875 94.22461 c 1
 637.17969 91.63281 l 1
 637.17969 91.63281 651.72303 114.85494 661.3457 124.44141 c 0
 667.91535 130.98437 683.80664 140.85352 683.80664 140.85352 c 1
 589.69727 177.9707 l 1
 558.61133 210.7793 l 1
 536.16602 248.76562 l 1
 536.16602 248.76562 509.39009 275.11038 492.14648 280.70703 c 0
 485.84613 282.75191 472.27344 280.70703 472.27344 280.70703 c 1
 424.79297 254.81641 l 1
 467.09375 345.46484 l 1
 501.63867 400.71875 l 1
 524.08398 430.06641 l 1
 562.93945 444.74023 l 1
 575.02344 472.36719 l 1
 530.13281 508.63281 l 1
 543.9375 527.61328 l 1
EndSplineSet
Validated: 524841
EndChar

StartChar: "+MLAw6jDV 97"
Encoding: 97 12362 97
Width: 1024
LayerCount: 2
Fore
SplineSet
442.78711 674.125 m 1
 442.78711 674.125 453.02496 630.57012 454.67578 608.35156 c 0
 456.19277 587.93433 452.80469 546.95898 452.80469 546.95898 c 1
 330.66992 544.0332 l 1
 289.89453 462.17188 l 1
 447.88477 475.33008 l 1
 456.36914 378.85352 l 1
 347.6543 299.91797 l 1
 443.03516 188.77344 l 1
 498.83789 139.13867 l 1
 522.62891 335.00586 l 1
 610.95508 346.69141 l 1
 648.32812 289.69141 l 1
 614.35938 193.21289 l 1
 570.17969 150.82227 l 1
 663.61914 172.75391 l 1
 663.61914 172.75391 722.15565 231.09213 726.45898 269.23047 c 0
 729.95206 300.18529 714.6938 333.49003 694.18359 356.9375 c 0
 670.15041 384.41338 597.35742 408.0957 597.35742 408.0957 c 1
 512.43555 402.24023 l 1
 529.41992 472.41406 l 1
 660.21484 492.87305 l 1
 680.60352 545.49023 l 1
 529.41992 557.19141 l 1
 517.5332 644.89648 l 1
 442.78711 674.125 l 1
696.73242 489.2207 m 1
 667.59491 468.93681 655.85047 438.21784 640.68164 409.55273 c 1
 640.68164 409.55273 688.42483 420.08251 708.63672 432.94141 c 0
 718.9362 439.49397 734.10547 459.25586 734.10547 459.25586 c 1
 725.06601 477.78949 711.62943 485.33089 696.73242 489.2207 c 1
459.77148 311.61914 m 1
 457.22461 248.03906 l 1
 418.1582 294.8125 l 1
 459.77148 311.61914 l 1
EndSplineSet
Validated: 524841
EndChar

StartChar: "+MLAw6jDV 98"
Encoding: 98 33 98
Width: 1024
LayerCount: 2
Fore
SplineSet
319.42578 754.87109 m 1
 318.76131 754.87909 318.09748 754.87709 317.44141 754.85939 c 0
 308.6937 754.62354 301.16378 751.80156 307.69141 739.23048 c 0
 313.1481 728.72147 307.38504 707.87724 305.00977 696.26368 c 0
 299.60319 669.80706 286.38307 641.15273 277.01953 615.82423 c 0
 263.54314 579.36906 243.70703 511.26759 243.70703 511.26759 c 1
 212.09961 404.21876 l 1
 195.13281 317.60548 l 1
 195.13281 317.60548 197.69537 297.29458 205.66797 295.3711 c 0
 211.88851 293.86957 220.88867 307.05665 220.88867 307.05665 c 1
 257.18164 389.59376 l 1
 280.67578 440.7422 l 1
 330.22656 544.56642 l 1
 383.70117 646.78126 l 1
 405.23242 690.99415 l 1
 429.69643 701.06923 431.51469 716.04995 422.85156 721.22071 c 0
 395.64811 737.45897 366.94795 752.46744 331.72852 754.0586 c 0
 328.8002 754.19618 324.07711 754.81503 319.42578 754.8711 c 1
 319.42578 754.87109 l 1
179.89844 246.9043 m 1
 179.89844 246.9043 162.13289 239.6922 156.03711 230.50391 c 0
 149.8475 221.17516 146.80315 207.61265 145.5293 194.80859 c 0
 144.21383 181.58732 142.96099 165.39135 148.76562 155.00781 c 0
 153.77922 146.03892 163.4938 142.53763 171.4082 143.89062 c 0
 179.94603 145.35024 187.74922 154.19903 193.22266 163.79688 c 0
 200.3113 176.22646 205.57149 192.73547 205.35742 208.85156 c 0
 205.22665 218.63944 197.27148 235.78516 197.27148 235.78516 c 1
 189.1875 241.04102 l 1
 179.89844 246.9043 l 1
EndSplineSet
Validated: 524841
EndChar

StartChar: "+MLAw6jDV 99"
Encoding: 99 12398 99
Width: 1024
LayerCount: 2
Fore
SplineSet
526.55859 540.46484 m 1
 508.02091 540.52994 488.85671 537.61702 468.91016 530.95508 c 0
 396.97705 504.38326 352.5447 454.55334 334.02539 382.80664 c 1
 328.73828 343.94141 l 1
 326.43617 283.87765 355.39365 227.24736 385.37891 170.73828 c 1
 395.89809 163.85557 406.37879 158.36589 416.41797 167.52539 c 0
 476.87076 224.62483 543.61283 296.2914 553.23438 344.85156 c 1
 553.23438 344.85156 548.67126 475.43069 546.76562 483.81055 c 1
 552.95914 500.0446 568.74681 488.12878 582.20117 483.03711 c 1
 596.69982 462.16724 617.93983 460.81158 620.28125 404.75586 c 1
 608.39879 296.08458 566.07589 222.36523 537.58203 132.75781 c 0
 534.55279 125.14411 519.01013 103.04867 513.9668 98.96484 c 1
 520.14148 102.37105 550.3726 117.67527 560.55664 122.52344 c 0
 609.23166 157.38542 641.74769 221.2329 678.16797 278.0957 c 0
 690.84035 298.39762 695.04961 323.50918 695.18945 350.91797 c 0
 698.86164 421.89001 651.83849 492.53306 610.69531 520.79883 c 0
 591.49682 529.32813 571.82925 535.63297 551.46289 538.58984 c 1
 551.46289 538.60154 l 1
 543.28033 539.78946 534.98481 540.43522 526.55859 540.46482 c 1
 526.55859 540.46484 l 1
513.9668 98.96484 m 1
 513.09194 98.48224 512.69346 98.23618 512.91016 98.29492 c 0
 513.17119 98.36489 513.54512 98.62339 513.9668 98.96484 c 1
459.48242 461.68164 m 1
 459.48242 461.68164 460.08138 375.98505 446.94336 335.97656 c 0
 439.95841 314.70315 412.68945 278.18945 412.68945 278.18945 c 1
 401.70199 315.32327 398.9635 355.2665 407.83594 399.16602 c 1
 410.23707 437.14928 441.25867 452.76876 459.48242 461.68164 c 1
EndSplineSet
Validated: 524841
EndChar

StartChar: "+MLAw6jDV 100"
Encoding: 100 27770 100
Width: 1024
LayerCount: 2
Fore
SplineSet
444.30078 792.48242 m 1
 433.88672 762.27344 l 1
 457.83594 702.91992 l 1
 457.83594 702.91992 458.65017 689.86185 458.80664 687.29102 c 1
 425.55078 687.29102 l 1
 374.53125 678.95508 l 1
 352.6582 598.77148 l 1
 403.67969 592.51367 l 1
 464.375 598.58008 l 1
 466.67522 562.70235 468.85461 529.70473 469.29492 527.94336 c 0
 469.6124 526.66078 467.24519 509.87768 464.1543 489.11719 c 1
 398.48047 489.40234 l 1
 361.02539 491.79688 l 1
 378.68359 552.94922 l 1
 331.03711 493.53516 l 1
 288.08984 492.53711 l 1
 304.74805 460.75391 l 1
 205.80078 337.37305 l 1
 119.35938 293.62891 l 1
 87.074219 289.46094 l 1
 84.998047 266.54297 l 1
 150.61328 192.5918 l 1
 189.14258 193.64453 l 1
 256.83594 305.08008 l 1
 326.75195 418.78711 l 1
 332.86328 407.13672 l 1
 392.23438 426.91602 l 1
 454.625 427.20117 l 1
 450.28346 399.68583 445.3457 368.58203 445.3457 368.58203 c 1
 391.18945 269.65039 l 1
 274.53906 173.8418 l 1
 204.76953 115.51758 l 1
 344.32227 167.58008 l 1
 440.13281 234.24219 l 1
 503.66992 307.15039 l 1
 506.79297 316.25391 l 1
 652.5918 168.62695 l 1
 781.73242 138.42188 l 1
 946.29297 123.83984 l 1
 795.28125 183.20898 l 1
 679.67773 274.86523 l 1
 536.48633 427.59961 l 1
 609.89258 427.94141 l 1
 754.66016 468.5625 l 1
 817.1543 506.04688 l 1
 635.31445 488.49023 l 1
 671.3418 544.60742 l 1
 699.45703 597.7168 l 1
 640.10156 693.52734 l 1
 570.31836 687.2832 l 1
 554.79297 687.2832 l 1
 559.9043 727.9043 l 1
 540.125 766.43555 l 1
 444.30078 792.48242 l 1
169.36133 761.22852 m 1
 121.44922 698.75 l 1
 172.48438 647.71484 l 1
 273.50781 626.88867 l 1
 320.37305 651.88477 l 1
 306.83402 664.38268 231.8418 750.81641 231.8418 750.81641 c 1
 169.36133 761.22852 l 1
544.04102 601.70508 m 1
 613.01562 595.63281 l 1
 574.48633 506.07031 l 1
 564.04297 488.66211 l 1
 533.98242 488.66211 l 1
 535.95508 537.19141 l 1
 544.04102 601.70508 l 1
91.242188 575.85352 m 1
 77.707031 475.87891 l 1
 134.98633 462.32617 l 1
 204.76953 468.58789 l 1
 250.58984 490.46094 l 1
 227.67188 507.11719 l 1
 139.1543 555.02734 l 1
 91.242188 575.85352 l 1
EndSplineSet
Validated: 524841
EndChar

StartChar: "+MLAw6jDV 101"
Encoding: 101 23550 101
Width: 1024
LayerCount: 2
Fore
SplineSet
675.75781 826.50195 m 1
 678.08984 816.3125 l 1
 693.13477 749.61719 l 1
 695.32031 630.73828 l 1
 695.72461 608.2793 l 1
 618.03516 589.48047 l 1
 528.94922 578.08203 l 1
 520.93164 535.30859 l 1
 558.48828 496.4375 l 1
 675.10156 525.62891 l 1
 696.99805 530.69727 l 1
 699.62695 409.36328 l 1
 687.0625 239.50391 l 1
 551.65039 235.34766 l 1
 531.53711 236.39453 l 1
 592.54492 201.18359 l 1
 719.44336 145.49805 l 1
 771.89844 172.95898 l 1
 760.48633 263.97461 l 1
 760.48633 469.87695 l 1
 763.89258 546.10352 l 1
 848.36719 565.61328 l 1
 864.73828 626.87695 l 1
 766.32031 622.7207 l 1
 767.03125 641.22461 l 1
 785.02539 801.06641 l 1
 675.75781 826.50195 l 1
315.88672 816.47266 m 1
 330.28711 804.15039 l 1
 358.82031 779.67969 l 1
 372.69922 678.01562 l 1
 397.63867 688.70312 l 1
 450.54883 773.74023 l 1
 434.52539 811.04297 l 1
 315.88672 816.47266 l 1
579.4707 679.47852 m 1
 570.04492 677.45312 l 1
 456.01953 652.47266 l 1
 288.48047 620.03906 l 1
 234.05469 623.43164 l 1
 215.95312 604.08203 l 1
 197.00586 559.88867 l 1
 236.62891 534.80078 l 1
 306.62109 550.60938 l 1
 397.38477 570.53516 l 1
 542.16797 602.09766 l 1
 573.23633 642.2832 l 1
 579.4707 679.47852 l 1
422.72656 565.70703 m 1
 419.77539 562.36719 l 1
 396.52539 535.56445 l 1
 395.39844 452.55273 l 1
 387.84961 427.26367 l 1
 340.71875 463.85547 l 1
 260 452.55273 l 1
 306.56836 433.13672 l 1
 337.98438 394.42578 l 1
 364.94922 355.70312 l 1
 320.80859 271.32227 l 1
 159.26172 156.21094 l 1
 179.16016 160.74219 l 1
 258.01562 189.22266 l 1
 397.78711 273.91016 l 1
 411.97266 294.33203 l 1
 458.04297 241.32812 l 1
 492.61133 247.30859 l 1
 486.46875 316.9375 l 1
 455.81836 361.22656 l 1
 482.11328 420.41211 l 1
 488.85742 467.3418 l 1
 489.9707 542 l 1
 422.72656 565.70703 l 1
563.9043 441.90625 m 1
 562.13477 441.64648 l 1
 508.36523 436.7793 l 1
 508.36523 400.44336 l 1
 573.83984 372.36523 l 1
 629.88672 361.16992 l 1
 604.75977 422.59375 l 1
 563.9043 441.90625 l 1
EndSplineSet
Validated: 524809
EndChar

StartChar: "+MLAw6jDV 102"
Encoding: 102 22320 102
Width: 1024
LayerCount: 2
Fore
SplineSet
583.61523 814.58398 m 1
 581.17188 808.48242 l 1
 566.37109 771.7168 l 1
 559.04883 673.20508 l 1
 541.0957 568.25586 l 1
 490.15625 546.35938 l 1
 495.33203 638.30273 l 1
 413.72656 658.40234 l 1
 434.87305 560.35742 l 1
 428.5293 524.8125 l 1
 419.76172 521.95703 l 1
 385.60938 504.17578 l 1
 365.40234 442.49805 l 1
 416.10156 455.50391 l 1
 414.54688 446.85547 l 1
 416.97266 298.39648 l 1
 452.00977 209.17578 l 1
 590.11719 136.81055 l 1
 709.6543 123.61523 l 1
 835.64062 121.41602 l 1
 887.85352 176.99414 l 1
 844.63867 253.83789 l 1
 784.45898 372.1543 l 1
 769.30664 402.48242 l 1
 770.93164 302.79297 l 1
 776.5625 207.01562 l 1
 704.19727 204.05273 l 1
 578.38477 215.83789 l 1
 496.32422 262.76758 l 1
 477.04297 322.24805 l 1
 485.98633 473.42969 l 1
 483.48047 472.7832 l 1
 530.65234 494.10156 l 1
 525.35547 366.19922 l 1
 538.13477 364.22656 l 1
 547.14453 397.10352 l 1
 618.70508 328.50586 l 1
 682.07422 394.01953 l 1
 728.01172 533.76367 l 1
 752.05273 572.27344 l 1
 699.14453 624.95508 l 1
 622.125 614.56445 l 1
 606.20898 603.64844 l 1
 640.48242 710.91797 l 1
 656.16992 785.03906 l 1
 583.61523 814.58398 l 1
256.25781 734.25391 m 1
 255.68359 725.48438 l 1
 253.41797 694.4043 l 1
 261.0332 636.78711 l 1
 255.91211 556.34961 l 1
 205.26758 548.85352 l 1
 150.21289 531.36914 l 1
 178.49219 461.9668 l 1
 250.92383 463.60156 l 1
 247.49023 301.89453 l 1
 233.49219 293.24609 l 1
 190.74609 282.78711 l 1
 162.64258 282.78711 l 1
 136.14648 286.27344 l 1
 161.87695 214.31055 l 1
 183.07617 188.10938 l 1
 219.84375 189.38281 l 1
 280.42188 233.12305 l 1
 371.33203 316.22852 l 1
 392.23633 406.78906 l 1
 314.92188 346.4375 l 1
 320.84961 431.35352 l 1
 320.84961 482.86914 l 1
 353.08398 498.03516 l 1
 403.44531 555.70508 l 1
 379.10938 571.91602 l 1
 345.13281 569.5957 l 1
 320.84961 566.00195 l 1
 320.84961 580.52344 l 1
 344.83594 652.54102 l 1
 339.95703 702.55469 l 1
 256.25781 734.25391 l 1
651.2207 538.91797 m 1
 602.96289 448.02148 l 1
 581.64258 395.11133 l 1
 551.60938 413.40039 l 1
 579.72656 516.27148 l 1
 589.48633 520.62891 l 1
 651.2207 538.91797 l 1
EndSplineSet
Validated: 524809
EndChar

StartChar: "+MLAw6jDV 103"
Encoding: 103 29508 103
Width: 1024
LayerCount: 2
Fore
SplineSet
399.70508 890.74805 m 1
 401.58398 876.50781 l 1
 409.18555 818.83789 l 1
 419.06836 754.22266 l 1
 437.61328 691.57812 l 1
 445.87109 689.40625 l 1
 414.5625 680.58398 l 1
 342.59961 675.9707 l 1
 334.48828 619.21289 l 1
 409.24023 601.125 l 1
 477.65039 620.17773 l 1
 536.13867 647.18359 l 1
 579.36719 704.35547 l 1
 486.16406 698.63086 l 1
 512.76758 770.83594 l 1
 491.68945 829.43164 l 1
 399.70508 890.74805 l 1
730.07812 851.92969 m 1
 729.81055 841.17773 l 1
 728.29492 783.45312 l 1
 714.82031 729.53711 l 1
 803.25 759.63867 l 1
 797.7793 814.32031 l 1
 730.07812 851.92969 l 1
588.68555 851.51758 m 1
 590.05273 843.04297 l 1
 594.71875 813.50391 l 1
 608.39648 763.33008 l 1
 605.09766 641.80859 l 1
 592.68164 638.50977 l 1
 554.42578 640.0918 l 1
 520.82422 632.65039 l 1
 520.82422 596.56836 l 1
 546.56836 548.41797 l 1
 600.64648 551.25977 l 1
 590 407.2793 l 1
 545.85742 261.0332 l 1
 514.95117 200.72266 l 1
 312.08008 109.25195 l 1
 332.00586 113.86133 l 1
 446.07227 138.54688 l 1
 539.82422 169.80273 l 1
 603.32617 223.78516 l 1
 634.95703 290.16992 l 1
 643.51172 326.10547 l 1
 691.35352 254.28906 l 1
 749.8418 200.57422 l 1
 938.60742 137.125 l 1
 953.13867 131.33008 l 1
 800.41992 237.56836 l 1
 753.54297 287.43359 l 1
 661.70703 402.92188 l 1
 664.44336 414.42773 l 1
 669.05469 528.70703 l 1
 671.48242 566.66797 l 1
 732.70508 592.15625 l 1
 783.38867 614.14648 l 1
 775.78711 671.36133 l 1
 686.0293 663.06055 l 1
 677.51562 660.82227 l 1
 682.94531 746.01953 l 1
 668.25 842.30664 l 1
 588.68555 851.51758 l 1
300.88477 819.53906 m 1
 296.58008 816.29297 l 1
 274.02734 799.35742 l 1
 240.68164 752.69727 l 1
 221.77344 720.81055 l 1
 145.59961 775.08789 l 1
 136.64453 765.81055 l 1
 177.37891 712.20312 l 1
 193.09375 672.47266 l 1
 185.38477 659.43945 l 1
 84.644531 539.23242 l 1
 93.308594 529.60547 l 1
 150.01172 567.82031 l 1
 214.17188 619.10742 l 1
 249.59766 534.32422 l 1
 256.68945 490.13086 l 1
 203.43164 412.64258 l 1
 70.861328 325.32617 l 1
 76.480469 313.67383 l 1
 120.47266 328.00781 l 1
 244.67578 393.9375 l 1
 268.24805 418.62305 l 1
 269.96289 407.83008 l 1
 253.90039 290.20898 l 1
 236.61719 251.99609 l 1
 206.51367 269.32031 l 1
 114.07422 294.34961 l 1
 133.59961 281.99023 l 1
 149.09961 270.6875 l 1
 194.60742 208.85938 l 1
 268.30078 148.10547 l 1
 289.48633 169.29297 l 1
 324.14844 234.20312 l 1
 337.42188 335.71875 l 1
 339.35156 481.96484 l 1
 355.25586 492.0625 l 1
 392.86523 501.72852 l 1
 392.86523 513.17969 l 1
 411.71875 491.39062 l 1
 457.52148 493.83203 l 1
 500.85742 514.92383 l 1
 525.08789 561.94727 l 1
 432.79688 564.44141 l 1
 384.09766 559.72266 l 1
 327.59375 625.96094 l 1
 312.9375 586.99414 l 1
 306.50195 608.32812 l 1
 273.57031 666.10547 l 1
 340.97461 709.57617 l 1
 372.08203 754.48047 l 1
 300.88477 819.53906 l 1
510.59375 463.07227 m 1
 506.49023 462.10742 l 1
 446.94336 447.96094 l 1
 367.2168 434.33789 l 1
 357.54883 405.29492 l 1
 421.14648 379.0957 l 1
 490.37305 408.64648 l 1
 532.89258 434.39258 l 1
 510.59375 463.07227 l 1
524.98047 405.49609 m 1
 520.07422 402.76172 l 1
 474.15039 377.125 l 1
 432.0332 367.38867 l 1
 397.02344 351.62109 l 1
 352.52148 365.51172 l 1
 339.55469 365.51172 l 1
 350.55078 296.99414 l 1
 360.37891 246.82031 l 1
 368.83984 208.10938 l 1
 411.35742 196.75195 l 1
 419.83203 224.62891 l 1
 470.81055 239.01562 l 1
 474.00195 225.39258 l 1
 516.97656 241.14844 l 1
 528.5332 302.16992 l 1
 547.73633 375.64844 l 1
 524.98047 405.49609 l 1
468.37109 326.23828 m 1
 465.17969 276.57422 l 1
 420.7832 268.00586 l 1
 418.86523 282.75391 l 1
 413.89062 317.41602 l 1
 468.37109 326.23828 l 1
EndSplineSet
Validated: 524809
EndChar

StartChar: "+MLAw6jDV 104"
Encoding: 104 22580 104
Width: 1024
LayerCount: 2
Fore
SplineSet
671.14844 838.20312 m 1
 484.05078 810.82227 l 1
 485.55078 808.74609 l 1
 449.83203 810.82227 l 1
 500.02148 744.66211 l 1
 497.9082 587.2168 l 1
 465.80273 587.2168 l 1
 425.87305 586.07617 l 1
 445.26562 551.85938 l 1
 510.81445 552.32617 l 1
 509.15039 500.50781 l 1
 504.4082 495.11914 l 1
 498.875 493.63867 l 1
 502.34375 492.73047 l 1
 401.91406 378.42578 l 1
 274.13867 279.17383 l 1
 430.4375 364.72852 l 1
 553.64648 466.25781 l 1
 565.23047 476.14648 l 1
 575.89453 473.34961 l 1
 575.3125 453.73047 l 1
 526.25195 375.01172 l 1
 430.4375 270.05078 l 1
 235.35352 151.40625 l 1
 474.93164 260.9375 l 1
 595.85156 385.27734 l 1
 635.24805 457.69727 l 1
 657.96289 451.71094 l 1
 617.51758 380.70703 l 1
 506.85938 233.54297 l 1
 325.47461 112.62305 l 1
 511.42578 200.46875 l 1
 662.01367 349.9082 l 1
 707.65234 413.80078 l 1
 721.98047 434.83789 l 1
 749.85742 427.47852 l 1
 743.01758 385.27734 l 1
 658.5918 205.03516 l 1
 595.85156 143.42188 l 1
 444.11719 97.79688 l 1
 575.3125 103.50781 l 1
 681.4043 108.05859 l 1
 708.7832 136.58008 l 1
 803.46875 268.92188 l 1
 866.21094 387.54688 l 1
 862.79102 426.35156 l 1
 780.65625 473.12109 l 1
 659.73828 509.63086 l 1
 598.18945 512.07031 l 1
 587.86523 539.30273 l 1
 567.16602 552.75977 l 1
 595.85156 553.07031 l 1
 768.10547 557.63867 l 1
 842.25391 565.62109 l 1
 865.08203 597.56445 l 1
 722.48047 595.28125 l 1
 541.64258 587.79688 l 1
 547.37109 624.01562 l 1
 643.00781 630.72656 l 1
 664.28711 605.55664 l 1
 712.20312 635.22656 l 1
 755.55273 712.79688 l 1
 735.03125 826.875 l 1
 671.14844 838.20312 l 1
287.83984 785.73828 m 1
 285.56445 744.66211 l 1
 280.14258 641.85938 l 1
 274.14062 641.85938 l 1
 180.60156 630.45312 l 1
 169.19336 612.20508 l 1
 189.73242 555.16016 l 1
 281.82031 560.0918 l 1
 286.51562 477.83008 l 1
 196.57227 438.80469 l 1
 157.78906 436.52148 l 1
 233.08203 361.22852 l 1
 360.8418 406.85352 l 1
 454.39844 527.78516 l 1
 341.85156 497.78125 l 1
 335.75391 555.16406 l 1
 337.91211 566.81445 l 1
 433.85742 589.38086 l 1
 484.04688 637.29883 l 1
 351.57812 640.16992 l 1
 372.25977 751.36328 l 1
 287.83984 785.73828 l 1
655.17578 783.45508 m 1
 680.26367 765.20312 l 1
 671.77734 738.34375 l 1
 604.98633 741.24805 l 1
 565.05664 735.98438 l 1
 570.75195 772.04297 l 1
 568.94336 773.57422 l 1
 655.17578 783.45508 l 1
662.9375 710.32422 m 1
 651.69336 674.69727 l 1
 557.07031 668.22656 l 1
 554.55664 669.47266 l 1
 560.55859 707.43359 l 1
 662.9375 710.32422 l 1
EndSplineSet
Validated: 524809
EndChar

StartChar: "+MLAw6jDV 105"
Encoding: 105 20108 105
Width: 1024
LayerCount: 2
Fore
SplineSet
448.86523 616.48047 m 1
 342.90039 605.90039 l 1
 281.98633 547.62695 l 1
 287.28711 489.33203 l 1
 483.3125 505.23438 l 1
 666.09375 555.57031 l 1
 814.42969 611.20312 l 1
 644.89062 613.84766 l 1
 448.86523 616.48047 l 1
308.4707 354.24219 m 1
 191.90625 264.18164 l 1
 157.47656 203.24805 l 1
 369.40625 163.51758 l 1
 557.48828 171.45703 l 1
 703.18359 224.43164 l 1
 875.36328 264.18164 l 1
 462.10742 277.42578 l 1
 316.41406 293.31055 l 1
 308.4707 354.24219 l 1
EndSplineSet
Validated: 524809
EndChar

StartChar: "+MLAw6jDV 106"
Encoding: 106 30007 106
Width: 1024
LayerCount: 2
Fore
SplineSet
762.60742 819.54297 m 1
 697.49219 787.84375 l 1
 668.36133 788.69922 l 1
 454.45898 780.41992 l 1
 353.92578 816.97461 l 1
 359.06641 778.41602 l 1
 366.77734 701.30664 l 1
 357.35156 564.22266 l 1
 383.05469 498.25 l 1
 435.31836 481.97461 l 1
 441.31641 511.54492 l 1
 461.02148 500.81836 l 1
 476.41016 498.30273 l 1
 480.74609 439.75195 l 1
 442.17383 435.70508 l 1
 312.80078 432.30078 l 1
 280.24219 375.75391 l 1
 390.76758 374.89844 l 1
 477.95117 380.89648 l 1
 447.31445 317.49609 l 1
 379.62891 206.9707 l 1
 196.27734 72.45703 l 1
 464.44922 208.68359 l 1
 535.56055 294.36133 l 1
 573.31055 387.47461 l 1
 676.92969 394.60547 l 1
 706.91602 392.03711 l 1
 747.18555 330.34375 l 1
 694.92188 247.23828 l 1
 646.08594 254.94922 l 1
 556.98047 282.36914 l 1
 644.37305 198.40039 l 1
 695.77734 155.5625 l 1
 800.30469 245.52344 l 1
 827.72266 295.2207 l 1
 810.58789 383.4668 l 1
 770.31836 439.15625 l 1
 597.25 452.00977 l 1
 570.62109 449.22266 l 1
 568.42773 486.80273 l 1
 666.64844 511.15234 l 1
 712.16016 515.38281 l 1
 711.20117 499.1582 l 1
 740.33203 470.88477 l 1
 778.0293 547.13672 l 1
 809.73047 654.23438 l 1
 808.87695 756.19141 l 1
 762.60742 819.54297 l 1
695.77734 751.85742 m 1
 724.05273 718.44336 l 1
 722.16602 686.17969 l 1
 608.40234 684.67578 l 1
 609.20409 698.96221 610.09961 715.02344 610.09961 715.02344 c 1
 597.04297 746.38281 l 1
 695.77734 751.85742 l 1
525.75977 742.41797 m 1
 520.13867 727.86914 l 1
 521.47656 680.40234 l 1
 454.32227 675.33398 l 1
 455.02539 690.17188 l 1
 461.8457 738.86914 l 1
 525.75977 742.41797 l 1
720.4375 656.66992 m 1
 714.71289 558.98047 l 1
 694.92188 553.94336 l 1
 601.82422 547.99805 l 1
 602.26272 563.09148 604.19316 628.84318 604.96094 631.91016 c 0
 605.23873 632.94805 605.82474 641.78944 606.50195 652.60938 c 1
 720.4375 656.66992 l 1
522.38477 648.51367 m 1
 522.7168 637.04883 l 1
 522.7168 542.94336 l 1
 507.29492 541.95898 l 1
 448.69141 556.10938 l 1
 452.87305 644.70117 l 1
 522.38477 648.51367 l 1
EndSplineSet
Validated: 524809
EndChar

StartChar: "+MLAw6jDV 107"
Encoding: 107 32773 107
Width: 1024
LayerCount: 2
Fore
SplineSet
482.25781 823.77734 m 1
 478.58789 794.12305 l 1
 470.78906 728.2832 l 1
 368.61523 723.73828 l 1
 317.53711 680.69727 l 1
 455.11328 674.29883 l 1
 469.42578 674.92188 l 1
 485.25781 596.4375 l 1
 413.69727 584.66797 l 1
 276.18555 568.4375 l 1
 253.2168 532.70898 l 1
 416.4043 543.36523 l 1
 538.4668 543.72852 l 1
 552.77344 544.29883 l 1
 552.53906 543.98828 l 1
 445.57617 443.4375 l 1
 440.57019 445.4614 435.96589 447.35772 434.51758 448.1543 c 1
 432.19531 430.875 l 1
 409.80859 409.82031 l 1
 141.64648 243.73633 l 1
 276.20508 289.61133 l 1
 276.20508 289.61133 399.71501 357.69592 405.92969 358.57031 c 0
 407.5254 358.88175 420.82891 368.82926 439.29492 383.24805 c 1
 445.88867 367.36328 l 1
 451.63086 247.75781 l 1
 442.15039 168.7832 l 1
 490.04883 154.92578 l 1
 497.89258 163.58789 l 1
 498.49805 162.47266 l 1
 600.0957 149.83984 l 1
 689.08008 173.91211 l 1
 699.07031 155.84766 l 1
 740.31641 144.2207 l 1
 748.61328 186.58789 l 1
 761.65234 375.38672 l 1
 761.20312 479.89648 l 1
 672.73633 511.80859 l 1
 634.98828 498.57227 l 1
 577.94336 494.33008 l 1
 579.75451 495.78312 591.28906 505.09766 591.28906 505.09766 c 1
 624.33203 550.18359 l 1
 665.06055 555.08008 l 1
 861.54688 611.25391 l 1
 861.54688 611.25391 888.87828 630.95806 880.89062 631.41992 c 0
 875.96817 631.73135 768.48927 623.57293 672.74023 616.24023 c 1
 690.97461 641.13477 l 1
 715.73047 701.65625 l 1
 741.55469 743.31836 l 1
 676.63477 788.05469 l 1
 653.78906 792.75781 l 1
 653.63477 719.04883 l 1
 647.9043 721.58984 l 1
 566.38086 729.04883 l 1
 570.82422 775.71875 l 1
 562.89062 808.20898 l 1
 482.25781 823.77734 l 1
643.29492 685.90039 m 1
 624.14258 631.72852 l 1
 607.39844 611.22656 l 1
 590.59352 609.90327 552.88228 607.04185 551.375 606.91992 c 1
 560.85938 671.25586 l 1
 561.59375 678.98633 l 1
 628.81836 681.93164 l 1
 643.29492 685.90039 l 1
659.75195 468.79297 m 1
 673.11523 385.11719 l 1
 672.84375 358.49219 l 1
 568.76758 360.93164 l 1
 508.66992 350.3457 l 1
 499.88672 422.5332 l 1
 499.88672 422.5332 493.95862 424.764 492.33984 425.38672 c 1
 512.88044 441.81901 518.24402 446.16772 535.62305 460.20508 c 1
 535.63305 460.19508 l 1
 659.75195 468.79297 l 1
608.44922 337.98438 m 1
 672.66016 337.23242 l 1
 671.53125 218.84375 l 1
 663.66992 215.81055 l 1
 508.53906 216.12109 l 1
 510.89258 265.60156 l 1
 510.37695 305.1875 l 1
 608.44922 337.98438 l 1
EndSplineSet
Validated: 524841
EndChar

StartChar: "+MLAw6jDV 108"
Encoding: 108 20316 108
Width: 1024
LayerCount: 2
Fore
SplineSet
512.00977 866.71484 m 2
 512.00877 866.71484 509.22087 824.92771 511.07812 820.2832 c 0
 512.93085 815.64126 510.14648 712.57227 510.14648 712.57227 c 1
 401.50586 551.93359 l 1
 401.50586 551.93359 375.50618 504.58019 397.79102 514.79297 c 0
 420.077 525.00571 519.43164 596.5 519.43164 596.5 c 1
 538.76367 623.00391 l 1
 538.91797 620.61719 l 1
 538.33008 559.74219 l 1
 529.63867 562.13086 l 1
 520.35352 561.19531 l 1
 537.7168 496.27148 l 1
 537.07031 429.33789 l 1
 536.7832 369.07812 l 1
 513.84766 367.13281 l 1
 491.5625 356.91992 l 1
 476.70508 356.91992 l 1
 506.41797 303.99023 l 1
 506.41797 303.99023 521.3121 307.40446 536.50391 310.49219 c 1
 536.13477 231.56641 l 1
 543.5625 143.34961 l 1
 526.84766 1.2852 l 1
 587.20508 187.92188 l 1
 605.25586 308.26367 l 1
 636.80887 302.49823 673.56055 295.63477 673.56055 295.63477 c 1
 751.55859 314.20898 l 1
 859.27148 374.56055 l 1
 859.27148 374.56055 800.77098 377.33008 783.12891 377.33008 c 0
 765.48645 377.33008 674.48847 375.46094 669.8457 375.46094 c 0
 666.04047 375.46094 627.58713 375.98023 611.25391 376.26562 c 1
 618.99805 475.4375 l 1
 626.20508 474.86719 l 1
 748.77344 478.58008 l 1
 781.27344 503.65039 l 1
 836.05664 558.43945 l 1
 836.05664 558.43945 744.13011 554.72121 734.8457 553.79492 c 0
 725.77484 552.88678 637.47879 542.32294 621.24609 542.69141 c 1
 620.63867 610.4375 l 1
 619.59766 662.11914 l 1
 654.06641 674.50977 l 1
 721.85156 689.36719 l 1
 804.49219 742.29297 l 1
 750.63477 741.35938 l 1
 598.4082 732.24414 l 1
 601.14062 738.57227 l 1
 604.85352 854.64453 l 1
 512.00977 866.71484 l 2
291.01172 825.85547 m 1
 283.58398 804.50195 l 1
 292.86914 747.85938 l 1
 297.51172 646.64453 l 1
 277.08398 576.07422 l 1
 164.72852 357.86523 l 1
 292.86914 475.79102 l 1
 304.29102 491.74414 l 1
 304.93555 489.69336 l 1
 306.79492 404.27148 l 1
 266.86719 315.12891 l 1
 191.65234 258.48633 l 1
 274.29492 260.35547 l 1
 336.50781 306.78516 l 1
 393.15039 382.92383 l 1
 418.2207 415.42578 l 1
 411.7207 445.13672 l 1
 381.07812 522.21094 l 1
 341.74414 544.05078 l 1
 346.72266 550.99414 l 1
 357.86523 576.06445 l 1
 385.7207 766.41602 l 1
 366.2207 820.27344 l 1
 291.01172 825.85547 l 1
EndSplineSet
Validated: 524841
EndChar

